<svg width="130" height="60" viewBox="0 0 130 60" fill="none" xmlns="http://www.w3.org/2000/svg">
<mask id="mask0_124_2" style="mask-type:alpha" maskUnits="userSpaceOnUse" x="0" y="0" width="130" height="60">
<rect width="130" height="60" fill="#D9D9D9"/>
</mask>
<g mask="url(#mask0_124_2)">
<path fill-rule="evenodd" clip-rule="evenodd" d="M119.292 32.6492C119.244 31.3873 118.948 30.1463 118.42 28.9946C118.186 28.512 117.922 28.0445 117.627 27.5949C117.816 27.1775 117.924 26.7292 117.944 26.2731V21.141C117.944 20.3368 117.619 19.5654 117.039 18.9967C116.459 18.428 115.673 18.1085 114.853 18.1085H104.709C103.415 18.2014 102.164 18.6017 101.063 19.2749C100.358 19.7342 99.7187 20.2833 99.1611 20.9078C98.2125 20.1239 97.1423 19.4939 95.9909 19.0416C94.4841 18.4256 92.868 18.1085 91.2357 18.1085C89.6033 18.1085 87.9872 18.4256 86.4804 19.0416C85.9098 19.296 85.3541 19.5815 84.816 19.8969C84.5765 19.3697 84.1878 18.921 83.6962 18.604C83.2045 18.287 82.6304 18.115 82.0422 18.1085H75.5433C74.7235 18.1085 73.9374 18.428 73.3577 18.9967C72.778 19.5654 72.4524 20.3368 72.4524 21.141V23.3183C72.0453 22.6962 71.5667 22.1222 71.0258 21.6076C69.9018 20.5269 68.5856 19.6572 67.1423 19.0416C65.6356 18.4256 64.0194 18.1085 62.3871 18.1085C60.7548 18.1085 59.1386 18.4256 57.6318 19.0416C56.9858 19.2743 56.3731 19.5879 55.809 19.9747C55.5699 19.4251 55.1727 18.9558 54.6659 18.6244C54.1591 18.2929 53.5649 18.1136 52.9558 18.1085H46.457C45.8757 18.1453 45.3122 18.3202 44.8151 18.6182C44.3181 18.9162 43.9024 19.3284 43.6038 19.8192C43.3661 20.208 42.5735 21.2188 42.5735 21.2188L42.2565 20.83L45.4267 11.9656C45.5786 11.5127 45.6218 11.0314 45.5531 10.5594C45.4844 10.0873 45.3055 9.63723 45.0304 9.24412C44.7502 8.86107 44.3814 8.54862 43.9544 8.33236C43.5273 8.11611 43.0541 8.00221 42.5735 8H12.9324C12.1326 8.00003 11.3646 8.30702 10.7925 8.85533C10.2885 9.44396 10.0083 10.186 10 10.9548L10.0793 21.5298C10.0793 22.3135 10.3966 23.0651 10.9614 23.6192C11.5261 24.1733 12.2922 24.4846 13.0909 24.4846H20.8578L12.8532 47.1121C12.7011 47.5559 12.659 48.0288 12.7303 48.4918C12.8015 48.9547 12.9841 49.3943 13.263 49.7743C13.5418 50.1542 13.9088 50.4636 14.3337 50.6767C14.7586 50.8899 15.2291 51.0007 15.7063 51H29.2588C29.8784 50.9948 30.482 50.8066 30.991 50.4598C31.4999 50.113 31.8906 49.6239 32.1119 49.0561L34.5688 42.2134H38.7693C39.5891 42.2134 40.3753 41.8939 40.9549 41.3252C41.5346 40.7565 41.8602 39.9851 41.8602 39.1808V38.0145C42.1696 38.1039 42.489 38.1562 42.8113 38.17C43.0518 38.1826 43.2928 38.1564 43.5246 38.0922V39.1808C43.5246 39.9851 43.8502 40.7565 44.4299 41.3252C45.0095 41.8939 45.7957 42.2134 46.6155 42.2134H53.1143C53.7355 42.2145 54.342 42.0287 54.8521 41.6811C55.3623 41.3335 55.7516 40.8408 55.9675 40.2694C56.2449 40.4249 56.5421 40.5805 56.8393 40.736C57.1365 40.8915 57.4337 41.047 57.7111 41.2025C59.2178 41.8185 60.834 42.1356 62.4663 42.1356C64.0987 42.1356 65.7148 41.8185 67.2216 41.2025C67.7474 40.9904 68.2515 40.73 68.7274 40.425C68.9625 40.9554 69.3501 41.4071 69.8427 41.7247C70.3354 42.0424 70.9118 42.2122 71.5013 42.2134H75.147C77.06 42.0904 78.8996 41.4439 80.4571 40.3472C81.2344 39.8287 81.9288 39.1998 82.5177 38.481C82.5177 38.5016 82.526 38.5214 82.5409 38.536C82.5558 38.5506 82.5759 38.5588 82.5969 38.5588C83.721 39.6395 85.0371 40.5091 86.4804 41.1248C87.9872 41.7407 89.6033 42.0579 91.2357 42.0579C92.868 42.0579 94.4841 41.7407 95.9909 41.1248C96.9821 40.7301 97.915 40.2071 98.7648 39.5696C98.8717 40.2797 99.2342 40.9288 99.7866 41.3995C100.339 41.8701 101.045 42.1313 101.776 42.1356H111.921C113.215 42.0427 114.466 41.6424 115.567 40.9693C116.638 40.3607 117.516 39.4724 118.103 38.4033C118.849 37.0699 119.231 35.5699 119.212 34.0488V32.7269L119.292 32.6492ZM29.4172 40.5805C29.192 40.176 29.0824 39.7192 29.1002 39.2586V21.1411C29.1002 20.3368 29.4258 19.5654 30.0055 18.9967C30.5852 18.428 31.3713 18.1085 32.1911 18.1085H38.69C39.0122 18.1223 39.3316 18.1745 39.641 18.264L42.1772 11.1881H13.3286L13.4078 21.1411H25.613L16.1025 47.7342H29.0209L31.0816 41.9801C30.3783 41.7168 29.79 41.2221 29.4172 40.5805ZM38.6901 21.141L42.6528 26.273L46.457 21.141H52.9558V39.2585H46.457V30.4719L42.6528 35.2929L38.6901 30.2387V39.2585H32.1912V21.141H38.6901ZM75.5434 30.4719C75.5434 32.6491 74.2753 32.7269 74.2753 32.7269H71.5014V39.2585H75.1471C75.5434 39.2585 82.0422 38.481 82.0422 31.0162V30.1291C82.0452 30.7019 82.1038 31.2757 82.2188 31.8429C82.5735 33.5926 83.4491 35.1998 84.7348 36.4612C86.0206 37.7227 87.6587 38.5817 89.4421 38.9298C91.2254 39.2778 93.0739 39.0992 94.7538 38.4165C96.4337 37.7338 97.8695 36.5777 98.8797 35.0944C99.8899 33.6111 100.429 31.8672 100.429 30.0832C100.442 28.8953 100.212 27.7168 99.7548 26.617C99.2972 25.5171 98.6205 24.5178 97.7643 23.6778C96.9081 22.8378 95.8896 22.1738 94.7686 21.7249C93.6475 21.2759 92.4464 21.051 91.2356 21.0633C89.4173 21.0633 87.6399 21.5923 86.128 22.5834C84.6161 23.5745 83.4378 24.9833 82.7419 26.6314C82.2837 27.7168 82.0483 28.874 82.0422 30.0374V21.141H75.5434V30.4719ZM89.7826 32.2945C90.2127 32.5765 90.7184 32.7269 91.2356 32.7269C91.9274 32.7211 92.5892 32.4488 93.0784 31.9689C93.5675 31.4889 93.845 30.8397 93.851 30.1609C93.851 29.6534 93.6976 29.1573 93.4102 28.7353C93.1229 28.3134 92.7144 27.9845 92.2365 27.7903C91.7586 27.5961 91.2327 27.5452 90.7254 27.6442C90.2181 27.7433 89.752 27.9876 89.3863 28.3465C89.0205 28.7054 88.7714 29.1626 88.6705 29.6603C88.5696 30.1581 88.6214 30.674 88.8193 31.1429C89.0173 31.6118 89.3525 32.0125 89.7826 32.2945ZM111.842 27.595H107.958C107.958 27.595 107.245 27.5172 107.245 26.8951C107.245 26.2731 108.038 26.1953 108.038 26.1953H114.933V21.0633H104.947C103.67 21.1805 102.491 21.783 101.662 22.7421C100.832 23.7012 100.418 24.9406 100.508 26.1953C100.508 32.2604 103.758 32.6492 104.947 32.6492H108.83C108.83 32.6492 109.543 32.727 109.543 33.349C109.543 33.9711 108.751 34.0488 108.751 34.0488H101.856V39.1808H111.842C113.118 39.0637 114.297 38.4611 115.127 37.5021C115.956 36.543 116.37 35.3035 116.28 34.0488V32.727C116.28 32.727 116.122 27.595 111.842 27.595ZM57.2795 22.5834C58.7914 21.5923 60.5689 21.0633 62.3872 21.0633C64.8249 21.065 67.1623 22.0158 68.8861 23.707C70.6098 25.3982 71.579 27.6915 71.5807 30.0832C71.5807 31.8672 71.0415 33.6111 70.0313 35.0944C69.0211 36.5777 67.5852 37.7338 65.9054 38.4165C64.2255 39.0992 62.377 39.2778 60.5936 38.9298C58.8102 38.5817 57.1721 37.7227 55.8864 36.4612C54.6006 35.1998 53.725 33.5926 53.3703 31.8429C53.0156 30.0932 53.1976 28.2796 53.8935 26.6314C54.5893 24.9833 55.7677 23.5746 57.2795 22.5834ZM60.9341 32.2945C61.3642 32.5765 61.8699 32.727 62.3872 32.727C63.0789 32.7211 63.7407 32.4488 64.2299 31.9689C64.7191 31.4889 64.9965 30.8397 65.0025 30.161C65.0025 29.6535 64.8492 29.1573 64.5618 28.7354C64.2744 28.3134 63.8659 27.9845 63.388 27.7903C62.9101 27.5961 62.3843 27.5453 61.8769 27.6443C61.3696 27.7433 60.9036 27.9877 60.5378 28.3465C60.172 28.7054 59.9229 29.1626 59.822 29.6604C59.7211 30.1581 59.7729 30.674 59.9708 31.1429C60.1688 31.6118 60.504 32.0126 60.9341 32.2945Z" fill="#585978"/>
</g>
</svg>
