<svg width="130" height="60" viewBox="0 0 130 60" fill="none" xmlns="http://www.w3.org/2000/svg">
<mask id="mask0_124_842" style="mask-type:alpha" maskUnits="userSpaceOnUse" x="0" y="0" width="130" height="60">
<rect width="130" height="60" fill="#D9D9D9"/>
</mask>
<g mask="url(#mask0_124_842)">
<mask id="mask1_124_842" style="mask-type:luminance" maskUnits="userSpaceOnUse" x="5" y="10" width="120" height="38">
<path d="M125 10.7966H5V47.4068H125V10.7966Z" fill="white"/>
</mask>
<g mask="url(#mask1_124_842)">
<path d="M27.5022 28.3427C28.169 27.3833 28.5094 26.3123 28.5184 25.1258L28.5037 16.7702C28.5139 16.5844 28.5125 16.4123 28.4978 16.2527C28.3561 14.7151 27.6835 13.4211 26.4788 12.3722C25.2742 11.3247 23.8459 10.7988 22.1924 10.7988L16.3066 10.7961L16.3139 28.3427H27.5022ZM23.5857 15.2973C23.9804 15.6428 24.2011 16.0806 24.2509 16.6105C24.2552 16.6642 24.2611 16.7165 24.2655 16.7702L24.2801 25.1258C24.2742 25.6832 24.0666 26.154 23.6558 26.5381C23.245 26.9221 22.7465 27.1148 22.1603 27.1135L20.4863 27.1121L20.4834 14.7784L22.1573 14.7798C22.7158 14.7798 23.1909 14.9518 23.5857 15.2973Z" fill="#585978"/>
<path d="M28.9103 32.5671C28.8182 31.5679 28.495 30.6649 27.9424 29.8582H16.317L16.3243 47.402L22.6297 47.4048C24.3665 47.4063 25.8475 46.8225 27.0711 45.6567C28.2949 44.4907 28.9146 43.0852 28.9307 41.4404L28.9162 33.0848C28.9264 32.8989 28.925 32.7268 28.9103 32.5671ZM24.6896 41.4376C24.6852 41.9951 24.4776 42.4659 24.0668 42.8499C23.656 43.2339 23.1707 43.4267 22.6137 43.4267L20.5216 43.4253L20.5275 31.0916L22.6371 31.093C23.1721 31.093 23.637 31.2665 24.0347 31.6106C24.4323 31.956 24.6545 32.3939 24.7043 32.9237C24.7086 32.9774 24.7145 33.0297 24.7189 33.0833L24.6896 41.4376Z" fill="#585978"/>
<path d="M45.8616 14.788L50.059 14.7839L50.0531 28.3028H54.2504L54.2561 14.7798L58.0339 14.7743L58.05 10.7961L45.8777 10.8098L45.8616 14.788Z" fill="#585978"/>
<path d="M54.2399 47.4005L54.2488 29.8182H50.0515L50.0427 47.4048L54.2399 47.4005Z" fill="#585978"/>
<path d="M31.9703 10.7961L31.9646 28.3028H42.8795L42.8852 27.108L36.1384 27.1107L36.1443 14.7784L42.8458 14.7853L42.859 10.8071L31.9703 10.7961Z" fill="#585978"/>
<path d="M42.8852 43.4362L36.1618 43.421L36.166 31.0887L42.8677 31.0942L42.8734 29.8182H31.9644L31.9585 47.395L42.8472 47.4048L42.8852 43.4362Z" fill="#585978"/>
<path d="M103.775 14.7798L107.986 14.7784L107.984 28.3028H112.193L112.196 14.777L115.984 14.7756L116 10.7961L103.791 10.8002L103.775 14.7798Z" fill="#585978"/>
<path d="M112.19 47.4033L112.193 29.8182H107.982L107.98 47.4048L112.19 47.4033Z" fill="#585978"/>
<path d="M91.161 10.803L91.1537 28.3028H102.166L102.159 27.108L95.3773 27.1121L95.3846 14.7798L102.165 14.7756L102.18 10.7961L91.161 10.803Z" fill="#585978"/>
<path d="M91.1541 29.8182L91.1468 47.4048L95.385 47.4019L95.4054 31.0901L102.187 31.0859L102.179 29.8182H91.1541Z" fill="#585978"/>
<path d="M79.9278 28.3027L79.9424 16.7674C79.9483 16.2099 80.1574 15.7392 80.5725 15.3537C80.9862 14.9697 81.4732 14.7756 82.0345 14.7756C82.5944 14.7756 83.0738 14.9477 83.47 15.2918C83.8662 15.6359 84.0885 16.0737 84.1367 16.605C84.1412 16.6587 84.1469 16.711 84.1514 16.7647L84.1441 28.3041H88.3252L88.3325 16.7619C88.3429 16.5761 88.3414 16.404 88.3268 16.2444C88.1864 14.7068 87.5183 13.4142 86.3224 12.3667C85.125 11.3191 83.7056 10.7974 82.0607 10.7974C80.3313 10.7988 78.8592 11.3838 77.6413 12.5511C76.4236 13.7198 75.8051 15.1252 75.7876 16.7702L75.7803 28.3027H79.9278Z" fill="#585978"/>
<path d="M84.1428 29.8183L84.1355 41.4348C84.1296 41.9923 83.9191 42.4631 83.504 42.8471C83.0889 43.2325 82.5991 43.4253 82.0361 43.4253C81.4733 43.4253 80.9923 43.2533 80.5961 42.9091C80.1999 42.565 79.9764 42.1273 79.928 41.5958C79.9237 41.5436 79.9178 41.4899 79.9134 41.4362L79.928 29.8169H75.7819L75.7746 41.4403C75.763 41.6262 75.7658 41.7982 75.779 41.9579C75.9194 43.4969 76.5861 44.7895 77.7834 45.8355C78.9792 46.8832 80.4003 47.4049 82.0449 47.4049C83.7731 47.4034 85.2466 46.8197 86.4645 45.651C87.6822 44.4838 88.3007 43.0769 88.3182 41.4321L88.3256 29.8183H84.1428Z" fill="#585978"/>
<path d="M62.699 28.3028H69.5702C68.8144 27.7067 68.0541 27.1107 67.2867 26.5146C65.9285 25.3473 65.1698 23.8621 65.0104 22.0588C64.9841 21.767 64.9709 21.4614 64.9709 21.1434L65.003 16.7661C65.0089 16.2086 65.2194 15.7378 65.6317 15.3537C66.044 14.9697 66.5279 14.777 67.0864 14.777C67.6434 14.777 68.12 14.949 68.5131 15.2932C68.9051 15.6387 69.1257 16.0764 69.1725 16.6064C69.177 16.6601 69.1827 16.7124 69.1872 16.7661L69.1813 19.5508L73.3654 19.5494L73.3713 16.7647C73.3829 16.5788 73.3815 16.4068 73.3683 16.2471C73.2324 14.7095 72.5671 13.4156 71.3742 12.368C70.1799 11.3205 68.7603 10.7974 67.1156 10.7974C65.386 10.7974 63.9096 11.3825 62.6889 12.5497C61.4667 13.7184 60.8453 15.1239 60.822 16.7688L60.8102 22.3396C60.7935 22.7776 60.8043 23.2161 60.8423 23.6528C61.006 25.5056 61.6245 27.057 62.699 28.3028Z" fill="#585978"/>
<path d="M71.3464 29.8182H64.4547C65.2485 30.4417 66.0483 31.0639 66.8539 31.6874C68.2192 32.8549 68.9136 34.34 69.0731 36.1433C69.0993 36.4351 69.0906 37.0781 69.095 37.0587L69.1038 41.4361C69.0965 41.9936 68.8845 42.4644 68.4678 42.8484C68.051 43.2338 67.5615 43.4252 66.9971 43.4265C66.4327 43.4265 65.9533 43.2544 65.5571 42.9103C65.1609 42.5661 64.9386 42.1284 64.8918 41.5972C64.8875 41.5449 64.8816 41.4912 64.8771 41.4375L64.9256 38.6513L60.7414 38.6527L60.7355 41.4389C60.7239 41.6246 60.7253 41.7967 60.7386 41.9564C60.8744 43.4954 61.5381 44.788 62.7326 45.8354C63.9269 46.8831 65.3451 47.4062 66.9912 47.4062C68.7208 47.4062 70.1958 46.8225 71.418 45.6538C72.6401 44.4865 73.2629 43.0797 73.2849 41.4347L73.2967 35.8638C73.3127 35.4137 73.3009 34.9746 73.2645 34.5507C73.0992 32.6551 72.4589 31.0777 71.3464 29.8182Z" fill="#585978"/>
<path d="M5 35.8654V22.1057L12.3755 29.0489L5 35.8654Z" fill="#585978"/>
<path d="M125 35.9507V22.1895L117.624 29.0694L125 35.9507Z" fill="#585978"/>
</g>
</g>
</svg>
