<svg width="130" height="60" viewBox="0 0 130 60" fill="none" xmlns="http://www.w3.org/2000/svg">
<mask id="mask0_124_828" style="mask-type:alpha" maskUnits="userSpaceOnUse" x="0" y="0" width="130" height="60">
<rect width="130" height="60" fill="#D9D9D9"/>
</mask>
<g mask="url(#mask0_124_828)">
<path d="M1 42H19.1679V19H1V42ZM5.13152 22.832H9.5945C11.1746 22.832 12.3925 23.174 13.2712 23.8736C14.15 24.5809 14.6047 25.6225 14.6047 27.0139C14.6047 27.7445 14.4506 28.3974 14.1346 28.9649C13.7954 29.5323 13.3252 29.9442 12.67 30.2396C13.4794 30.4184 14.0652 30.8304 14.4506 31.4677C14.836 32.1051 15.0364 32.828 15.0364 33.6986C15.0364 35.152 14.6047 36.2637 13.7723 37.0409C12.9398 37.7871 11.7682 38.1757 10.2111 38.1757H5.13152V22.832Z" fill="#585978"/>
<path d="M37.6436 19H36.5876V42H37.6436V19Z" fill="#585978"/>
<path d="M11.853 33.6674C11.853 32.9368 11.7143 32.3694 11.4676 31.9885C11.1978 31.5765 10.7662 31.3977 10.1803 31.3977H7.88334V35.7584H9.97994C10.612 35.7584 11.0822 35.5795 11.3982 35.2376C11.6911 34.8722 11.853 34.3748 11.853 33.6674Z" fill="#585978"/>
<path d="M10.928 28.7626C11.2441 28.4206 11.3982 27.9465 11.3982 27.2858C11.3982 26.5784 11.2441 26.0576 10.9049 25.7156C10.5657 25.3736 10.0724 25.2182 9.39412 25.2182H7.88334V29.3067H9.52516C10.1341 29.2834 10.6043 29.1046 10.9203 28.7626H10.928Z" fill="#585978"/>
<path d="M110.778 19H109.722V42H110.778V19Z" fill="#585978"/>
<path d="M129 19H127.936V42H129V19Z" fill="#585978"/>
<path d="M92.4402 19H91.3765V42H92.4402V19Z" fill="#585978"/>
<path d="M55.8811 19H54.8251V42H55.8811V19Z" fill="#585978"/>
<path d="M74.1649 19H73.1321V42H74.1649V19Z" fill="#585978"/>
<path fill-rule="evenodd" clip-rule="evenodd" d="M124.267 35.9917V30.4029H119.534V31.973H122.147V35.4474C121.946 35.8361 121.653 36.1548 121.245 36.4035C120.836 36.6524 120.274 36.7689 119.557 36.7689C118.563 36.7689 117.799 36.427 117.214 35.7428C116.651 35.0589 116.358 34.064 116.358 32.7425V28.1721C116.358 26.8973 116.628 25.9179 117.167 25.2417C117.707 24.581 118.431 24.239 119.356 24.239C120.281 24.239 120.96 24.4877 121.43 24.9852C121.885 25.4827 122.155 26.2133 122.178 27.1927H124.182L124.205 27.1227C124.135 25.6925 123.711 24.5965 122.895 23.8037C122.062 23.0109 120.867 22.6222 119.333 22.6222C117.799 22.6222 116.558 23.0964 115.634 24.0758C114.709 25.0552 114.238 26.4387 114.238 28.2109V32.7581C114.238 34.5536 114.732 35.9372 115.703 36.9166C116.674 37.8959 117.977 38.3702 119.557 38.3702C120.775 38.3702 121.792 38.1448 122.555 37.6395C123.342 37.142 123.904 36.5979 124.267 35.9838V35.9917ZM106.083 22.8476H103.987V34.1883L103.917 34.2116L98.1439 22.8476H96.0242V38.1603H98.1439V26.773H98.2133L103.987 38.1603H106.083V22.8399V22.8476ZM86.2889 24.9619V22.8476H79.1512V24.9619H81.6718V36.0538H79.1512V38.1681H86.2889V36.0538H83.7683V24.9541H86.2889V24.9619ZM58.2161 22.8476V38.1603H60.3127V32.2762L60.1354 26.3921H60.1816L63.8353 38.1681H65.2305L68.884 26.3765L68.9534 26.3999L68.7761 32.2839V38.1681H70.8727V22.8399H68.144L64.5829 35.3386H64.5135L60.9524 22.8399H58.2237L58.2161 22.8476ZM44.3184 32.6182L46.23 25.9102H46.2994L48.1956 32.6182H44.3184ZM45.2666 22.8476L40.5801 38.1681H42.746L43.8482 34.3049H48.6967L49.7989 38.1681H51.9418L47.3015 22.8476H45.2666ZM32.7718 35.9838C32.4326 36.5979 31.8699 37.1653 31.0837 37.6395C30.2975 38.1369 29.3031 38.3857 28.0853 38.3857C26.482 38.3857 25.2024 37.8882 24.2312 36.9088C23.2599 35.9527 22.7667 34.5458 22.7667 32.7503V28.2032C22.7667 26.431 23.2369 25.0474 24.1619 24.0913C25.0868 23.1119 26.3046 22.6144 27.8386 22.6144C29.3725 22.6144 30.5904 23.0264 31.3997 23.7959C32.2322 24.5888 32.6638 25.7081 32.7332 27.115L32.71 27.1849H30.706C30.6598 26.2289 30.4132 25.506 29.943 25.0007C29.4881 24.48 28.7944 24.2312 27.8694 24.2312C26.9445 24.2312 26.2275 24.5732 25.6803 25.2572C25.1408 25.9179 24.8941 26.8895 24.8941 28.1876V32.7581C24.8941 34.0562 25.1639 35.0511 25.7497 35.7351C26.3125 36.4425 27.0987 36.7767 28.0929 36.7767C28.8176 36.7767 29.3802 36.6368 29.781 36.388C30.1664 36.1393 30.4824 35.8206 30.6598 35.4319V31.9575H28.0699V30.4107H32.7794V35.976L32.7718 35.9838Z" fill="#585978"/>
</g>
</svg>
