<svg width="130" height="60" viewBox="0 0 130 60" fill="none" xmlns="http://www.w3.org/2000/svg">
<mask id="mask0_124_619" style="mask-type:alpha" maskUnits="userSpaceOnUse" x="0" y="0" width="130" height="60">
<rect width="130" height="60" fill="#D9D9D9"/>
</mask>
<g mask="url(#mask0_124_619)">
<path d="M32.1337 41.4118H38.6135V49.0641C37.6773 49.7398 36.6861 50.2421 35.6306 50.5434C34.5751 50.8539 33.4738 51 32.3265 51C30.8304 51 29.4629 50.7625 28.233 50.2969C27.0031 49.8312 25.9476 49.1829 25.0758 48.361C24.2037 47.5391 23.5246 46.562 23.0474 45.4296C22.57 44.2974 22.3314 43.0646 22.3314 41.7405C22.3314 40.3889 22.5609 39.147 23.0105 38.0148C23.4603 36.8824 24.1029 35.9053 24.9381 35.0834C25.7733 34.2616 26.7921 33.6224 27.976 33.1658C29.16 32.7091 30.4909 32.4809 31.9593 32.4809C32.7211 32.4809 33.4279 32.5448 34.0979 32.6636C34.7678 32.7914 35.3827 32.9557 35.9427 33.1749C36.5025 33.3941 37.0165 33.6498 37.4846 33.942C37.9527 34.2434 38.3658 34.563 38.7328 34.91L37.5121 36.7637C37.3193 37.0558 37.0716 37.2294 36.7687 37.3024C36.4658 37.3664 36.1354 37.2934 35.7866 37.0742C35.4563 36.8733 35.135 36.6997 34.8413 36.5537C34.5475 36.4076 34.2447 36.2888 33.9326 36.1975C33.6205 36.1061 33.2994 36.0422 32.9597 35.9966C32.6201 35.951 32.2347 35.9327 31.8126 35.9327C31.0231 35.9327 30.3073 36.0696 29.6739 36.3527C29.0407 36.6267 28.4992 37.0193 28.0586 37.5307C27.6089 38.033 27.2693 38.6448 27.0306 39.3571C26.7921 40.0693 26.6726 40.8547 26.6726 41.7221C26.6726 42.6811 26.8103 43.5395 27.0765 44.2882C27.3427 45.037 27.7191 45.6671 28.2054 46.1785C28.6918 46.6899 29.2793 47.0825 29.9585 47.3565C30.6376 47.6212 31.3903 47.7583 32.2163 47.7583C32.7211 47.7583 33.1892 47.7126 33.6022 47.6121C34.0153 47.5117 34.419 47.3839 34.8046 47.2103V44.4618H33.0056C32.7394 44.4618 32.5283 44.3886 32.3816 44.2517C32.2347 44.1147 32.1521 43.9321 32.1521 43.7129V41.4118H32.1337ZM57.5114 50.799H54.2348C53.8677 50.799 53.5739 50.717 53.3446 50.5434C53.1151 50.3699 52.9498 50.1599 52.8305 49.886L51.7568 46.7264H44.8272L43.7625 49.8951C43.6707 50.1233 43.5055 50.3334 43.2668 50.5252C43.0283 50.7079 42.7345 50.8083 42.3857 50.8083H39.0815L46.1304 32.6819H50.4626L57.5114 50.799ZM50.8021 43.8772L49.1134 38.9188C48.985 38.6082 48.8563 38.2338 48.7096 37.8047C48.5719 37.3754 48.425 36.9189 48.2873 36.4166C48.1588 36.9189 48.0303 37.3938 47.8836 37.823C47.7459 38.2521 47.6082 38.6266 47.4797 38.9462L45.8183 43.8772H50.8021ZM79.4289 32.6819V50.8083H75.7027V40.3798C75.7027 40.1425 75.7117 39.8776 75.7209 39.5945C75.7301 39.3114 75.7576 39.0284 75.7852 38.7361L70.9483 48.0505C70.8014 48.3427 70.5996 48.5619 70.3425 48.708C70.0855 48.854 69.8011 48.9363 69.4706 48.9363H68.8923C68.5712 48.9363 68.2774 48.8631 68.0204 48.708C67.7635 48.5619 67.5616 48.3427 67.4147 48.0505L62.5778 38.7087C62.6053 39.0101 62.6237 39.3023 62.642 39.5854C62.6604 39.8685 62.6696 40.1332 62.6696 40.3707V50.79H58.9432V32.6819H62.1647C62.3483 32.6819 62.5043 32.6819 62.642 32.691C62.7797 32.7001 62.8991 32.7275 63.0092 32.764C63.1192 32.8005 63.211 32.8736 63.3028 32.9557C63.3946 33.0471 63.4772 33.1658 63.5598 33.3211L68.2683 42.5166C68.4335 42.8363 68.5987 43.1559 68.7456 43.503C68.9015 43.8407 69.0484 44.1877 69.1861 44.5438C69.3238 44.1787 69.4798 43.8226 69.6267 43.4755C69.7826 43.1285 69.9478 42.7997 70.1222 42.4801L74.7939 33.3211C74.8765 33.1658 74.9592 33.038 75.051 32.9557C75.1427 32.8644 75.2345 32.8005 75.3447 32.764C75.4547 32.7184 75.5742 32.7001 75.7117 32.691C75.8494 32.6819 76.0055 32.6819 76.1891 32.6819H79.4289ZM87.2028 35.9144V40.1425H92.93V43.2564H87.2028V47.5756H94.6832V50.8083H82.9534V32.6819H94.6832V35.9144H87.2028ZM107.349 36.3618C107.221 36.5628 107.092 36.7088 106.954 36.8094C106.817 36.9098 106.642 36.9554 106.422 36.9554C106.229 36.9554 106.027 36.8915 105.807 36.7728C105.587 36.6542 105.339 36.5171 105.054 36.3711C104.779 36.2249 104.458 36.088 104.1 35.9692C103.742 35.8505 103.329 35.7865 102.87 35.7865C102.081 35.7865 101.484 35.951 101.099 36.2888C100.713 36.6267 100.52 37.0742 100.52 37.6495C100.52 38.0148 100.64 38.3161 100.869 38.5536C101.099 38.7909 101.411 39.001 101.787 39.1744C102.163 39.348 102.604 39.5124 103.09 39.6493C103.577 39.7955 104.072 39.9598 104.586 40.1332C105.091 40.3159 105.596 40.5168 106.082 40.7633C106.569 41.0008 107 41.3112 107.386 41.6856C107.762 42.0601 108.074 42.5166 108.304 43.0463C108.533 43.5851 108.652 44.2242 108.652 44.9822C108.652 45.8224 108.506 46.6076 108.212 47.3291C107.918 48.0596 107.496 48.6988 106.945 49.2376C106.395 49.7763 105.706 50.2056 104.898 50.5161C104.082 50.8265 103.164 50.9817 102.127 50.9817C101.557 50.9817 100.979 50.9269 100.392 50.8083C99.8045 50.6895 99.2355 50.5252 98.6848 50.3151C98.1341 50.1052 97.6201 49.8495 97.1337 49.5664C96.6472 49.2741 96.2251 48.9545 95.8671 48.5984L97.1153 46.635C97.2163 46.4981 97.3448 46.3793 97.5099 46.2789C97.6752 46.1876 97.8496 46.1328 98.0423 46.1328C98.2902 46.1328 98.5471 46.215 98.7949 46.3703C99.0519 46.5255 99.3365 46.6989 99.6577 46.8907C99.9789 47.0825 100.346 47.256 100.768 47.4113C101.181 47.5666 101.677 47.6487 102.246 47.6487C103.017 47.6487 103.604 47.4843 104.036 47.1464C104.458 46.8086 104.669 46.2789 104.669 45.5484C104.669 45.1284 104.55 44.7814 104.32 44.5164C104.091 44.2517 103.779 44.0325 103.402 43.8591C103.026 43.6855 102.595 43.5302 102.108 43.4024C101.622 43.2655 101.126 43.1193 100.621 42.9642C100.117 42.7997 99.6209 42.6079 99.1346 42.3706C98.6482 42.1331 98.2167 41.8227 97.8404 41.439C97.464 41.0555 97.152 40.5716 96.9226 39.9963C96.6931 39.421 96.5739 38.7087 96.5739 37.8595C96.5739 37.1837 96.7116 36.5171 96.9868 35.8688C97.2622 35.2205 97.666 34.6451 98.1984 34.143C98.7307 33.6407 99.3824 33.2297 100.162 32.9283C100.934 32.6271 101.824 32.4718 102.824 32.4718C103.384 32.4718 103.926 32.5174 104.458 32.5996C104.99 32.6819 105.486 32.8188 105.963 32.9832C106.44 33.1566 106.881 33.3576 107.294 33.5949C107.707 33.8324 108.074 34.0972 108.405 34.3986L107.349 36.3618Z" fill="#585978"/>
<path d="M10.1876 10.1918C11.445 10.1918 12.5189 10.3105 13.4 10.5388C14.2811 10.7671 15.0062 11.0958 15.566 11.525C16.1259 11.9542 16.5297 12.4656 16.7867 13.0683C17.0438 13.6709 17.1723 14.3467 17.1723 15.0955C17.1723 15.5064 17.1172 15.8899 16.9979 16.2735C16.8785 16.6479 16.695 17.004 16.4471 17.3328C16.1994 17.6615 15.8781 17.9629 15.4834 18.2368C15.0888 18.5107 14.6207 18.7482 14.07 18.9491C15.2724 19.2413 16.1535 19.707 16.7317 20.3554C17.31 21.0037 17.5944 21.8439 17.5944 22.8666C17.5944 23.6336 17.4475 24.3551 17.1447 25.0217C16.8418 25.6883 16.4012 26.2636 15.823 26.7568C15.2447 27.2498 14.5289 27.6333 13.6754 27.9164C12.8218 28.1904 11.8581 28.3364 10.7659 28.3364H3.48755V10.1918H10.1876ZM7.70953 13.3422V17.8168H9.91229C10.3804 17.8168 10.8026 17.7802 11.1789 17.7163C11.5552 17.6524 11.8764 17.5337 12.1334 17.3693C12.3996 17.2049 12.5923 16.9766 12.73 16.6844C12.8677 16.3922 12.9319 16.0269 12.9319 15.5886C12.9319 15.1594 12.8769 14.8033 12.7667 14.5111C12.6566 14.228 12.4914 13.9906 12.2711 13.8171C12.0416 13.6435 11.7571 13.5157 11.4175 13.4427C11.0688 13.3696 10.6649 13.3331 10.1876 13.3331H7.70953V13.3422ZM10.6833 25.1495C11.2431 25.1495 11.702 25.0765 12.0508 24.9394C12.4088 24.8025 12.6841 24.6198 12.886 24.3916C13.0879 24.1633 13.2256 23.9167 13.299 23.6336C13.3725 23.3505 13.4092 23.0674 13.4092 22.7753C13.4092 22.4466 13.3633 22.1451 13.2807 21.8804C13.1889 21.6155 13.042 21.3872 12.831 21.2047C12.6199 21.022 12.3353 20.885 11.9866 20.7846C11.6378 20.6841 11.1972 20.6384 10.6649 20.6384H7.70953V25.1495H10.6833ZM81.4287 10.1918V28.3183H77.7024V17.8989C77.7024 17.6615 77.7117 17.3967 77.7207 17.1136C77.7299 16.8305 77.7576 16.5474 77.785 16.2552L72.9481 25.5696C72.8012 25.8617 72.5994 26.0809 72.3424 26.2271C72.0853 26.3731 71.8009 26.4553 71.4704 26.4553H70.8923C70.571 26.4553 70.2773 26.3823 70.0202 26.2271C69.7633 26.0809 69.5614 25.8617 69.4145 25.5696L64.5776 16.2278C64.6051 16.5292 64.6235 16.8214 64.6419 17.1045C64.6602 17.3875 64.6694 17.6524 64.6694 17.8898V28.309H60.9431V10.1918H64.1645C64.3481 10.1918 64.5042 10.1918 64.6419 10.2009C64.7795 10.21 64.8989 10.2374 65.0089 10.2739C65.1192 10.3196 65.211 10.3835 65.3028 10.4657C65.3944 10.557 65.4771 10.6757 65.5597 10.831L70.2497 20.0266C70.4149 20.3462 70.5802 20.6658 70.7269 21.0128C70.8831 21.3507 71.0298 21.6977 71.1675 22.0538C71.3052 21.6886 71.4613 21.3325 71.6081 20.9854C71.7642 20.6384 71.9293 20.3097 72.1037 19.9901L76.7754 10.831C76.858 10.6757 76.9406 10.5479 77.0324 10.4657C77.1242 10.3744 77.216 10.3105 77.326 10.2739C77.4363 10.2283 77.5555 10.21 77.6932 10.2009C77.8309 10.1918 77.9869 10.1918 78.1705 10.1918H81.4287ZM89.2118 28.3183H84.9624V10.1918H89.2118V28.3183ZM108.633 10.1918V28.3183H106.43C106.109 28.3183 105.834 28.2634 105.613 28.163C105.393 28.0626 105.173 27.8799 104.952 27.6242L96.3617 16.8123C96.3984 17.1319 96.4168 17.4515 96.426 17.7528C96.4351 18.0542 96.4443 18.3373 96.4443 18.6021V28.3183H92.718V10.1918H94.939C95.1226 10.1918 95.2787 10.2009 95.398 10.2192C95.5265 10.2374 95.6367 10.2648 95.7375 10.3105C95.8385 10.3561 95.9303 10.4201 96.0221 10.5022C96.1139 10.5844 96.2148 10.694 96.3342 10.8401L104.998 21.7251C104.952 21.3781 104.925 21.0402 104.907 20.7115C104.888 20.3828 104.879 20.0723 104.879 19.7892V10.2009H108.633V10.1918ZM120.913 18.9308H127.393V26.5832C126.457 27.2589 125.466 27.7612 124.41 28.0626C123.355 28.3729 122.253 28.5191 121.106 28.5191C119.61 28.5191 118.242 28.2818 117.013 27.816C115.783 27.3502 114.727 26.7019 113.855 25.8801C112.983 25.0582 112.304 24.0811 111.827 22.9488C111.35 21.8165 111.111 20.5837 111.111 19.2596C111.111 17.9081 111.341 16.6662 111.79 15.5338C112.24 14.4015 112.882 13.4244 113.718 12.6025C114.553 11.7807 115.572 11.1415 116.756 10.6849C117.94 10.2283 119.271 10 120.739 10C121.501 10 122.207 10.0639 122.878 10.1826C123.548 10.3105 124.162 10.4749 124.722 10.694C125.282 10.9132 125.796 11.1689 126.264 11.4611C126.732 11.7624 127.145 12.082 127.513 12.429L126.292 14.2919C126.099 14.5841 125.851 14.7576 125.548 14.8307C125.245 14.8946 124.915 14.8215 124.566 14.6024C124.236 14.4015 123.915 14.228 123.621 14.0819C123.327 13.9358 123.024 13.8171 122.712 13.7257C122.4 13.6344 122.079 13.5705 121.739 13.5248C121.4 13.4792 121.014 13.4609 120.592 13.4609C119.803 13.4609 119.087 13.5979 118.454 13.881C117.82 14.1549 117.279 14.5476 116.838 15.059C116.388 15.5612 116.049 16.173 115.81 16.8853C115.572 17.5976 115.452 18.3829 115.452 19.2504C115.452 20.2093 115.59 21.0676 115.856 21.8165C116.122 22.5652 116.499 23.1953 116.985 23.7066C117.472 24.2182 118.059 24.6108 118.738 24.8848C119.417 25.1495 120.17 25.2865 120.996 25.2865C121.501 25.2865 121.969 25.2409 122.382 25.1404C122.795 25.0399 123.199 24.912 123.584 24.7386V21.9899H121.785C121.519 21.9899 121.308 21.9169 121.161 21.78C121.014 21.6429 120.932 21.4604 120.932 21.2412V18.9308H120.913ZM54.7661 20.1545C54.2522 22.9214 51.8292 24.9213 49.0023 24.9213H48.8738C48.4607 24.912 48.0201 24.9213 46.9188 24.4555C45.8266 23.9897 45.5879 23.7159 44.7894 23.0949C44.3305 22.7388 43.6697 22.0538 43.0181 21.4785C42.3755 22.1726 40.9162 23.7798 40.7877 23.9076C41.3477 24.5103 42.7152 25.6974 43.2658 26.1174L43.1833 26.0444C44.3947 27.0489 45.8725 27.7521 47.497 28.0168C48.0017 28.0991 48.4423 28.1356 48.8646 28.1356C49.3234 28.1356 49.6998 28.1173 50.1036 28.0717C53.7289 27.6333 56.7669 25.0673 57.7582 21.5515L54.7661 20.1545Z" fill="#585978"/>
<path d="M44.5749 15.2584C45.6487 14.0256 47.2273 13.2494 48.9895 13.2494C50.3663 13.2494 51.6605 13.7243 52.6883 14.5553L51.2933 15.5506L57.7272 18.491L57.0664 11.4779L55.4052 12.6467C53.7256 10.9756 51.4402 10.0259 48.9987 10.0259C46.181 10.0259 43.6662 11.3044 41.9958 13.3134V13.3225C41.9316 13.4047 36.8927 19.5321 34.8184 21.5593C34.7084 21.6688 34.5891 21.7692 34.4697 21.8698C34.4514 21.888 34.4238 21.9063 34.4055 21.9245C34.2586 22.0523 34.1117 22.1802 33.965 22.2989C33.9373 22.3263 33.9006 22.3538 33.8732 22.3719C33.7355 22.4816 33.5978 22.5911 33.4693 22.6917C33.4326 22.719 33.3959 22.7464 33.3683 22.7738C33.2765 22.8468 33.1847 22.9107 33.1021 22.9746C33.0654 23.002 33.0287 23.0295 33.0013 23.0569C32.9644 23.0843 32.9277 23.1117 32.891 23.1299C32.7718 23.2121 32.6525 23.2944 32.5423 23.3765C32.5056 23.4039 32.4781 23.4222 32.4413 23.4404L32.1109 23.6596C32.0833 23.6779 32.0558 23.6961 32.0191 23.7144C31.9181 23.7783 31.8263 23.8332 31.7346 23.8878C31.6979 23.9062 31.6612 23.9336 31.6245 23.9518C31.5327 24.0066 31.4501 24.0522 31.3675 24.0979C30.7618 24.4266 30.2569 24.6367 29.8348 24.7645C29.4125 24.8924 29.0822 24.9563 28.4121 24.9563C25.1631 24.801 22.5931 22.0067 22.8409 18.6919C23.0521 15.8246 25.4108 13.5051 28.2929 13.3134C30.1377 13.1946 31.7622 13.98 32.9736 15.158C33.1756 15.3497 34.8184 17.1121 35.1672 17.5413C35.7913 16.8747 37.2874 15.1214 37.3425 15.0575C37.0488 14.674 35.8098 13.3773 35.7272 13.286C33.965 11.3226 31.4225 10.0442 28.5681 10.0807C23.823 10.1446 19.858 13.916 19.601 18.628C19.3257 23.6505 23.1806 27.851 28.0816 28.1797C28.256 28.1889 29.0363 28.2164 29.4492 28.1706C29.8715 28.125 30.2477 28.0337 30.569 27.9607C31.0829 27.8419 31.6061 27.5679 31.6153 27.5679C31.6429 27.5588 31.6704 27.5405 31.6979 27.5314C31.7989 27.4858 31.9089 27.4401 32.0191 27.3852C32.065 27.3671 32.1202 27.3397 32.1661 27.3122C32.2761 27.2574 32.3954 27.2027 32.5148 27.1388C32.5607 27.1205 32.5974 27.0931 32.6433 27.0749C32.9644 26.9013 33.3133 26.7095 33.6621 26.4904C33.708 26.463 33.7629 26.4264 33.8088 26.399C33.9373 26.3169 34.0658 26.2347 34.2035 26.1434C34.2586 26.1069 34.3229 26.0613 34.3871 26.0248C34.5156 25.9334 34.6533 25.8421 34.791 25.7417C34.8461 25.6959 34.901 25.6594 34.9653 25.6138C35.103 25.5132 35.2407 25.4037 35.3784 25.3033C35.4151 25.2759 35.4518 25.2485 35.4793 25.2211C35.5069 25.2029 35.5252 25.1846 35.5528 25.1664C35.7546 25.0111 35.9567 24.8375 36.1677 24.6641C36.2136 24.6276 36.2686 24.5819 36.3145 24.5363C36.4706 24.3992 36.6358 24.2623 36.8009 24.1161C36.8745 24.0522 36.9386 23.9883 37.0121 23.9336C37.0396 23.9062 37.0763 23.8787 37.1038 23.8513C37.2232 23.7418 37.3425 23.6322 37.471 23.5134C37.5443 23.4495 39.3801 21.6597 40.6192 20.1621C41.8581 18.6645 43.1982 16.8747 44.5749 15.2584Z" fill="#585978"/>
</g>
</svg>
