<svg width="130" height="60" viewBox="0 0 130 60" fill="none" xmlns="http://www.w3.org/2000/svg">
<mask id="mask0_124_634" style="mask-type:alpha" maskUnits="userSpaceOnUse" x="0" y="0" width="130" height="60">
<rect width="130" height="60" fill="#D9D9D9"/>
</mask>
<g mask="url(#mask0_124_634)">
<path d="M50.9277 18.2961C53.7587 18.2961 55.9505 18.9353 57.4117 20.3052C58.9642 21.675 59.6948 23.6842 59.6948 26.3325V36.7434H54.7633V34.4603C53.7587 36.1955 51.9323 37.0174 49.1926 37.0174C47.8227 37.0174 46.5442 36.7434 45.5396 36.2868C44.5351 35.8302 43.7132 35.1909 43.1652 34.369C42.6173 33.5471 42.3433 32.5425 42.3433 31.538C42.3433 29.8028 42.9826 28.5243 44.2611 27.5197C45.5396 26.5152 47.5488 26.0586 50.1971 26.0586H54.398C54.398 24.8714 54.0327 24.0495 53.3021 23.4102C52.5715 22.7709 51.567 22.497 50.1058 22.497C49.1012 22.497 48.188 22.6796 47.1835 22.9536C46.2702 23.2275 45.4483 23.6842 44.8091 24.1408L42.8913 20.4878C43.8958 19.7573 45.083 19.2093 46.4529 18.844C48.0054 18.4787 49.4665 18.2961 50.9277 18.2961ZM50.5624 33.4558C51.4757 33.4558 52.2976 33.2731 52.9368 32.8165C53.6674 32.3599 54.124 31.7206 54.398 30.99V29.1636H50.7451C48.5533 29.1636 47.4574 29.8941 47.4574 31.264C47.4574 31.9033 47.7314 32.4512 48.2793 32.9078C48.9186 33.2731 49.6492 33.4558 50.5624 33.4558Z" fill="#585978"/>
<path d="M64.5348 11.6295H69.8315V36.7434H64.5348V11.6295Z" fill="#585978"/>
<path d="M92.5711 27.7024C92.5711 27.7937 92.5711 28.2503 92.4798 29.1636H78.6899C78.9639 30.2595 79.5118 31.1727 80.4251 31.812C81.3383 32.4512 82.5255 32.8165 83.8954 32.8165C84.8086 32.8165 85.7218 32.7252 86.4524 32.4512C87.183 32.1772 87.9136 31.7206 88.5528 31.0814L91.3839 34.095C89.6487 36.0128 87.183 37.0174 83.8954 37.0174C81.7949 37.0174 80.0598 36.6521 78.416 35.8302C76.8635 35.0083 75.5849 33.9124 74.763 32.4512C73.9411 30.99 73.4845 29.4375 73.4845 27.6111C73.4845 25.7846 73.9411 24.2321 74.763 22.7709C75.5849 21.3098 76.7721 20.2139 78.2333 19.392C79.6945 18.5701 81.4296 18.2048 83.2561 18.2048C85.0826 18.2048 86.6351 18.5701 88.0962 19.392C89.5574 20.1226 90.6533 21.2184 91.4752 22.6796C92.2058 24.1408 92.5711 25.8759 92.5711 27.7024ZM83.1648 22.3143C81.9776 22.3143 80.973 22.6796 80.1511 23.3189C79.3292 23.9581 78.8726 24.8714 78.6899 26.0586H87.6396C87.457 24.8714 87.0004 23.9581 86.1784 23.3189C85.2652 22.5883 84.352 22.3143 83.1648 22.3143Z" fill="#585978"/>
<path d="M107.913 35.9215C107.365 36.2868 106.726 36.5607 105.996 36.8347C105.265 37.0174 104.443 37.1087 103.621 37.1087C101.429 37.1087 99.7857 36.5607 98.5985 35.4649C97.4113 34.369 96.8633 32.7252 96.8633 30.6247V23.1362H94.0323V19.118H96.8633V14.5518H102.16V19.0267H106.726V23.0449H102.16V30.4421C102.16 31.1727 102.343 31.8119 102.708 32.2685C103.073 32.6338 103.713 32.9078 104.443 32.9078C105.265 32.9078 105.996 32.7252 106.544 32.2685L107.913 35.9215Z" fill="#585978"/>
<path d="M118.233 18.2961C121.064 18.2961 123.256 18.9353 124.717 20.3052C126.269 21.675 127 23.6842 127 26.3325V36.7434H122.069V34.4603C121.064 36.1955 119.238 37.0174 116.498 37.0174C115.128 37.0174 113.849 36.7434 112.845 36.2868C111.84 35.8302 111.018 35.1909 110.47 34.369C109.923 33.5471 109.649 32.5425 109.649 31.538C109.649 29.8028 110.288 28.5243 111.566 27.5197C112.845 26.5152 114.854 26.0586 117.502 26.0586H121.703C121.703 24.8714 121.338 24.0495 120.607 23.4102C119.877 22.7709 118.872 22.497 117.411 22.497C116.406 22.497 115.493 22.6796 114.489 22.9536C113.575 23.2275 112.754 23.6842 112.114 24.1408L110.196 20.4878C111.201 19.7573 112.388 19.2093 113.758 18.844C115.311 18.4787 116.772 18.2961 118.233 18.2961ZM117.776 33.4558C118.69 33.4558 119.511 33.2731 120.151 32.8165C120.881 32.3599 121.338 31.7206 121.612 30.99V29.1636H117.959C115.767 29.1636 114.671 29.8941 114.671 31.264C114.671 31.9033 114.945 32.4512 115.493 32.9078C116.133 33.2731 116.863 33.4558 117.776 33.4558Z" fill="#585978"/>
<path d="M44.6264 42.5881V48.2502H44.0784V43.684L41.7954 47.5196H41.5214L39.2383 43.684V48.2502H38.6904V42.5881H39.147L41.6127 46.789L44.0784 42.5881H44.6264Z" fill="#585978"/>
<path d="M47.914 43.958C48.4619 43.958 48.9185 44.0493 49.1925 44.4146C49.4665 44.6886 49.6491 45.1452 49.6491 45.6932V48.3415H49.1012V47.7023C49.0099 47.8849 48.7359 48.0676 48.5533 48.2502C48.2793 48.3415 48.0053 48.4329 47.64 48.4329C47.1834 48.4329 46.8181 48.3415 46.5441 48.0676C46.2702 47.8849 46.0875 47.5196 46.0875 47.1543C46.0875 46.789 46.1788 46.5151 46.4528 46.2411C46.7268 46.0584 47.1834 45.8758 47.7313 45.8758H49.1012V45.6018C49.1012 45.2365 49.0099 44.9626 48.8272 44.7799C48.6446 44.5973 48.2793 44.5059 47.914 44.5059C47.64 44.5059 47.366 44.5973 47.0921 44.5973C46.8181 44.6886 46.6355 44.7799 46.4528 44.9626L46.1788 44.5059C46.3615 44.3233 46.6355 44.1407 47.0008 44.0493C47.2747 44.0493 47.5487 43.958 47.914 43.958ZM47.7313 47.8849C48.0966 47.8849 48.3706 47.7936 48.5533 47.7023C48.8272 47.5196 48.9185 47.337 49.1012 47.063V46.3324H47.7313C47.0008 46.3324 46.6355 46.6064 46.6355 47.063C46.6355 47.337 46.7268 47.5196 46.9094 47.7023C47.0921 47.7936 47.3661 47.8849 47.7313 47.8849Z" fill="#585978"/>
<path d="M52.8453 46.1497L51.8408 47.063V48.2502H51.2928V42.3141H51.8408V46.4237L54.3978 44.0493H55.1284L53.302 45.7844L55.3111 48.3415H54.5805L52.8453 46.1497Z" fill="#585978"/>
<path d="M56.0416 44.0493H56.5896V48.3415H56.0416V44.0493ZM56.3156 43.136C56.2243 43.136 56.133 43.136 56.0416 43.0447C55.9503 42.9534 55.9503 42.8621 55.9503 42.7708C55.9503 42.6794 55.9503 42.5881 56.0416 42.4968C56.133 42.4055 56.2243 42.4055 56.3156 42.4055C56.4069 42.4055 56.4983 42.4055 56.5896 42.4968C56.6809 42.5881 56.6809 42.6794 56.6809 42.7708C56.6809 42.8621 56.6809 42.9534 56.5896 43.0447C56.5896 43.0447 56.4983 43.136 56.3156 43.136Z" fill="#585978"/>
<path d="M60.4253 43.958C60.9733 43.958 61.4299 44.1406 61.7039 44.4146C62.0691 44.6885 62.1605 45.1452 62.1605 45.7844V48.2502H61.6125V45.7844C61.6125 45.3278 61.5212 44.9625 61.2472 44.7799C61.0646 44.5059 60.6993 44.4146 60.334 44.4146C59.8774 44.4146 59.5121 44.5059 59.2381 44.7799C58.9642 45.0538 58.8728 45.4191 58.8728 45.8758V48.1588H58.3249V43.8666H58.8728V44.6885C59.0555 44.4146 59.2381 44.2319 59.5121 44.0493C59.6947 44.0493 60.06 43.958 60.4253 43.958Z" fill="#585978"/>
<path d="M67.7311 44.0493V47.7936C67.7311 48.5242 67.5485 49.0721 67.1832 49.4374C66.8179 49.8027 66.27 49.9853 65.5394 49.9853C65.1741 49.9853 64.7175 49.894 64.4435 49.8027C64.0782 49.7114 63.8042 49.5287 63.6216 49.3461L63.8956 48.8895C64.0782 49.0721 64.3522 49.2547 64.6262 49.3461C64.9001 49.4374 65.2654 49.5287 65.5394 49.5287C66.0873 49.5287 66.4526 49.4374 66.7266 49.1634C67.0006 48.8895 67.0919 48.5242 67.0919 47.9762V47.4283C66.9092 47.7022 66.6353 47.8849 66.3613 48.0675C66.0873 48.1589 65.722 48.2502 65.3567 48.2502C64.9914 48.2502 64.6262 48.1589 64.2609 47.9762C63.8956 47.7936 63.7129 47.5196 63.439 47.2456C63.2563 46.8803 63.165 46.6064 63.165 46.1498C63.165 45.6931 63.2563 45.4192 63.439 45.0539C63.6216 44.7799 63.8956 44.5059 64.2609 44.3233C64.6262 44.1406 64.9914 44.0493 65.3567 44.0493C65.722 44.0493 66.0873 44.1406 66.3613 44.232C66.6353 44.3233 66.9092 44.5973 67.0919 44.8712V44.0493H67.7311ZM65.5394 47.6109C65.8134 47.6109 66.1786 47.5196 66.3613 47.4283C66.5439 47.337 66.8179 47.063 66.9092 46.8803C67.0006 46.6064 67.0919 46.3324 67.0919 46.0584C67.0919 45.7845 67.0006 45.5105 66.9092 45.2365C66.8179 44.9625 66.5439 44.7799 66.3613 44.6886C66.0873 44.5973 65.8134 44.5059 65.5394 44.5059C65.2654 44.5059 64.9001 44.5973 64.7175 44.6886C64.4435 44.7799 64.2609 44.9625 64.1695 45.2365C64.0782 45.5105 63.9869 45.7845 63.9869 46.0584C63.9869 46.3324 64.0782 46.6064 64.1695 46.8803C64.2609 47.1543 64.5348 47.337 64.7175 47.4283C64.9914 47.6109 65.2654 47.6109 65.5394 47.6109Z" fill="#585978"/>
<path d="M75.2196 45.4192C75.5849 45.5105 75.8589 45.6931 76.0416 45.8758C76.2242 46.1497 76.3155 46.4237 76.3155 46.789C76.3155 47.2456 76.1329 47.6109 75.7676 47.8849C75.4023 48.1589 74.8544 48.2502 74.2151 48.2502H71.5667V42.5881H74.1238C74.763 42.5881 75.2196 42.6795 75.5849 42.9534C75.9502 43.2274 76.1329 43.5927 76.1329 44.0493C76.1329 44.3233 76.0416 44.5972 75.8589 44.8712C75.7676 45.1452 75.4936 45.2365 75.2196 45.4192ZM72.2973 43.1361V45.2365H74.1238C74.5804 45.2365 74.9457 45.1452 75.2196 44.9625C75.4936 44.7799 75.5849 44.5059 75.5849 44.232C75.5849 43.958 75.4936 43.5927 75.2196 43.5014C74.9457 43.3187 74.5804 43.2274 74.1238 43.2274L72.2973 43.1361ZM74.2151 47.7936C74.763 47.7936 75.1283 47.7022 75.4023 47.5196C75.6763 47.3369 75.7676 47.063 75.7676 46.6977C75.7676 45.9671 75.2196 45.6018 74.2151 45.6018H72.2973V47.7936H74.2151Z" fill="#585978"/>
<path d="M81.4297 46.3324H77.8681C77.8681 46.789 78.0507 47.1543 78.416 47.4283C78.69 47.7022 79.1466 47.7936 79.6032 47.7936C79.8772 47.7936 80.1512 47.7023 80.3338 47.7023C80.5164 47.6109 80.7904 47.4283 80.8817 47.2456L81.247 47.6109C81.0644 47.7936 80.7904 47.9762 80.5164 48.1589C80.2425 48.2502 79.8772 48.3415 79.6032 48.3415C79.1466 48.3415 78.7813 48.2502 78.416 48.0675C78.0507 47.8849 77.7767 47.6109 77.5941 47.2456C77.4115 46.8803 77.3201 46.515 77.3201 46.1498C77.3201 45.7845 77.4115 45.3278 77.5941 45.0539C77.7767 44.6886 78.0507 44.4146 78.3247 44.3233C78.69 44.1406 78.964 44.0493 79.4206 44.0493C79.8772 44.0493 80.1512 44.1406 80.5164 44.3233C80.7904 44.5059 81.0644 44.7799 81.247 45.0539C81.4297 45.4192 81.521 45.7845 81.521 46.1498L81.4297 46.3324ZM79.3292 44.5059C78.964 44.5059 78.5987 44.5973 78.3247 44.8712C78.0507 45.1452 77.8681 45.5105 77.8681 45.8758H80.8817C80.8817 45.4192 80.6991 45.1452 80.4251 44.8712C80.1512 44.5973 79.7859 44.5059 79.3292 44.5059Z" fill="#585978"/>
<path d="M84.9 48.0675C84.8087 48.1588 84.626 48.2502 84.5347 48.2502C84.3521 48.3415 84.1694 48.3415 84.0781 48.3415C83.7128 48.3415 83.3475 48.2502 83.1648 47.9762C82.9822 47.7935 82.7996 47.4282 82.7996 47.063V44.5059H82.069V44.0493H82.7996V43.136H83.2562V44.0493H84.5347V44.5059H83.2562V47.063C83.2562 47.3369 83.3475 47.5196 83.4388 47.6109C83.5301 47.7022 83.7128 47.7935 83.9868 47.7935C84.0781 47.7935 84.2607 47.7935 84.3521 47.7022C84.4434 47.7022 84.5347 47.6109 84.626 47.5196L84.9 48.0675Z" fill="#585978"/>
<path d="M88.0963 48.0675C88.005 48.1588 87.8223 48.2502 87.731 48.2502C87.5483 48.3415 87.3657 48.3415 87.2744 48.3415C86.9091 48.3415 86.5438 48.2502 86.3611 47.9762C86.1785 47.7935 85.9958 47.4282 85.9958 47.063V44.5059H85.2653V44.0493H85.9958V43.136H86.5438V44.0493H87.8223V44.5059H86.5438V47.063C86.5438 47.3369 86.6351 47.5196 86.7264 47.6109C86.8178 47.7022 87.0004 47.7935 87.2744 47.7935C87.3657 47.7935 87.5483 47.7935 87.6397 47.7022C87.731 47.7022 87.8223 47.6109 87.9136 47.5196L88.0963 48.0675Z" fill="#585978"/>
<path d="M92.7537 46.3324H89.1921C89.1921 46.789 89.3748 47.1543 89.74 47.4283C90.014 47.7022 90.4706 47.7936 90.9272 47.7936C91.2012 47.7936 91.4752 47.7023 91.6578 47.7023C91.8405 47.6109 92.1145 47.4283 92.2058 47.2456L92.5711 47.6109C92.3884 47.7936 92.1145 47.9762 91.8405 48.1589C91.5665 48.3415 91.2012 48.3415 90.9272 48.3415C90.4706 48.3415 90.1053 48.2502 89.74 48.0675C89.3748 47.8849 89.1008 47.6109 88.9181 47.2456C88.7355 46.8803 88.6442 46.515 88.6442 46.1498C88.6442 45.7845 88.7355 45.3278 88.9181 45.0539C89.1008 44.6886 89.3748 44.4146 89.6487 44.3233C90.014 44.1406 90.288 44.0493 90.7446 44.0493C91.2012 44.0493 91.4752 44.1406 91.8405 44.3233C92.1145 44.5059 92.3884 44.7799 92.5711 45.0539C92.7537 45.4192 92.845 45.7845 92.845 46.1498L92.7537 46.3324ZM90.6533 44.5059C90.288 44.5059 89.9227 44.5973 89.6487 44.8712C89.3748 45.1452 89.1921 45.5105 89.1921 45.8758H92.2058C92.2058 45.4192 92.0231 45.1452 91.7492 44.8712C91.3839 44.5973 91.0186 44.5059 90.6533 44.5059Z" fill="#585978"/>
<path d="M94.4889 44.8712C94.5802 44.5973 94.8542 44.3233 95.1282 44.232C95.4021 44.1406 95.7674 44.0493 96.1327 44.0493V44.5973H96.0414C95.5848 44.5973 95.2195 44.6886 94.9455 44.9625C94.6716 45.2365 94.5802 45.6018 94.5802 46.1498V48.3415H94.0323V44.0493H94.5802L94.4889 44.8712Z" fill="#585978"/>
<path d="M103.439 45.5105H103.986V47.7022C103.713 47.9762 103.439 48.0675 103.073 48.2502C102.708 48.3415 102.343 48.4328 101.886 48.4328C101.338 48.4328 100.79 48.3415 100.334 48.0675C99.8769 47.7935 99.5116 47.4282 99.2377 47.0629C98.9637 46.6063 98.8724 46.1497 98.8724 45.6018C98.8724 45.0538 98.9637 44.5972 99.2377 44.1406C99.5116 43.684 99.8769 43.3187 100.334 43.136C100.79 42.8621 101.338 42.7708 101.886 42.7708C102.343 42.7708 102.708 42.8621 103.073 42.9534C103.439 43.0447 103.713 43.3187 103.986 43.5927L103.621 43.958C103.165 43.5013 102.617 43.3187 101.886 43.3187C101.429 43.3187 100.973 43.41 100.608 43.5927C100.242 43.7753 99.9682 44.0493 99.6943 44.4146C99.5116 44.7799 99.329 45.1452 99.329 45.6018C99.329 46.0584 99.4203 46.4237 99.6943 46.789C99.8769 47.1543 100.242 47.4282 100.608 47.6109C100.973 47.7935 101.429 47.8849 101.886 47.8849C102.434 47.8849 102.982 47.7022 103.347 47.4282V45.5105H103.439Z" fill="#585978"/>
<path d="M107.183 43.958C107.731 43.958 108.187 44.0493 108.461 44.4146C108.735 44.6886 108.918 45.1452 108.918 45.6932V48.3415H108.37V47.7023C108.279 47.8849 108.005 48.0676 107.822 48.2502C107.548 48.3415 107.274 48.4329 106.909 48.4329C106.452 48.4329 106.087 48.3415 105.813 48.0676C105.539 47.8849 105.356 47.5196 105.356 47.1543C105.356 46.789 105.448 46.5151 105.722 46.2411C105.996 46.0584 106.452 45.8758 107 45.8758H108.37V45.6018C108.37 45.2365 108.279 44.9626 108.096 44.7799C107.913 44.5973 107.548 44.5059 107.183 44.5059C106.909 44.5059 106.635 44.5973 106.361 44.5973C106.087 44.5973 105.904 44.7799 105.722 44.9626L105.448 44.5059C105.63 44.3233 105.904 44.1407 106.27 44.0493C106.452 44.0493 106.818 43.958 107.183 43.958ZM106.909 47.8849C107.274 47.8849 107.548 47.7936 107.731 47.7023C108.005 47.5196 108.096 47.337 108.279 47.063V46.3324H106.909C106.178 46.3324 105.813 46.6064 105.813 47.063C105.813 47.337 105.904 47.5196 106.087 47.7023C106.361 47.7936 106.635 47.8849 106.909 47.8849Z" fill="#585978"/>
<path d="M115.767 43.958C116.315 43.958 116.772 44.1406 117.046 44.4146C117.32 44.6886 117.502 45.1452 117.502 45.7844V48.2502H116.954V45.7844C116.954 45.3278 116.863 44.9625 116.589 44.7799C116.406 44.5059 116.041 44.4146 115.676 44.4146C115.219 44.4146 114.854 44.5059 114.58 44.7799C114.306 45.0539 114.215 45.4192 114.215 45.8758V48.1589H113.667V45.6931C113.667 45.2365 113.575 44.8712 113.301 44.6886C113.119 44.4146 112.754 44.3233 112.388 44.3233C111.932 44.3233 111.566 44.4146 111.292 44.6886C111.018 44.9625 110.927 45.3278 110.927 45.7844V48.0675H110.379V43.7753H110.927V44.5972C111.11 44.3233 111.292 44.1406 111.566 43.958C111.84 43.8667 112.114 43.7753 112.48 43.7753C112.845 43.7753 113.119 43.8667 113.393 43.958C113.667 44.1406 113.849 44.3233 114.032 44.5972C114.215 44.3233 114.397 44.1406 114.671 43.958C115.128 44.0493 115.402 43.958 115.767 43.958Z" fill="#585978"/>
<path d="M122.89 46.3324H119.329C119.329 46.789 119.511 47.1543 119.877 47.4283C120.151 47.7022 120.607 47.7936 121.064 47.7936C121.338 47.7936 121.612 47.7023 121.794 47.7023C121.977 47.6109 122.251 47.4283 122.342 47.2456L122.708 47.6109C122.525 47.7936 122.251 47.9762 121.977 48.1589C121.703 48.3415 121.338 48.3415 121.064 48.3415C120.607 48.3415 120.242 48.2502 119.877 48.0675C119.511 47.8849 119.237 47.6109 119.055 47.2456C118.872 46.8803 118.781 46.515 118.781 46.1498C118.781 45.7845 118.872 45.3278 119.055 45.0539C119.237 44.7799 119.511 44.4146 119.785 44.3233C120.151 44.1406 120.425 44.0493 120.881 44.0493C121.247 44.0493 121.612 44.1406 121.977 44.3233C122.251 44.5059 122.525 44.7799 122.708 45.0539C122.89 45.4192 122.982 45.7845 122.982 46.1498L122.89 46.3324ZM120.79 44.5059C120.425 44.5059 120.059 44.5973 119.785 44.8712C119.511 45.1452 119.329 45.5105 119.329 45.8758H122.342C122.342 45.4192 122.16 45.1452 121.886 44.8712C121.521 44.5973 121.247 44.5059 120.79 44.5059Z" fill="#585978"/>
<path d="M125.174 48.3415C124.808 48.3415 124.534 48.2502 124.169 48.1589C123.895 48.0676 123.621 47.8849 123.438 47.7936L123.712 47.337C123.895 47.4283 124.078 47.6109 124.352 47.7023C124.626 47.7936 124.9 47.7936 125.174 47.7936C125.539 47.7936 125.813 47.7023 125.995 47.6109C126.178 47.5196 126.269 47.337 126.269 47.063C126.269 46.8804 126.178 46.789 126.087 46.6977C125.995 46.6064 125.813 46.5151 125.721 46.5151C125.539 46.4237 125.356 46.4237 125.082 46.4237C124.717 46.3324 124.443 46.3324 124.26 46.2411C124.078 46.1498 123.895 46.0584 123.712 45.8758C123.53 45.6932 123.53 45.5105 123.53 45.2365C123.53 44.8712 123.712 44.5973 123.986 44.3233C124.26 44.0493 124.717 43.958 125.265 43.958C125.539 43.958 125.813 43.958 126.087 44.0493C126.361 44.1407 126.635 44.232 126.726 44.3233L126.452 44.7799C126.087 44.5059 125.63 44.4146 125.174 44.4146C124.808 44.4146 124.534 44.5059 124.352 44.5973C124.169 44.6886 124.078 44.8712 124.078 45.1452C124.078 45.3279 124.169 45.4192 124.26 45.5105C124.352 45.6018 124.534 45.6932 124.626 45.6932C124.808 45.7845 124.991 45.7845 125.265 45.7845C125.63 45.8758 125.904 45.8758 126.087 45.9671C126.269 46.0584 126.452 46.1498 126.635 46.3324C126.817 46.5151 126.817 46.6977 126.817 46.9717C126.817 47.337 126.635 47.6109 126.361 47.8849C126.178 48.2502 125.721 48.3415 125.174 48.3415Z" fill="#585978"/>
<path fill-rule="evenodd" clip-rule="evenodd" d="M40.8821 25.054C44.535 17.0176 37.7771 8.70716 29.01 10.1683L12.0239 12.9994C3.89611 14.3692 0.24318 23.9582 5.35729 30.6248L15.2202 43.41C20.3343 49.9853 30.2886 49.1634 33.6675 41.6749L40.8821 25.054ZM19.6038 35.8302C21.1563 36.6521 22.8001 37.0174 24.7179 37.0174C26.2704 37.0174 27.7316 36.7434 29.1014 36.1042C30.3799 35.5562 31.4758 34.7343 32.3891 33.6384L29.6494 31.0814C28.3708 32.5425 26.8183 33.2731 24.9919 33.2731C23.8047 33.2731 22.8001 32.9992 21.8869 32.5425C20.9736 32.0859 20.3344 31.3553 19.7864 30.4421C19.3298 29.5289 18.9645 28.707 18.9645 27.5198C18.9645 26.3326 19.2385 25.328 19.6951 24.4148C20.2431 23.5015 20.8823 22.7709 21.7955 22.3143C22.7088 21.8577 23.8047 21.5837 24.9005 21.5837C26.727 21.5837 28.2795 22.3143 29.558 23.7755L32.2977 21.2184C31.3845 20.1226 30.2886 19.3007 29.0101 18.7527C27.7316 18.2048 26.2704 17.9308 24.7179 17.9308C22.8914 17.9308 21.1563 18.3874 19.6038 19.2093C18.1426 20.0312 16.9554 21.1271 16.0422 22.5883C15.2203 24.0495 14.7637 25.6933 14.7637 27.5198C14.7637 29.3462 15.2203 30.99 16.0422 32.4512C16.8641 33.8211 18.0513 35.0083 19.6038 35.8302Z" fill="#585978"/>
</g>
</svg>
