<svg width="130" height="60" viewBox="0 0 130 60" fill="none" xmlns="http://www.w3.org/2000/svg">
<mask id="mask0_124_33" style="mask-type:alpha" maskUnits="userSpaceOnUse" x="0" y="0" width="130" height="60">
<rect width="130" height="60" fill="#D9D9D9"/>
</mask>
<g mask="url(#mask0_124_33)">
<path d="M22.8522 21.3812H36.3178V24.378H26.3543V28.7524H32.9898V31.7491H26.3543V36.6364H36.625V39.6332H22.8522V21.3812Z" fill="#585978"/>
<path d="M36.3177 26.6606H39.9017L43.0352 35.7011L45.9433 26.6606H49.4147L44.6019 39.633H41.3865L36.3177 26.6606Z" fill="#585978"/>
<path d="M49.5274 33.177C49.5274 29.2149 52.3229 26.4193 56.3268 26.4193C60.2999 26.4193 63.1056 29.2249 63.1056 33.177C63.1056 37.0788 60.2487 39.8844 56.2448 39.8844C52.2717 39.8844 49.5274 37.1291 49.5274 33.177ZM59.5831 33.2574V33.1468C59.5831 30.673 58.3543 29.1847 56.337 29.1847C54.289 29.1847 53.0602 30.673 53.0602 33.1468V33.2574C53.0602 35.681 54.2583 37.1089 56.2756 37.1089C58.3236 37.1089 59.5831 35.6709 59.5831 33.2574Z" fill="#585978"/>
<path d="M65.3481 21.1297H68.8502V39.633H65.3481V21.1297Z" fill="#585978"/>
<path d="M71.5024 34.434V26.6606H74.9738V34.2429C74.9738 35.9726 75.8135 36.9883 77.3802 36.9883C79.2029 36.9883 79.9607 35.4798 79.9607 33.2474V26.6606H83.432V39.633H79.9607V37.7928C79.2644 39.1403 78.056 39.8844 76.346 39.8844C73.3559 39.8844 71.5024 37.7928 71.5024 34.434Z" fill="#585978"/>
<path d="M87.2617 36.1939V29.406H85.3878V26.6606H87.2617V24.2069L90.6512 22.3365V26.6506H93.2521V29.3959H90.6205V35.852C90.6205 36.4855 90.9277 36.757 91.5728 36.7872H93.1088V39.623H90.4259C87.8761 39.4923 87.3232 38.3459 87.2617 36.1939Z" fill="#585978"/>
<path d="M95.4948 21.4315H99.1095V24.76H95.4948V21.4315ZM95.546 26.6607H99.048V39.6331H95.546V26.6607Z" fill="#585978"/>
<path d="M101.291 33.177C101.291 29.2149 104.086 26.4193 108.09 26.4193C112.063 26.4193 114.869 29.2249 114.869 33.177C114.869 37.0788 112.012 39.8844 108.008 39.8844C104.035 39.8844 101.291 37.1291 101.291 33.177ZM111.336 33.2574V33.1468C111.336 30.673 110.107 29.1847 108.09 29.1847C106.042 29.1847 104.813 30.673 104.813 33.1468V33.2574C104.813 35.681 106.011 37.1089 108.028 37.1089C110.076 37.1089 111.336 35.6709 111.336 33.2574Z" fill="#585978"/>
<path d="M117.081 26.6606H120.552V28.7724C121.248 27.264 122.539 26.379 124.412 26.379C127.3 26.379 129 28.2796 129 31.8496V39.633H125.529V32.0507C125.529 30.2406 124.832 29.3054 123.204 29.3054C121.555 29.3054 120.542 30.6227 120.542 33.0463V39.6431H117.07L117.081 26.6606Z" fill="#585978"/>
<path d="M14.6806 23.0605C11.5165 18.9677 5.77184 17.8112 1 20.3152C2.86368 24.4282 4.25632 29.2652 13.4416 29.5468C14.5168 29.5769 15.7046 29.5468 17.0051 29.4462C16.8208 26.8618 15.9606 24.7198 14.6806 23.0605Z" fill="#585978"/>
<path d="M12.991 31.4776C7.46144 31.7492 4.87072 33.7202 3.2528 36.1638C2.30048 37.6018 1.68608 39.1907 1 40.6891C7.69696 44.1987 16.3498 40.498 17.0051 31.548C15.5203 31.4374 14.1789 31.4173 12.991 31.4776Z" fill="#585978"/>
</g>
</svg>
