<svg width="130" height="60" viewBox="0 0 130 60" fill="none" xmlns="http://www.w3.org/2000/svg">
<mask id="mask0_124_802" style="mask-type:alpha" maskUnits="userSpaceOnUse" x="0" y="0" width="130" height="60">
<rect width="130" height="60" fill="#D9D9D9"/>
</mask>
<g mask="url(#mask0_124_802)">
<path d="M1.3002 29.3027V24.6517L22.7412 19L20.4599 24.3698L1.3002 29.3027Z" fill="#585978"/>
<path d="M1.3002 30.1907V34.7008L16.989 32.5021L19.0323 27.6961L1.3002 30.1907Z" fill="#585978"/>
<path d="M1.3002 35.5604V40H13.7841L15.6735 35.5604H1.3002Z" fill="#585978"/>
<path d="M36.2609 31.9667H32.0624V34.3626H40.1097V37.9144H27.9617V22.8338H40.0958L40.0817 22.862L38.5982 26.3855H32.0624V28.6687H37.6325L36.2609 31.9667Z" fill="#585978"/>
<path fill-rule="evenodd" clip-rule="evenodd" d="M79.8283 22.8336H73.4043V37.9142H77.603V33.6013H79.6742C81.3424 33.6875 82.9895 33.1896 84.3349 32.1919C84.925 31.7146 85.394 31.1026 85.7033 30.4067C86.012 29.7107 86.1521 28.9506 86.1122 28.1893C86.15 27.4481 86.0177 26.7082 85.7264 26.0264C85.4353 25.3447 84.9929 24.7393 84.4328 24.2571C83.119 23.2375 81.4831 22.7318 79.8283 22.8336ZM81.2276 29.796C80.7347 30.1477 80.137 30.317 79.5343 30.2752H77.561V26.343H79.5062C80.1341 26.3079 80.7551 26.4866 81.2696 26.8503C81.4726 27.023 81.6343 27.2392 81.7435 27.4831C81.8527 27.727 81.9059 27.9924 81.8996 28.2598C81.922 28.5477 81.8771 28.8369 81.7673 29.1039C81.6581 29.3709 81.4873 29.608 81.2696 29.796H81.2276Z" fill="#585978"/>
<path d="M87.4976 22.8338H91.6541V34.2499H98.218L96.6781 37.9144H87.4976V22.8338Z" fill="#585978"/>
<path fill-rule="evenodd" clip-rule="evenodd" d="M105.285 22.721L99.9254 35.4902L98.9174 37.9144H103.284L104.348 35.2223H110.128L111.219 37.9144H115.67L109.288 22.721H105.285ZM105.565 31.9666L107.259 27.7385L108.924 31.9666H105.565Z" fill="#585978"/>
<path d="M120.947 28.3305L124.054 22.8338H128.7L123.004 32.2063V37.9144H118.834V32.2626L113.138 22.8338H117.868L120.947 28.3305Z" fill="#585978"/>
<path d="M52.3696 22.8338L48.9687 32.3754L45.5679 22.8338H40.9214L46.9953 38.0271H50.8441L56.9321 22.8338H52.3696Z" fill="#585978"/>
<path fill-rule="evenodd" clip-rule="evenodd" d="M59.6197 23.8863C60.8993 23.0253 62.4038 22.5657 63.9428 22.5657C66.0066 22.5657 67.9858 23.3913 69.4451 24.8609C70.9043 26.3305 71.7244 28.3236 71.7244 30.4019C71.7244 31.9518 71.2679 33.4668 70.4128 34.7555C69.5578 36.0441 68.3425 37.0486 66.9206 37.6417C65.4988 38.2348 63.9342 38.3899 62.4247 38.0875C60.9153 37.7853 59.5288 37.0389 58.4404 35.9431C57.3523 34.8471 56.6111 33.4508 56.3108 31.9307C56.0106 30.4106 56.1647 28.835 56.7536 27.4031C57.3427 25.9712 58.34 24.7474 59.6197 23.8863ZM61.6723 33.8238C62.3445 34.2761 63.1345 34.5174 63.9428 34.5174V34.5032C65.0242 34.5032 66.0616 34.0716 66.8276 33.3028C67.5935 32.5341 68.0257 31.4909 68.0294 30.4019C68.0294 29.588 67.7898 28.7923 67.3408 28.1155C66.8917 27.4387 66.2535 26.9112 65.5067 26.5998C64.7599 26.2882 63.9382 26.2068 63.1455 26.3656C62.3529 26.5243 61.6246 26.9163 61.0531 27.4919C60.4815 28.0674 60.0924 28.8008 59.9347 29.599C59.777 30.3974 59.8578 31.2249 60.1672 31.9769C60.4765 32.7287 61.0003 33.3716 61.6723 33.8238Z" fill="#585978"/>
</g>
</svg>
