<svg width="130" height="60" viewBox="0 0 130 60" fill="none" xmlns="http://www.w3.org/2000/svg">
<mask id="mask0_124_783" style="mask-type:alpha" maskUnits="userSpaceOnUse" x="0" y="0" width="130" height="60">
<rect width="130" height="60" fill="#585978"/>
</mask>
<g mask="url(#mask0_124_783)">
<path d="M5.8396 11.3322C12.9715 11.3322 20.1034 11.3322 27.4514 11.3322C27.4514 13.5898 27.4514 15.8474 27.4514 18.1734C22.808 18.1734 18.1645 18.1734 13.3804 18.1734C13.3804 19.8922 13.3804 21.611 13.3804 23.382C17.5621 23.382 21.7437 23.382 26.0521 23.382C26.0521 25.6395 26.0521 27.8971 26.0521 30.2231C21.8704 30.2231 17.6888 30.2231 13.3804 30.2231C13.3804 31.865 13.3804 33.5069 13.3804 35.1985C18.0238 35.1985 22.6673 35.1985 27.4514 35.1985C27.4514 37.5587 27.4514 39.9189 27.4514 42.3506C20.3195 42.3506 13.1876 42.3506 5.8396 42.3506C5.8396 32.1145 5.8396 21.8785 5.8396 11.3322Z" fill="#585978"/>
<path d="M53.5722 20.4278C56.0093 20.4278 58.4465 20.4278 60.9575 20.4278C60.9604 21.4009 60.9633 22.3739 60.9663 23.3765C60.9687 23.9929 60.9711 24.6094 60.9737 25.2258C60.978 26.2043 60.982 27.1827 60.9844 28.1612C60.9862 28.8739 60.9888 29.5865 60.9924 30.2991C60.9942 30.6763 60.9957 31.0535 60.9962 31.4306C60.9966 31.7861 60.9982 32.1415 61.0006 32.4969C61.0013 32.6269 61.0016 32.757 61.0014 32.887C61.0007 33.888 61.0851 34.7067 61.7349 35.5094C62.3323 36.1068 63.0337 36.2972 63.8582 36.3014C64.9585 36.2953 65.8038 35.9031 66.6128 35.1474C66.6706 35.0873 66.7284 35.0272 66.788 34.9652C66.8547 34.8967 66.9215 34.8281 66.9902 34.7575C67.209 34.4915 67.2316 34.2448 67.2264 33.9085C67.2271 33.8507 67.2277 33.7928 67.2284 33.7332C67.2301 33.5401 67.229 33.3472 67.228 33.1542C67.2286 33.0155 67.2295 32.8768 67.2304 32.7381C67.2326 32.3621 67.2324 31.9861 67.2318 31.6102C67.2316 31.217 67.2335 30.8239 67.2352 30.4308C67.2382 29.6866 67.2391 28.9424 67.2393 28.1982C67.2398 27.1924 67.2432 26.1866 67.2465 25.1808C67.2517 23.5965 67.2527 22.0122 67.2545 20.4278C69.6916 20.4278 72.1288 20.4278 74.6398 20.4278C74.6398 27.6623 74.6398 34.8968 74.6398 42.3506C72.2283 42.3506 69.8168 42.3506 67.3322 42.3506C67.3322 41.8631 67.3322 41.3757 67.3322 40.8735C67.1799 41.0002 67.0276 41.1268 66.8706 41.2573C64.9985 42.7561 62.6783 43.2566 60.3173 43.0256C60.1122 42.9919 59.9149 42.9466 59.7136 42.8947C59.5832 42.8662 59.5832 42.8662 59.4501 42.837C58.3134 42.5683 57.2732 42.0875 56.3708 41.3399C56.3048 41.2856 56.2387 41.2313 56.1707 41.1753C54.5823 39.8083 53.8099 37.9496 53.5722 35.8981C53.535 35.3755 53.5425 34.8516 53.5457 34.328C53.5458 34.1753 53.5457 34.0227 53.5456 33.8701C53.5455 33.4601 53.5469 33.0502 53.5485 32.6402C53.55 32.2102 53.5501 31.7801 53.5504 31.35C53.5511 30.5376 53.553 29.7252 53.5554 28.9127C53.5585 27.8135 53.5597 26.7143 53.5611 25.6151C53.5633 23.886 53.5679 22.1569 53.5722 20.4278Z" fill="#585978"/>
<path d="M30.25 20.4278C36.7918 20.4278 43.3337 20.4278 50.0738 20.4278C50.0738 22.3775 50.0738 24.3272 50.0738 26.3361C48.4412 27.9686 48.4412 27.9686 47.8193 28.5128C47.6286 28.6983 47.44 28.8847 47.2533 29.074C47.2021 29.1254 47.151 29.1768 47.0983 29.2298C46.9368 29.3923 46.7755 29.555 46.6143 29.7178C46.4016 29.9326 46.1886 30.1471 45.9754 30.3615C45.9041 30.4338 45.9041 30.4338 45.8313 30.5076C45.5446 30.7959 45.2476 31.066 44.9401 31.3318C44.6958 31.548 44.4674 31.7789 44.2384 32.0111C44.189 32.0608 44.1396 32.1105 44.0887 32.1617C43.9327 32.3186 43.777 32.4758 43.6213 32.633C43.4159 32.8406 43.2101 33.0478 43.0043 33.2549C42.9355 33.3247 42.9355 33.3247 42.8653 33.3958C42.5328 33.7303 42.1904 34.0308 41.8333 34.3433C41.2432 34.9334 40.6532 35.5234 40.0453 36.1313C43.4316 36.157 46.818 36.1826 50.307 36.2091C50.307 38.2358 50.307 40.2625 50.307 42.3506C43.6369 42.3506 36.9668 42.3506 30.0945 42.3506C30.0945 40.3495 30.0945 38.3485 30.0945 36.2868C31.4938 34.8875 31.4938 34.8875 32.1158 34.3433C32.2158 34.2485 32.315 34.1526 32.412 34.0547C32.4613 34.0051 32.5106 33.9555 32.5614 33.9045C32.6124 33.8529 32.6633 33.8013 32.7158 33.7481C32.7704 33.6932 32.825 33.6383 32.8812 33.5818C33.0538 33.4083 33.2262 33.2345 33.3985 33.0606C33.6258 32.8312 33.8534 32.6021 34.0811 32.3731C34.1321 32.3215 34.183 32.2699 34.2355 32.2167C34.5313 31.9195 34.8364 31.6395 35.1538 31.3656C35.3852 31.1612 35.6016 30.9434 35.8181 30.7235C35.8641 30.6773 35.9101 30.631 35.9574 30.5834C36.1023 30.4375 36.2469 30.2915 36.3915 30.1453C37.4606 29.0645 37.4606 29.0645 37.9388 28.6588C38.1618 28.459 38.3716 28.2473 38.5822 28.0345C38.6245 27.9918 38.6668 27.949 38.7103 27.905C38.8863 27.7269 39.062 27.5485 39.2373 27.3697C39.3668 27.2379 39.4968 27.1066 39.6268 26.9753C39.6666 26.9345 39.7063 26.8937 39.7473 26.8516C39.8437 26.7545 39.9442 26.6615 40.0453 26.5693C40.0966 26.5693 40.1479 26.5693 40.2008 26.5693C40.2008 26.518 40.2008 26.4667 40.2008 26.4138C36.917 26.4138 33.6333 26.4138 30.25 26.4138C30.25 24.4384 30.25 22.463 30.25 20.4278Z" fill="#585978"/>
<path d="M104.103 20.4278C106.515 20.4278 108.926 20.4278 111.411 20.4278C111.411 27.6623 111.411 34.8968 111.411 42.3506C108.999 42.3506 106.588 42.3506 104.103 42.3506C104.103 35.116 104.103 27.8815 104.103 20.4278Z" fill="#585978"/>
<path fill-rule="evenodd" clip-rule="evenodd" d="M92.9054 21.5142C92.8528 21.4649 92.7966 21.4192 92.6173 21.2732C90.8196 19.8874 88.4487 19.5072 86.2368 19.7624L85.9899 19.8059C85.3929 19.9063 84.8135 20.0309 84.2359 20.214C81.8577 21.048 79.9908 22.7159 78.8524 24.9568C77.4716 27.7741 77.1771 31.4066 78.1959 34.3946L78.2936 34.6543C78.32 34.7251 78.3462 34.796 78.3724 34.8671C78.6185 35.5335 78.8671 36.2067 79.2557 36.8034L79.382 36.9865C80.7964 39.1158 82.7457 40.5886 85.2627 41.1453L85.4457 41.1845C86.0308 41.3185 86.5906 41.36 87.191 41.3612C87.3485 41.3602 87.5061 41.3594 87.6637 41.3602C89.5883 41.3723 91.2653 40.7249 92.8294 39.6381L93.0643 39.4742C93.0614 39.7776 93.0575 40.081 93.0518 40.3844C93.0494 40.5102 93.0471 40.636 93.0449 40.7617C93.0347 41.9006 93.0225 43.1678 92.2092 44.0608C91.2707 44.9633 89.9806 45.1837 88.718 45.1735C88.5602 45.1711 88.4025 45.1686 88.2447 45.1679C85.3996 45.1598 82.7096 44.0396 80.3 42.6032C80.1014 42.4835 79.9008 42.3757 79.693 42.2728C79.6897 43.1085 79.687 43.9442 79.6854 44.7799L79.6852 44.8774C79.6845 45.2706 79.6838 45.6639 79.6823 46.0571C79.6806 46.4745 79.679 46.8919 79.6784 47.3093L79.6778 47.7845C79.6766 48.0133 79.6754 48.2421 79.6752 48.471L79.6753 48.6801C79.6734 48.905 79.6783 49.1223 79.693 49.3472C79.7863 49.4406 79.8236 49.4779 79.8654 49.5092C79.8932 49.53 79.923 49.5481 79.9726 49.5784L80.1199 49.6572C80.4676 49.8435 80.8175 50.0255 81.17 50.2023C84.9772 52.0379 89.9791 52.6154 94.0236 51.2394L94.3081 51.1352C95.7049 50.6356 97.1257 49.9033 98.0734 48.7253L98.1952 48.5698C100.031 46.4669 100.41 43.7346 100.4 41.0427C100.398 40.7717 100.398 40.5007 100.398 40.2297C100.399 39.7586 100.398 39.2875 100.397 38.8164C100.395 38.1313 100.394 37.4461 100.394 36.7609C100.393 35.6488 100.392 34.5366 100.39 33.4245C100.388 32.3422 100.386 31.2599 100.385 30.1776L100.385 29.9745L100.384 28.9646C100.381 26.119 100.377 23.2734 100.372 20.4278H93.0643L92.9866 21.5939C92.9527 21.56 92.9294 21.5368 92.9054 21.5142ZM92.7533 27.58C92.5406 27.3967 92.322 27.2276 92.0962 27.0607C90.7604 26.1498 88.9466 25.8487 87.4375 26.4743C86.4253 26.9465 85.8127 27.7401 85.4254 28.7749C84.9816 30.2215 85.144 31.7548 85.8344 33.0995C86.3243 33.932 87.0166 34.5657 87.958 34.8387C89.4443 35.0924 90.8925 34.8403 92.142 33.9814L92.2869 33.8769C92.506 33.7308 92.7002 33.5791 92.8948 33.4013C93.1793 33.0252 93.1793 33.0252 93.156 32.1338V32.1338C93.1527 32.0192 93.1508 31.9045 93.1501 31.7899C93.15 31.5493 93.1489 31.3088 93.1442 31.0682C93.1371 30.7569 93.1313 30.4459 93.1304 30.1345C93.13 29.8904 93.1288 29.6464 93.1262 29.4023L93.122 29.0531C93.1209 28.8865 93.1196 28.72 93.1158 28.5534L93.1119 28.4004C93.1117 28.3865 93.1114 28.3729 93.1112 28.3596C93.1066 28.0826 93.1042 27.9392 92.9177 27.7139L92.7533 27.58Z" fill="#585978"/>
<path d="M36.8579 29.679C36.8836 29.7303 36.9092 29.7816 36.9357 29.8344C36.91 29.8857 36.8844 29.9371 36.8579 29.9899C36.8066 29.9899 36.7553 29.9899 36.7024 29.9899C36.7024 30.0412 36.7024 30.0925 36.7024 30.1454C36.6511 30.1454 36.5998 30.1454 36.547 30.1454C36.4956 30.248 36.4443 30.3506 36.3915 30.4564C36.3402 30.4564 36.2889 30.4564 36.236 30.4564C36.2135 30.5013 36.1911 30.5461 36.168 30.5924C36.1391 30.6501 36.1103 30.7078 36.0805 30.7673C36.0468 30.8491 36.0468 30.8491 36.0125 30.9325C35.8642 31.1796 35.6452 31.2234 35.3809 31.3115C35.3552 31.3885 35.3295 31.4654 35.3031 31.5447C35.2775 31.4678 35.2518 31.3908 35.2254 31.3115C35.7641 30.7728 36.3029 30.234 36.8579 29.679Z" fill="#585978"/>
<path d="M36.858 29.679C36.8836 29.7303 36.9093 29.7816 36.9357 29.8344C36.9101 29.8857 36.8844 29.9371 36.858 29.9899C36.8067 29.9899 36.7554 29.9899 36.7025 29.9899C36.7025 30.0412 36.7025 30.0925 36.7025 30.1454C36.6512 30.1454 36.5999 30.1454 36.547 30.1454C36.5278 30.1951 36.5085 30.2448 36.4887 30.296C36.3915 30.4564 36.3915 30.4564 36.23 30.5052C36.156 30.5195 36.156 30.5195 36.0806 30.5341C36.3299 30.2382 36.5787 29.9475 36.858 29.679Z" fill="#585978"/>
<circle cx="118.33" cy="14.8305" r="5.83052" fill="#585978"/>
</g>
</svg>
