<svg width="130" height="60" viewBox="0 0 130 60" fill="none" xmlns="http://www.w3.org/2000/svg">
<mask id="mask0_124_862" style="mask-type:alpha" maskUnits="userSpaceOnUse" x="0" y="0" width="130" height="60">
<rect width="130" height="60" fill="#585978"/>
</mask>
<g mask="url(#mask0_124_862)">
<path fill-rule="evenodd" clip-rule="evenodd" d="M22.9723 33.8312V38.5785H19.5796V27.8361C19.5631 26.9325 19.7344 26.0353 20.0827 25.2C20.4309 24.3647 20.9489 23.6092 21.6043 22.9803C22.9449 21.6509 24.6959 21 26.8027 21C28.9641 21 30.7152 21.6511 32.0558 22.9803C32.7074 23.6106 33.221 24.367 33.5646 25.2024C33.9083 26.0378 34.0745 26.9343 34.0531 27.8361V38.5785H30.6604V33.8312H22.9723ZM26.8027 24.3367C24.395 24.3367 22.9723 25.8016 22.9723 27.7547V30.4674H30.6604V28.0801C30.6604 25.8829 29.2104 24.3367 26.8027 24.3367ZM2 30.3063C2 23.9789 7.57361 22.0341 12.3028 22.0341H17.5105V25.2237H12.9221C7.77067 25.2237 5.71575 27.5575 5.71575 30.2804C5.71575 33.5737 7.79883 35.389 12.3028 35.389H14.0199V30.2804H17.5105V38.5785H12.3028C7.57361 38.5785 2 36.6337 2 30.3063ZM47.4973 38.5785V35.3889H39.4183V22.0341H36.123V38.5785H47.4973ZM70.3715 38.5785H66.1098L71.7036 30.6693L72.2069 30.0989H71.9108L66.1098 22.0341H70.3715L74.3671 27.5834L78.3922 22.0341H82.6543L77.1788 29.6061L76.7056 30.0988H77.1199L82.6543 38.5785H78.3922L74.5448 32.692L70.3715 38.5785ZM88.2984 22.0341C84.1267 22.0341 82.6544 24.2901 82.6544 26.8314C82.6544 29.1912 83.7722 31.7326 87.7259 31.7326H90.1525C91.8976 31.7326 92.8518 32.0178 92.8518 33.5478C92.8518 34.9222 91.8976 35.3889 90.1525 35.3889H83.4176V38.5785H90.1525C94.7334 38.5785 96.0968 36.867 96.0968 33.6515C96.0968 31.2657 95.0332 28.6985 90.3708 28.6985H88.1075C86.6623 28.6985 85.8989 28.3354 85.8989 27.0129C85.8989 25.7941 86.6623 25.2237 88.1346 25.2237H94.7333V22.0341H88.2984ZM108.81 22.0341H112.641L106.227 33.1847V38.5785H102.627V33.1847L96.0967 22.0341H99.9281L104.369 30.0989L108.81 22.0341ZM119.319 22.0341C115.148 22.0341 113.675 24.2901 113.675 26.8314C113.675 29.1912 114.793 31.7326 118.747 31.7326H121.174C122.919 31.7326 123.873 32.0178 123.873 33.5478C123.873 34.9222 122.919 35.3889 121.174 35.3889H114.439V38.5785H121.174C125.754 38.5785 127.118 36.867 127.118 33.6515C127.118 31.2657 126.054 28.6985 121.392 28.6985H119.128C117.684 28.6985 116.92 28.3354 116.92 27.0129C116.92 25.7941 117.684 25.2237 119.156 25.2237H125.754V22.0341H119.319ZM54.2357 33.8312V38.5785H50.6006V27.8361C50.5829 26.9325 50.7664 26.0353 51.1396 25.1999C51.5127 24.3646 52.0677 23.6091 52.7699 22.9803C54.2061 21.6509 56.0823 21 58.3396 21C60.6554 21 62.5315 21.6511 63.9682 22.9803C64.6663 23.6107 65.2165 24.3671 65.5846 25.2025C65.9527 26.0379 66.1309 26.9343 66.1079 27.8361V38.5785H62.4731V33.8312H54.2357ZM58.3396 24.3367C55.7599 24.3367 54.2357 25.8015 54.2357 27.7547V30.4675H62.4731V28.0803C62.4731 25.8829 60.9193 24.3367 58.3396 24.3367Z" fill="#585978"/>
</g>
</svg>
