<svg width="130" height="60" viewBox="0 0 130 60" fill="none" xmlns="http://www.w3.org/2000/svg">
<mask id="mask0_124_328" style="mask-type:alpha" maskUnits="userSpaceOnUse" x="0" y="0" width="130" height="60">
<rect width="130" height="60" fill="#585978"/>
</mask>
<g mask="url(#mask0_124_328)">
<path fill-rule="evenodd" clip-rule="evenodd" d="M6 40H9.96677V45.264H14.994V40H19V54H14.994V48.512H9.96677V54H6V40ZM38.0457 40.0045L34 40.0092V53.9915L37.8922 53.9938L38.0875 53.994C38.5963 53.9944 39.1052 53.9948 39.6141 53.995L39.6642 53.995C39.8447 53.995 40.0251 53.995 40.2056 53.9952C40.4146 53.9955 40.6235 53.9957 40.8325 53.9957L41.0698 53.9957C41.1767 53.9959 41.287 53.9968 41.3998 53.9977L41.4009 53.9977C42.6288 54.0078 44.1621 54.0204 45.0926 53.1712V53.0966H45.1671L45.2415 52.9847C45.5162 52.6465 45.7029 52.2804 45.8114 51.8588L45.8371 51.7543C45.9734 51.2123 45.9992 50.6778 46 50.1215L45.9999 50.0112C46.0014 49.184 45.9546 48.2795 45.3904 47.6155L45.2787 47.5783V47.5037H45.2043V47.4291C44.7495 47.1049 44.2461 46.997 43.709 46.884L43.6409 46.8698C43.6905 46.8572 43.7401 46.8448 43.7898 46.8325C43.9899 46.7885 44.1894 46.7439 44.3854 46.6834C44.6909 46.5637 45.1072 46.3711 45.2517 46.059L45.2787 45.975H45.3532C45.6822 45.253 45.7682 44.4577 45.7696 43.6726L45.7696 43.5956C45.7699 43.1584 45.7691 42.7252 45.6655 42.2982L45.6417 42.2067C45.5321 41.7806 45.3837 41.3918 45.0926 41.0532H45.0182V40.9786C44.5866 40.6016 44.064 40.3684 43.518 40.2133L43.4106 40.184C42.7802 40.0056 42.1134 39.998 41.4628 40.0003C41.3844 40.0006 41.306 40.0007 41.2277 40.0007C41.0125 40.0006 40.7973 40.0008 40.5822 40.0013C40.4142 40.0017 40.2462 40.002 40.0783 40.0021L39.3197 40.0025L38.0457 40.0045ZM37.7596 45.5648V43.1412L37.9378 43.14H37.9379H37.938H37.9382H37.9383H37.9384H37.9386H37.9387C38.2502 43.1377 38.5617 43.1355 38.8732 43.1343L38.9801 43.1339C39.1896 43.1332 39.399 43.1325 39.6085 43.131C39.8122 43.1293 40.0159 43.1278 40.2196 43.1273L40.4532 43.1266C40.4997 43.1261 40.5461 43.1253 40.5923 43.1244H40.5925H40.5927H40.5929H40.5931H40.5934H40.5936C40.9654 43.1176 41.3259 43.111 41.6681 43.2904V43.3649L41.7355 43.3882C41.8123 43.4629 41.8514 43.5009 41.8794 43.5458C41.9085 43.5923 41.9255 43.6464 41.9603 43.7564L41.9603 43.7564C42.1055 44.2567 42.0848 44.7601 41.8542 45.2292C41.7339 45.3634 41.5963 45.4143 41.4269 45.464L41.333 45.4902L41.3329 45.4903L41.3328 45.4903L41.3325 45.4903C41.0848 45.5351 40.9606 45.5575 40.8354 45.5678C40.7097 45.5782 40.583 45.5764 40.3292 45.5727H40.3291H40.3291H40.329H40.329H40.3289H40.3288H40.3287H40.3286C40.2585 45.5723 40.1883 45.572 40.1182 45.5719C39.9338 45.5717 39.7494 45.5712 39.565 45.5704C39.3365 45.5694 39.1079 45.5689 38.8793 45.5684L38.3195 45.5669L37.7596 45.5648ZM37.7596 50.8594V48.2121L37.9208 48.2118H37.9208C38.2148 48.2113 38.5087 48.2107 38.8027 48.2104C39.0322 48.2102 39.2617 48.21 39.4912 48.2096C39.682 48.2091 39.8728 48.2088 40.0636 48.2086L40.2823 48.2085L40.4048 48.2081L40.5953 48.2079L40.6923 48.2079C41.1378 48.2058 41.6188 48.2213 41.9993 48.4848C42.2178 48.7182 42.24 49.082 42.2399 49.3838L42.238 49.5055C42.2391 49.8629 42.237 50.2236 41.9882 50.509C41.1668 50.8978 41.1668 50.8978 40.2179 50.8673C40.151 50.8669 40.084 50.8666 40.017 50.8665C39.8404 50.8663 39.6637 50.8659 39.487 50.8651C39.2682 50.864 39.0494 50.8635 38.8306 50.8631L38.2951 50.8615L37.7596 50.8594ZM68.3636 40H62V54H65.7059L65.706 53.6939V53.6929V53.6928V53.6928V53.6928V53.6927V53.6927V53.6927V53.6926C65.7063 53.2756 65.7066 52.8588 65.702 52.4418L65.6993 52.2222L65.6943 51.8011L65.6899 51.4428C65.6857 51.0868 65.6814 50.7309 65.6769 50.375L65.6706 49.8707C65.6438 47.6957 65.6097 45.521 65.5585 43.3465L65.5561 43.248H65.6684C65.6684 43.2826 65.6684 43.3012 65.6712 43.3194C65.6743 43.3404 65.681 43.3608 65.6956 43.4049L65.7334 43.5063L65.775 43.6183L65.8182 43.7333L65.8713 43.8748L65.9359 44.0463C66.065 44.3877 66.1923 44.7296 66.3165 45.0727L66.3232 45.0914C66.3784 45.2447 66.4336 45.398 66.4939 45.5495L66.4944 45.5507C66.5471 45.6808 66.5995 45.81 66.6451 45.9427C66.6909 46.088 66.7373 46.2318 66.7958 46.3725C66.8871 46.5816 66.9668 46.7916 67.0382 47.0082L67.0684 47.1007C67.1258 47.2774 67.1831 47.4539 67.2523 47.6265C67.3397 47.8259 67.4168 48.0253 67.4853 48.2319C67.5904 48.5518 67.6994 48.8687 67.8197 49.1833C67.8722 49.3202 67.9235 49.4576 67.9745 49.5951L68.008 49.6857C68.0809 49.8827 68.1526 50.0801 68.2221 50.2784C68.3149 50.5438 68.4123 50.807 68.5134 51.0693C68.5936 51.2776 68.673 51.4859 68.7468 51.6965C68.8431 51.9727 68.9436 52.2469 69.0468 52.5207L69.2246 52.992L69.5989 54H76V40H72.2567L72.2558 40.4364L72.2558 40.4436C72.2547 40.9489 72.2537 41.4542 72.2542 41.9595L72.2543 42.0468C72.255 42.5586 72.2592 43.07 72.2731 43.5817C72.2945 44.3712 72.3026 45.1607 72.3105 45.9504L72.3128 46.1736C72.3273 47.6286 72.3418 49.0835 72.4036 50.5374L72.4064 50.6027L72.2941 50.5653L72.2501 50.4697C72.2281 50.4032 72.206 50.3367 72.1835 50.2704L72.1583 50.1964C72.1169 50.0721 72.0744 49.9482 72.0309 49.8246L72.004 49.7487C71.9137 49.4923 71.8192 49.2376 71.7233 48.9833C71.6178 48.7041 71.5129 48.4247 71.4092 48.1448C71.269 47.7656 71.127 47.3872 70.9827 47.0096L70.9707 46.9782L70.9703 46.977L70.9701 46.9766C70.8594 46.6868 70.7487 46.3972 70.6471 46.104C70.6146 46.0101 70.5928 45.9472 70.5703 45.8845C70.5247 45.757 70.4763 45.6306 70.3297 45.2475L70.3289 45.2453L70.3143 45.2071C70.2162 44.9511 70.1182 44.6951 70.0275 44.4363C69.8934 44.0502 69.7465 43.6694 69.5931 43.2904C69.509 43.0837 69.4323 42.8751 69.3575 42.6648C69.297 42.4943 69.2363 42.3238 69.1753 42.1535L69.131 42.03C69.0477 41.7959 68.9622 41.5638 68.8655 41.3348C68.8016 41.1841 68.742 41.0333 68.6883 40.8787C68.5872 40.5827 68.4764 40.2923 68.3636 40ZM90 40.0093L93.8142 40.0046L95.0139 40.0026L95.7302 40.0022C95.8884 40.0021 96.0466 40.0018 96.2048 40.0014H96.205C97.806 39.9974 98.2769 39.9963 98.7325 40.0794C98.9223 40.114 99.1095 40.1633 99.3747 40.2331L99.4526 40.2534C99.9447 40.3849 100.381 40.6119 100.82 40.8674V40.942L100.885 40.97C100.98 41.0234 101.044 41.0832 101.116 41.1658V41.2405H101.19C101.535 41.6561 101.715 42.2486 101.82 42.7701L101.84 42.8611C102.063 43.947 102.038 45.151 101.857 46.2398L101.84 46.3441C101.77 46.7679 101.69 47.1821 101.45 47.5456H101.376L101.345 47.6132C101.302 47.6948 101.261 47.7476 101.19 47.8068H101.116V47.8814C100.635 48.2343 99.9414 48.5529 99.3376 48.5529V48.6649L99.4696 48.6579C99.9531 48.6594 100.394 48.8203 100.82 49.038V49.1126L100.901 49.1406C101.015 49.1918 101.098 49.2515 101.19 49.3364V49.411H101.264C101.505 49.7035 101.638 50.0201 101.746 50.3811L101.772 50.4647C101.874 50.8217 101.868 51.2087 101.863 51.5831L101.862 51.6843L101.861 51.7498L101.861 51.7994L101.861 51.9691C101.861 52.1499 101.86 52.3306 101.86 52.5113L101.86 52.5268L101.86 52.5916L101.857 54H98.0407L98.0405 53.9755C98.0319 53.1667 98.0298 52.971 98.0281 52.7752L98.0264 52.5703L98.0226 52.2985L98.0219 52.1596C98.0138 51.6625 97.9378 51.0333 97.5794 50.6581C97.2169 50.3226 96.7548 50.3236 96.2926 50.3246L96.2122 50.3247L96.1714 50.3247L95.9872 50.3228C95.7854 50.3209 95.5835 50.3197 95.3817 50.3185L95.3103 50.3181L93.7795 50.3065V54H90V40.0093ZM93.7795 43.2551V47.0606L95.4423 47.0676L95.9655 47.0707L96.2776 47.0713C96.3466 47.0715 96.4156 47.0718 96.4846 47.0724C96.5897 47.0732 96.6947 47.0734 96.7998 47.0733L96.8915 47.0745C97.181 47.073 97.4428 46.9894 97.7072 46.8741V46.7994H97.7813V46.7248H97.8555C98.2323 45.9182 98.2434 44.7174 97.9643 43.8754C97.8633 43.6484 97.7416 43.5167 97.522 43.4044C97.1697 43.297 96.82 43.2752 96.4543 43.2733L96.3004 43.2713C96.1665 43.2696 96.0326 43.2684 95.8986 43.2675C95.779 43.2665 95.6593 43.265 95.5396 43.2635L95.4972 43.2629C94.9246 43.2561 94.3522 43.2551 93.7795 43.2551ZM109.165 40C109.065 40.0002 108.965 40.0004 108.865 40.0002C108.344 39.999 107.83 40.0144 107.313 40.094L107.181 40.1157C106.331 40.2548 105.49 40.5078 104.721 40.9273V41.0011H104.653C104.023 41.41 103.616 42.1 103.386 42.8415L103.355 42.9563C103.237 43.3812 103.158 43.6666 103.105 43.9568C102.997 44.5508 102.999 45.1648 103.004 47.0357L103.005 47.2965C103.005 47.469 103.004 47.6453 103.002 47.8244V47.8259V47.8274C102.992 49.3852 102.98 51.1533 103.901 52.4003H103.969C103.969 52.4303 103.969 52.448 103.974 52.4643C103.982 52.4881 104 52.5087 104.044 52.5594L104.14 52.6586C104.496 53.0645 104.926 53.3225 105.414 53.5003L105.541 53.544C105.709 53.6021 105.877 53.657 106.047 53.7068L106.122 53.7284C107.023 53.9885 107.972 54.0052 108.9 53.999C109 53.9984 109.1 53.9981 109.201 53.9983C109.745 53.9993 110.286 53.9959 110.827 53.9237L110.905 53.9129C111.826 53.7843 112.829 53.5645 113.569 52.9168V52.843H113.638C113.703 52.7845 113.74 52.7323 113.781 52.6517L113.808 52.5848H113.877L113.877 52.5847L113.877 52.5847L113.877 52.5846L113.877 52.5845C114.089 52.334 114.238 52.1578 114.349 51.9605C114.614 51.4929 114.67 50.9069 114.857 48.9328L114.867 48.8219C115.013 47.3502 115.069 45.7555 114.878 44.2875L114.867 44.2106C114.826 43.8909 114.775 43.5763 114.702 43.2632L114.68 43.1707C114.642 43.0148 114.602 42.8657 114.545 42.7164C114.517 42.6484 114.489 42.5804 114.462 42.5116C114.444 42.4651 114.426 42.4157 114.408 42.3646C114.288 42.0372 114.142 41.6397 113.869 41.4703L113.808 41.4438C113.808 41.4066 113.808 41.3882 113.802 41.372C113.796 41.3561 113.784 41.3425 113.761 41.3154C112.506 40.1451 110.755 39.9993 109.165 40ZM106.73 44.6049C106.776 44.2867 106.843 44.0161 106.999 43.7402C107.481 43.4744 107.723 43.3409 107.982 43.2742C108.244 43.2068 108.524 43.2077 109.086 43.2095C109.154 43.2097 109.223 43.2099 109.291 43.2097C109.848 43.2078 110.448 43.2232 110.905 43.6203V43.6941H110.973C111.2 44.2312 111.315 44.505 111.373 44.7904C111.433 45.087 111.43 45.3962 111.424 46.0266V46.0267V46.0268V46.0269V46.027V46.027V46.0272L111.424 46.1117L111.423 46.243C111.422 46.4731 111.421 46.7032 111.418 46.9333L111.417 47.0512C111.415 47.285 111.412 47.5189 111.408 47.7527L111.404 47.9758C111.393 48.7682 111.333 49.4787 110.973 50.1869H110.905V50.2607H110.836V50.3345L110.786 50.3781L110.717 50.4244C110.185 50.7878 109.485 50.8133 108.877 50.8181L108.763 50.8187C108.199 50.8215 107.739 50.7481 107.215 50.5189V50.4451H107.147C106.899 50.272 106.805 49.9958 106.733 49.6988L106.711 49.6013C106.557 48.9343 106.555 48.2448 106.557 47.5617L106.557 47.4247L106.557 47.3445L106.557 47.1724V47.1724V47.1723V47.1722V47.1722V47.1721V47.172C106.557 46.492 106.557 45.8039 106.65 45.1317L106.658 45.0798C106.667 45.0304 106.674 44.981 106.682 44.9314C106.692 44.86 106.702 44.7887 106.713 44.7173L106.73 44.6049ZM25.8909 40.008C25.2078 40.0092 24.5248 40.0112 23.8417 40.0138C23.7736 40.2351 23.7094 40.4576 23.6458 40.6804L23.6252 40.7527C23.5247 41.1048 23.4253 41.4572 23.3307 41.8113C23.298 41.9338 23.2653 42.0562 23.2323 42.1786L23.2114 42.2562C23.1627 42.4372 23.1129 42.6179 23.062 42.7982L23.0178 42.9538L23.0178 42.9539L23.0178 42.9539L23.0178 42.954L23.0178 42.954C22.9563 43.17 22.8948 43.386 22.8415 43.6044L22.8355 43.6297C22.7951 43.7995 22.7549 43.9684 22.7049 44.1353C22.6329 44.365 22.5634 44.5938 22.5029 44.8273C22.4228 45.1382 22.3391 45.4475 22.2509 45.7558C22.1402 46.1413 22.0301 46.5267 21.9263 46.9145C21.8804 47.0839 21.8575 47.1687 21.8343 47.2533C21.8111 47.3379 21.7876 47.4225 21.7408 47.5915L21.6426 47.9475L21.5596 48.2491L21.5178 48.4008L21.4774 48.548L21.439 48.6873C21.417 48.7675 21.3946 48.8476 21.372 48.9277C21.3273 49.0728 21.2845 49.2181 21.2449 49.365L21.2238 49.4437L21.1781 49.6135L21.0691 50.0185L21.0486 50.0946C20.9031 50.6343 20.7567 51.1736 20.6052 51.7114C20.5461 51.9209 20.4874 52.1306 20.4288 52.3403L20.4218 52.3652C20.3735 52.5383 20.3252 52.7114 20.2759 52.8843L20.2427 53.0007L20.1779 53.2284L20.1478 53.3329L20.1194 53.4331L20.1194 53.4332C20.1082 53.4722 20.1 53.5009 20.0925 53.5298C20.0717 53.6099 20.0567 53.6916 20 54H23.6359L23.6876 53.7999L23.6876 53.7997L23.6876 53.7997L23.6876 53.7996L23.6877 53.7996C23.7782 53.4494 23.8689 53.0991 23.9489 52.7459C23.9922 52.5512 24.0444 52.3636 24.1054 52.1748C24.1344 52.088 24.1609 52.0001 24.1847 51.9114L24.219 51.5757H28.8153C28.8153 51.6663 28.8153 51.7019 28.8204 51.7367C28.8237 51.7593 28.8291 51.7815 28.8381 51.818C28.9048 52.0401 28.967 52.2629 29.0253 52.4878C29.0945 52.7548 29.165 53.0211 29.2411 53.2859L29.2676 53.3776C29.3285 53.5884 29.3955 53.7926 29.467 54H33C33 53.9454 33 53.9175 32.9969 53.8899C32.9937 53.8609 32.9871 53.8322 32.9736 53.7735L32.9378 53.6387C32.9073 53.5222 32.8765 53.4065 32.838 53.2928C32.7862 53.1458 32.7391 52.9994 32.6986 52.8482L32.6563 52.6886L32.6335 52.6033C32.6048 52.4951 32.5758 52.387 32.5465 52.279L32.5316 52.2244C32.4846 52.0519 32.4376 51.8793 32.3926 51.7062C32.3043 51.3637 32.2156 51.0222 32.1103 50.6853C32.0105 50.3517 31.9606 50.1848 31.9126 50.0174C31.8646 49.85 31.8185 49.6821 31.7265 49.3465L31.7264 49.3464L31.7264 49.3462L31.7261 49.3452L31.7261 49.345L31.6849 49.1954L31.6687 49.1367L31.5824 48.8227L31.5744 48.7934C31.5187 48.5899 31.4631 48.3865 31.4007 48.1852C31.3703 48.0875 31.3418 47.9901 31.3144 47.8912C31.2424 47.6202 31.1688 47.3498 31.093 47.08L31.0897 47.0681C31.0164 46.8075 30.9432 46.5469 30.8728 46.2853C30.8198 46.0878 30.7664 45.8905 30.7098 45.6941C30.5611 45.1801 30.4135 44.6657 30.2792 44.147C30.2077 43.8703 30.133 43.596 30.048 43.3238C29.9392 42.9757 29.8432 42.6243 29.7516 42.2703C29.6628 41.926 29.5734 41.583 29.467 41.2446C29.3875 40.9927 29.3182 40.7389 29.2526 40.4823L29.227 40.3798L29.2028 40.2843C29.1749 40.1721 29.1508 40.1135 29.0897 40.0138L28.9993 40L28.8822 40.0003C28.8133 40.0001 28.7444 39.9999 28.6755 40.0004L28.6165 40.0008L28.5236 40.0011C28.3859 40.0009 28.2482 40.0012 28.1105 40.0019C27.9641 40.0028 27.8178 40.0031 27.6714 40.0032C27.395 40.0035 27.1187 40.0042 26.8423 40.0053C26.5252 40.0066 26.2081 40.0074 25.8909 40.008ZM26.2985 43.7038C26.362 43.4509 26.4283 43.204 26.5172 42.9602H26.5515C26.6098 43.1991 26.6719 43.436 26.7401 43.6718C26.8719 44.1276 26.9952 44.5858 27.1159 45.0452L27.1431 45.149L27.1775 45.2796C27.2461 45.54 27.3148 45.8005 27.3787 46.0624C27.4392 46.3123 27.5023 46.5604 27.5733 46.8071C27.6745 47.1562 27.7722 47.5064 27.8658 47.8581L27.902 47.9952L27.9367 48.1252L27.9693 48.2493C28.0042 48.3978 28.0218 48.4725 28.0374 48.5475C28.0532 48.6232 28.0671 48.6993 28.0948 48.852L28.095 48.8529L28.095 48.8531H24.9736L24.9758 48.8444L24.9758 48.8442L24.9759 48.844L24.9759 48.8438L24.976 48.8436C25.0263 48.6431 25.0766 48.4426 25.1244 48.2413C25.2044 47.901 25.2863 47.5619 25.3809 47.226C25.4708 46.9075 25.5532 46.587 25.6339 46.2656L25.6694 46.1238L25.703 45.9897C25.7324 45.8722 25.7629 45.7563 25.7982 45.6407C25.8173 45.5786 25.8356 45.5163 25.8519 45.4533L25.8693 45.3791L25.8894 45.2944C25.9504 45.0356 26.0138 44.7779 26.0841 44.522C26.1249 44.3741 26.1651 44.2261 26.2034 44.0774L26.2347 43.9545L26.2985 43.7038ZM51.1372 40H56.7889C56.8599 40.1674 56.9194 40.3145 56.9687 40.4864L57.0055 40.6135L57.0429 40.7443C57.1284 41.0418 57.2159 41.3384 57.3078 41.6339C57.3662 41.8217 57.4236 42.0097 57.4804 42.198L57.5059 42.2827L57.6089 42.6242C57.7002 42.9273 57.792 43.2302 57.8858 43.5325C57.9453 43.7242 58.0035 43.9161 58.0587 44.109C58.1404 44.3924 58.2254 44.6747 58.3108 44.957C58.3842 45.1998 58.4557 45.4431 58.5265 45.6868C58.629 46.0398 58.7344 46.3908 58.8521 46.739C58.9319 46.9771 59 47.218 59.0673 47.46C59.2474 48.1066 59.4462 48.7484 59.6491 49.388C59.7475 49.699 59.8415 50.0106 59.9288 50.325C59.9966 50.5692 60.0692 50.8106 60.1504 51.0507C60.265 51.3898 60.3613 51.7333 60.4571 52.0783C60.4948 52.2135 60.5336 52.3485 60.5729 52.4833L60.5947 52.5585C60.6401 52.7139 60.6868 52.8689 60.7339 53.0238L60.7689 53.1389C60.7915 53.2132 60.8142 53.2873 60.8371 53.3615L60.8688 53.4657L60.8969 53.5571C60.9299 53.6778 60.9565 53.8001 60.9831 53.9224L61 54H57.1953C57.1191 53.8204 57.0583 53.6624 57.0059 53.4773L56.9835 53.399L56.9393 53.2438L56.9031 53.1161L56.8997 53.104C56.8503 52.9301 56.8008 52.7561 56.7511 52.5823C56.7293 52.5056 56.7076 52.429 56.6859 52.3523C56.6179 52.1135 56.5447 51.8799 56.4565 51.648V51.5733H51.5435L51.5066 51.8347C51.4939 51.8907 51.4802 51.9465 51.4649 52.0018L51.4395 52.0948L51.4119 52.194L51.383 52.2994L51.3198 52.5295C51.282 52.6667 51.2446 52.804 51.2072 52.9414L51.1198 53.2622L51.0535 53.5052L51.0214 53.6226C50.9891 53.7399 50.956 53.857 50.9229 53.9741L50.9156 54H47C47.0614 53.6897 47.0774 53.609 47.1005 53.5303C47.1072 53.5076 47.1144 53.4851 47.1236 53.4573L47.1299 53.4381L47.161 53.3416L47.1939 53.2417C47.2842 52.9615 47.3694 52.6807 47.4479 52.397C47.5104 52.1716 47.5762 51.9489 47.6511 51.7273C47.7254 51.5072 47.786 51.286 47.8437 51.0609C47.9013 50.8417 47.9676 50.625 48.034 50.4084L48.034 50.4083L48.0815 50.253C48.1348 50.0775 48.1867 49.9016 48.2375 49.7253C48.3095 49.4759 48.384 49.2272 48.4591 48.9787C48.5356 48.7254 48.6116 48.4721 48.6854 48.218L48.7079 48.1403C48.7434 48.0178 48.7787 47.8952 48.8138 47.7726C48.9255 47.384 49.044 46.9975 49.163 46.6111C49.3443 46.0222 49.5236 45.4331 49.6892 44.8395C49.7493 44.6257 49.8138 44.4138 49.8813 44.2023C49.9752 43.9077 50.0566 43.6105 50.1358 43.3115C50.1912 43.1036 50.2525 42.8996 50.3225 42.6962C50.3731 42.5403 50.4169 42.3827 50.4609 42.2249L50.4609 42.2248L50.4677 42.2003C50.5466 41.9174 50.63 41.6365 50.7187 41.3565C50.8074 41.0762 50.892 40.7947 50.9762 40.5129L51.0073 40.4088L51.0347 40.317C51.0642 40.2213 51.0955 40.1263 51.1269 40.0312L51.1372 40ZM54.0185 42.9493C53.9143 43.2287 53.823 43.5095 53.7414 43.7963L53.7072 43.9156C53.6335 44.1747 53.5671 44.4345 53.5042 44.6966C53.4559 44.8917 53.3993 45.0844 53.3426 45.2771L53.3426 45.2773L53.3425 45.2775L53.3425 45.2777L53.3112 45.3842C53.2084 45.7372 53.1113 46.0917 53.0152 46.4466C52.9125 46.8257 52.8068 47.2038 52.6967 47.5807L52.6648 47.6899L52.6016 47.9052C52.5187 48.1902 52.4483 48.4751 52.3771 48.7635L52.3771 48.7636L52.3562 48.848H55.7177C55.6906 48.6836 55.659 48.5343 55.6148 48.3749L55.595 48.3035C55.5737 48.2267 55.5522 48.15 55.5307 48.0733L55.5083 47.9932C55.3968 47.5939 55.2791 47.197 55.1566 46.801C55.0697 46.5185 54.9911 46.2346 54.9158 45.9487C54.8432 45.6756 54.762 45.4056 54.6788 45.1357C54.5871 44.8383 54.4992 44.5415 54.4221 44.24C54.3109 43.8065 54.189 43.3763 54.0554 42.9493H54.0185ZM87.8909 40H78V54H88V50.864H81.7091V48.2133H87.4909V45.6C87.4774 45.5861 87.4689 45.5774 87.4587 45.5717C87.4415 45.562 87.4195 45.561 87.3603 45.5581L87.2321 45.5582C87.1566 45.5581 87.0811 45.558 87.0057 45.5582L86.8391 45.5584C86.6883 45.5584 86.5375 45.5585 86.3867 45.5587C86.2262 45.559 86.0658 45.5591 85.9054 45.5592C85.6026 45.5592 85.2999 45.5595 84.9971 45.5599C84.6496 45.5603 84.3021 45.5605 83.9546 45.5607C83.3817 45.561 82.8088 45.5615 82.2359 45.5621L81.7091 45.5627V43.0987H87.8909V40ZM121 40H122.394L122.511 40.4719C122.604 40.8452 122.698 41.218 122.793 41.5902C122.857 41.8389 122.919 42.088 122.982 42.3371C123.068 42.0673 123.135 41.7971 123.195 41.5169C123.271 41.1708 123.349 40.8263 123.433 40.4831L123.462 40.3672L123.462 40.3671C123.508 40.1779 123.522 40.1235 123.541 40.0711C123.548 40.05 123.557 40.0292 123.569 40H125V44H124.119C124.115 43.0549 124.117 42.1128 124.156 41.1685L124.119 41.3225C124.009 41.7844 123.89 42.2427 123.766 42.6994L123.725 42.8514C123.65 43.1247 123.572 43.396 123.489 43.6656C123.474 43.7148 123.466 43.7449 123.459 43.7755C123.447 43.8237 123.44 43.8729 123.422 44H122.578L122.472 43.5899C122.346 43.1021 122.215 42.6167 122.081 42.1318C121.998 41.8272 121.917 41.5221 121.844 41.2135C121.84 41.7369 121.845 42.2573 121.868 42.7801C121.884 43.1871 121.883 43.5924 121.881 44H121V40ZM120 40H118V40.9888H118.639V44H119.333V40.9888H120V40Z" fill="#585978"/>
<path d="M66.5715 7.5342C66.754 7.71084 66.8814 7.85173 66.8983 8.10892C66.8988 8.17056 66.899 8.2322 66.8988 8.29384C66.8991 8.34442 66.8991 8.34442 66.8994 8.39603C66.8998 8.46921 66.9 8.54239 66.9 8.61556C66.9002 8.73149 66.9008 8.8474 66.9016 8.96332C66.9037 9.29288 66.9048 9.62245 66.9058 9.95202C66.9064 10.1537 66.9075 10.3553 66.909 10.557C66.9094 10.6337 66.9096 10.7105 66.9096 10.7872C66.9097 10.8947 66.9104 11.0022 66.9112 11.1097C66.911 11.1413 66.9108 11.1728 66.9107 11.2053C66.9131 11.4057 66.9496 11.5423 67.0399 11.7217C67.0575 11.765 67.0575 11.765 67.0754 11.8092C67.1441 11.9169 67.2402 11.9325 67.3587 11.9674C67.5852 12.0084 67.818 11.9746 68.0241 11.8722C68.0241 11.8474 68.0241 11.8226 68.0241 11.797C68.0491 11.797 68.0741 11.797 68.0998 11.797C68.1115 11.7675 68.1232 11.738 68.1353 11.7076C68.1755 11.6089 68.1755 11.6089 68.2134 11.5336C68.2184 11.4325 68.2213 11.3322 68.2227 11.2311C68.2239 11.1691 68.2252 11.1071 68.2265 11.0451C68.2282 10.9474 68.2299 10.8498 68.2314 10.7521C68.2329 10.6578 68.2349 10.5636 68.2369 10.4693C68.2372 10.4404 68.2375 10.4116 68.2378 10.3818C68.2443 10.0997 68.2942 9.88243 68.4927 9.6719C68.6769 9.50116 68.8528 9.48479 69.0952 9.49071C69.2367 9.50656 69.3374 9.54873 69.4625 9.61503C69.4625 9.63986 69.4625 9.66469 69.4625 9.69027C69.5 9.70269 69.5375 9.7151 69.5761 9.72789C69.7238 9.92374 69.7491 10.1247 69.7452 10.3621C69.7453 10.394 69.7453 10.4258 69.7454 10.4587C69.7455 10.5273 69.7453 10.5959 69.7447 10.6646C69.7439 10.7734 69.7441 10.8822 69.7445 10.9911C69.7453 11.2612 69.7446 11.5314 69.7436 11.8016C69.7428 12.0303 69.7428 12.259 69.7438 12.4877C69.7439 12.5946 69.743 12.7014 69.742 12.8083C69.7422 12.8742 69.7425 12.9401 69.7428 13.0061C69.7422 13.0355 69.7417 13.0649 69.7411 13.0952C69.7439 13.3158 69.8115 13.471 69.9546 13.6403C70.0993 13.7567 70.2601 13.8284 70.4467 13.8284C70.664 13.7811 70.8256 13.7046 70.9601 13.5251C71.0587 13.3591 71.0722 13.2147 71.0808 13.025C71.0984 12.8394 71.1676 12.6918 71.3066 12.5657C71.5297 12.4011 71.7249 12.3769 71.9987 12.3989C72.2246 12.4625 72.3674 12.5796 72.4908 12.7751C72.5923 12.9983 72.5764 13.2249 72.5755 13.4649C72.5761 13.5571 72.5767 13.6492 72.5774 13.7414C72.578 13.8861 72.5783 14.0308 72.5781 14.1756C72.578 14.3157 72.579 14.4557 72.5803 14.5958C72.5797 14.6603 72.5797 14.6603 72.5791 14.7261C72.5823 14.9889 72.6182 15.1688 72.7936 15.3708C72.9462 15.5014 73.1264 15.5267 73.3236 15.5213C73.522 15.4621 73.6468 15.3795 73.7778 15.2204C73.8821 15.0189 73.9044 14.8637 73.9056 14.6396C73.9141 14.3918 73.931 14.198 74.1185 14.0165C74.3255 13.8414 74.5186 13.8494 74.7846 13.8497C74.9245 13.8675 75.0189 13.9096 75.1405 13.9789C75.1405 14.0037 75.1405 14.0286 75.1405 14.0541C75.1655 14.0541 75.1905 14.0541 75.2162 14.0541C75.3496 14.245 75.3724 14.3937 75.3723 14.6227C75.3724 14.6702 75.3725 14.7177 75.3725 14.7666C75.3724 14.8194 75.3723 14.8722 75.3722 14.925C75.3722 14.981 75.3723 15.037 75.3723 15.0929C75.3724 15.247 75.3722 15.4011 75.3721 15.5552C75.3719 15.7212 75.3719 15.8873 75.372 16.0534C75.372 16.3412 75.3719 16.629 75.3717 16.9168C75.3714 17.3329 75.3713 17.749 75.3712 18.1651C75.3711 18.8401 75.3709 19.5152 75.3705 20.1903C75.3702 20.8461 75.3699 21.502 75.3697 22.1578C75.3697 22.1982 75.3697 22.2387 75.3697 22.2803C75.3697 22.483 75.3696 22.6858 75.3696 22.8885C75.3692 24.5709 75.3685 26.2534 75.3677 27.9358C75.3427 27.9358 75.3177 27.9358 75.292 27.9358C75.292 27.9606 75.292 27.9854 75.292 28.011C75.2487 28.0315 75.2487 28.0315 75.2046 28.0525C74.9864 28.158 74.7824 28.2687 74.5831 28.406C74.455 28.49 74.3201 28.56 74.1849 28.6317C74.0853 28.6857 73.9883 28.7424 73.8914 28.801C73.7631 28.8785 73.6334 28.9516 73.501 29.022C73.3047 29.1272 73.1158 29.2423 72.9273 29.3606C72.786 29.4471 72.64 29.5244 72.4941 29.6028C72.3014 29.7075 72.1107 29.8157 71.92 29.9239C71.8524 29.9623 71.7847 30.0006 71.717 30.0388C71.4525 30.1887 71.1916 30.3432 70.933 30.503C70.5186 30.7572 70.5186 30.7573 70.371 30.7573C70.371 30.7821 70.371 30.8069 70.371 30.8325C70.3168 30.8641 70.2623 30.8954 70.2078 30.9265C70.1775 30.944 70.1472 30.9615 70.1159 30.9794C70.0303 31.0206 70.0303 31.0206 69.9168 31.0206C69.9168 31.0454 69.9168 31.0702 69.9168 31.0958C69.7038 31.2087 69.7038 31.2087 69.5761 31.2087C69.5761 31.2335 69.5761 31.2583 69.5761 31.2839C69.5386 31.2839 69.5011 31.2839 69.4625 31.2839C69.4625 31.3088 69.4625 31.3336 69.4625 31.3592C69.2496 31.472 69.2496 31.472 69.1219 31.472C69.1219 31.4969 69.1219 31.5217 69.1219 31.5473C69.0676 31.5789 69.0132 31.6102 68.9586 31.6413C68.9283 31.6588 68.898 31.6762 68.8668 31.6942C68.7812 31.7354 68.7812 31.7354 68.6676 31.7354C68.6676 31.7602 68.6676 31.785 68.6676 31.8106C68.6468 31.8217 68.6259 31.8327 68.6045 31.8441C68.0182 32.1585 67.4436 32.4942 66.8687 32.8284C66.6654 32.9465 66.4617 33.0637 66.2568 33.179C66.088 33.2742 65.9223 33.3732 65.7576 33.4753C65.6071 33.5682 65.4577 33.654 65.2975 33.7289C65.1713 33.7931 65.0537 33.8715 64.9351 33.9485C64.829 34.0001 64.7719 34.0089 64.6551 33.9925C64.5579 33.9445 64.5579 33.9445 64.4612 33.882C64.3593 33.817 64.2783 33.7674 64.1631 33.7292C64.1631 33.7044 64.1631 33.6795 64.1631 33.654C64.1373 33.6509 64.1115 33.6478 64.085 33.6446C63.8524 33.5855 63.6575 33.434 63.4629 33.2989C63.3603 33.2353 63.2549 33.1834 63.1465 33.1305C63.0089 33.0613 62.8765 32.9836 62.7436 32.9063C62.713 32.8886 62.6824 32.8709 62.6508 32.8526C62.5492 32.7938 62.4476 32.7348 62.3461 32.6758C62.2716 32.6326 62.197 32.5894 62.1225 32.5462C62.0069 32.4792 61.8912 32.4121 61.7756 32.3451C61.3239 32.0831 60.8716 31.8222 60.4179 31.5637C60.377 31.5404 60.3361 31.5171 60.2939 31.493C60.2092 31.4459 60.1244 31.4012 60.037 31.3592C60.037 31.3343 60.037 31.3095 60.037 31.2839C60.0054 31.2769 60.0054 31.2769 59.9732 31.2698C59.8773 31.2441 59.788 31.209 59.6964 31.1711C59.6964 31.1462 59.6964 31.1214 59.6964 31.0958C59.6747 31.0912 59.653 31.0866 59.6307 31.0819C59.5412 31.0572 59.4665 31.0229 59.3841 30.9806C59.3573 30.967 59.3306 30.9534 59.303 30.9393C59.2829 30.9289 59.2628 30.9185 59.2421 30.9077C59.2421 30.8829 59.2421 30.8581 59.2421 30.8325C59.2204 30.8279 59.1988 30.8233 59.1765 30.8185C59.0869 30.7938 59.0123 30.7596 58.9298 30.7173C58.9031 30.7037 58.8763 30.69 58.8488 30.676C58.8287 30.6656 58.8086 30.6551 58.7879 30.6444C58.7879 30.6196 58.7879 30.5947 58.7879 30.5692C58.7604 30.5651 58.7328 30.561 58.7045 30.5568C58.5911 30.5298 58.5169 30.4899 58.4188 30.4281C58.3025 30.3563 58.1865 30.2861 58.0663 30.2212C57.9068 30.1339 57.7499 30.0427 57.5931 29.9508C57.3207 29.791 57.0478 29.632 56.7745 29.4735C56.7354 29.4508 56.6962 29.428 56.6558 29.4046C56.4515 29.2863 56.2468 29.1687 56.0411 29.0526C55.8349 28.9361 55.6316 28.8154 55.4285 28.6936C55.2803 28.6049 55.1309 28.5192 54.9792 28.4366C54.8578 28.3702 54.7373 28.3024 54.6169 28.2344C54.5948 28.222 54.5728 28.2096 54.5501 28.1969C54.486 28.1607 54.4225 28.1235 54.359 28.0863C54.3195 28.0708 54.28 28.0554 54.2393 28.0395C54.1109 27.9155 54.1137 27.8797 54.1036 27.707C54.1025 27.6066 54.1027 27.5068 54.1038 27.4065C54.1036 27.3508 54.1034 27.2951 54.103 27.2395C54.1023 27.0862 54.103 26.9331 54.1039 26.7798C54.1046 26.6147 54.1041 26.4495 54.1037 26.2844C54.1031 25.9607 54.1037 25.6371 54.1048 25.3135C54.106 24.9367 54.106 24.56 54.1059 24.1832C54.1058 23.5111 54.1069 22.8389 54.1085 22.1667C54.1101 21.5142 54.1109 20.8617 54.1109 20.2093C54.1109 20.1691 54.1109 20.1289 54.1108 20.0875C54.1108 20.0474 54.1108 20.0073 54.1108 19.966C54.1108 19.2236 54.1114 18.4812 54.1124 17.7388C54.1128 17.4761 54.1129 17.2135 54.113 16.9508C54.113 16.6306 54.1135 16.3105 54.1146 15.9904C54.1151 15.827 54.1155 15.6636 54.1153 15.5002C54.1152 15.3507 54.1156 15.2012 54.1164 15.0516C54.1166 14.9975 54.1166 14.9434 54.1164 14.8892C54.1162 14.8157 54.1167 14.7422 54.1173 14.6686C54.1174 14.6073 54.1174 14.6073 54.1175 14.5448C54.1469 14.3106 54.2627 14.1684 54.4414 14.0262C54.6183 13.905 54.792 13.8853 55.0025 13.9037C55.2406 13.9812 55.3782 14.0958 55.523 14.2963C55.6209 14.4956 55.6148 14.7135 55.6188 14.9314C55.6195 14.9608 55.6202 14.9902 55.6209 15.0205C55.6239 15.1454 55.6265 15.2703 55.6291 15.3952C55.6311 15.4867 55.6332 15.5782 55.6354 15.6697C55.6359 15.6979 55.6364 15.726 55.637 15.755C55.64 15.8824 55.6443 16.0013 55.6839 16.1232C55.7089 16.1232 55.7339 16.1232 55.7596 16.1232C55.8211 16.175 55.8211 16.175 55.8732 16.2361C55.8732 16.2609 55.8732 16.2857 55.8732 16.3113C56.1155 16.39 56.3204 16.4328 56.5616 16.3231C56.7374 16.2264 56.8308 16.1226 56.8985 15.9323C56.9443 15.7645 56.9433 15.6009 56.9421 15.428C56.9422 15.3932 56.9423 15.3584 56.9424 15.3226C56.9425 15.2475 56.9425 15.1723 56.9423 15.0972C56.9421 14.9781 56.9424 14.859 56.9429 14.7399C56.9443 14.4014 56.945 14.0629 56.9446 13.7244C56.9444 13.517 56.9451 13.3096 56.9464 13.1022C56.9467 13.0234 56.9466 12.9446 56.9462 12.8658C56.9457 12.7554 56.9463 12.6451 56.9471 12.5347C56.9465 12.4863 56.9465 12.4863 56.9458 12.4369C56.9494 12.2054 57.0136 12.0524 57.1602 11.8722C57.3415 11.7087 57.5271 11.6752 57.7658 11.6841C58.0382 11.7325 58.1884 11.8464 58.3566 12.0636C58.4304 12.217 58.4253 12.3518 58.4247 12.5197C58.4251 12.553 58.4255 12.5864 58.426 12.6207C58.4273 12.727 58.4278 12.8333 58.4283 12.9397C58.4288 13.0795 58.4301 13.2193 58.4318 13.3591C58.4317 13.3909 58.4316 13.4226 58.4315 13.4554C58.4346 13.7064 58.4829 13.8817 58.6436 14.0824C58.7965 14.2039 58.9402 14.2892 59.1414 14.2725C59.2277 14.2545 59.3098 14.2317 59.3935 14.2046C59.431 14.1938 59.4685 14.1829 59.5071 14.1717C59.5901 14.1358 59.5901 14.1358 59.6135 14.0494C59.6159 14.0262 59.6182 14.0029 59.6206 13.9789C59.6456 13.9789 59.6706 13.9789 59.6964 13.9789C59.7318 13.8595 59.7391 13.7521 59.7394 13.6279C59.7396 13.5872 59.7398 13.5466 59.7401 13.5047C59.7401 13.4602 59.7401 13.4158 59.7402 13.37C59.7404 13.3231 59.7406 13.2762 59.7408 13.2278C59.7412 13.1258 59.7415 13.0238 59.7417 12.9218C59.7422 12.7604 59.7429 12.599 59.7438 12.4375C59.7461 11.9785 59.7481 11.5195 59.7494 11.0605C59.7501 10.8069 59.7512 10.5533 59.7527 10.2998C59.7535 10.1657 59.7541 10.0316 59.7542 9.89749C59.7543 9.74782 59.7553 9.59816 59.7563 9.44849C59.7561 9.3822 59.7561 9.3822 59.7559 9.31457C59.7589 9.03032 59.7988 8.85493 59.9471 8.61106C60.1069 8.45644 60.2911 8.38589 60.5102 8.35478C60.7365 8.3869 60.9409 8.46029 61.0946 8.63457C61.2359 8.84318 61.2592 9.00984 61.2574 9.25836C61.2575 9.29019 61.2576 9.32202 61.2576 9.35482C61.2578 9.42377 61.2577 9.49272 61.2576 9.56167C61.2574 9.67096 61.2577 9.78025 61.2582 9.88955C61.2596 10.2002 61.2603 10.5109 61.2599 10.8216C61.2597 11.0119 61.2604 11.2021 61.2616 11.3923C61.2619 11.4646 61.2619 11.5369 61.2615 11.6092C61.2609 11.7106 61.2616 11.8119 61.2624 11.9133C61.262 11.9429 61.2615 11.9725 61.2611 12.003C61.2648 12.2264 61.3365 12.3747 61.4755 12.5494C61.6347 12.6895 61.8366 12.7053 62.0433 12.6998C62.2168 12.6603 62.3486 12.5745 62.4597 12.4365C62.5566 12.2711 62.5874 12.1516 62.5878 11.9608C62.5882 11.9119 62.5885 11.8629 62.5889 11.8124C62.5889 11.7866 62.5888 11.7607 62.5888 11.734C62.5886 11.6524 62.5891 11.5708 62.5898 11.4891C62.5912 11.3159 62.5917 11.1426 62.5921 10.9693C62.5926 10.7684 62.5934 10.5676 62.5952 10.3667C62.5957 10.2865 62.5955 10.2064 62.5953 10.1262C62.5957 10.0773 62.5961 10.0283 62.5965 9.97786C62.5966 9.93493 62.5967 9.89201 62.5967 9.84778C62.6206 9.64775 62.7022 9.50281 62.8595 9.37756C62.8822 9.35908 62.9049 9.34061 62.9282 9.32157C63.0584 9.22588 63.1605 9.23145 63.3208 9.22943C63.3667 9.22846 63.4126 9.22749 63.4598 9.22649C63.6057 9.23979 63.6968 9.27894 63.8224 9.3517C63.8224 9.37653 63.8224 9.40136 63.8224 9.42694C63.8598 9.43935 63.8973 9.45177 63.9359 9.46456C64.146 9.80816 64.1068 10.2276 64.1031 10.6138C64.086 10.9855 64.086 10.9855 64.2135 11.3228C64.379 11.4834 64.5142 11.5777 64.7498 11.5901C64.929 11.5828 65.0368 11.517 65.1851 11.4208C65.2101 11.4208 65.2351 11.4208 65.2608 11.4208C65.2867 11.3583 65.3118 11.2956 65.3365 11.2327C65.3563 11.1829 65.3563 11.1829 65.3765 11.1321C65.418 10.9868 65.4225 10.8525 65.4213 10.7029C65.4214 10.6733 65.4214 10.6437 65.4215 10.6131C65.4216 10.5491 65.4216 10.485 65.4214 10.421C65.4212 10.3194 65.4216 10.2179 65.4221 10.1163C65.4235 9.8277 65.4242 9.53907 65.4238 9.25043C65.4236 9.07356 65.4243 8.89671 65.4255 8.71985C65.4258 8.65269 65.4258 8.58553 65.4254 8.51837C65.4216 7.86672 65.4216 7.86672 65.6393 7.6212C65.8939 7.40588 66.2731 7.39616 66.5715 7.5342ZM59.7721 17.929C59.7721 20.5112 59.7721 23.0934 59.7721 25.7538C60.8588 25.7538 61.9456 25.7538 63.0653 25.7538C63.0653 24.9221 63.0653 24.0903 63.0653 23.2333C64.1771 23.2333 65.2888 23.2333 66.4343 23.2333C66.4343 24.0651 66.4343 24.8969 66.4343 25.7538C67.521 25.7538 68.6078 25.7538 69.7275 25.7538C69.7275 23.1716 69.7275 20.5894 69.7275 17.929C68.6407 17.929 67.554 17.929 66.4343 17.929C66.4343 18.8104 66.4343 19.6918 66.4343 20.6C65.3225 20.6 64.2108 20.6 63.0653 20.6C63.0653 19.7185 63.0653 18.8371 63.0653 17.929C61.9785 17.929 60.8918 17.929 59.7721 17.929Z" fill="#585978"/>
<path d="M63.6051 4.67503C63.8237 4.77476 63.9656 4.90705 64.0538 5.13406C64.11 5.34442 64.0989 5.5626 64.0987 5.77863C64.0989 5.8258 64.099 5.87297 64.0992 5.92156C64.0994 6.02114 64.0995 6.1207 64.0993 6.22027C64.0991 6.32173 64.0993 6.42318 64.1 6.52464C64.101 6.67177 64.1011 6.81888 64.1011 6.966C64.1014 7.01096 64.1018 7.05592 64.1021 7.10224C64.1007 7.35459 64.0975 7.61967 63.9737 7.84698C63.9238 7.87317 63.8734 7.89834 63.8223 7.92222C63.8098 7.95946 63.7973 7.9967 63.7845 8.03508C63.5867 8.15959 63.3433 8.16444 63.1173 8.12912C62.9259 8.08014 62.8012 7.96657 62.6867 7.80936C62.6151 7.6618 62.6013 7.54273 62.6006 7.37962C62.6003 7.33152 62.5999 7.28343 62.5995 7.23388C62.5995 7.18167 62.5996 7.12946 62.5996 7.07724C62.5995 7.02332 62.5993 6.9694 62.5991 6.91547C62.5989 6.80258 62.5989 6.68969 62.5991 6.5768C62.5993 6.43264 62.5987 6.2885 62.5978 6.14434C62.5972 6.03299 62.5972 5.92165 62.5973 5.8103C62.5973 5.75718 62.5971 5.70406 62.5967 5.65093C62.5935 5.14017 62.5935 5.14017 62.7246 4.91265C62.7496 4.91265 62.7745 4.91265 62.8003 4.91265C62.8003 4.88782 62.8003 4.86299 62.8003 4.83741C63.0739 4.68133 63.2824 4.5781 63.6051 4.67503Z" fill="#585978"/>
<path d="M66.4843 2.83485C66.6105 2.90047 66.6931 2.97057 66.7372 3.10671C66.7621 3.10671 66.7871 3.10671 66.8129 3.10671C66.8948 3.23914 66.8987 3.34698 66.9002 3.50087C66.9008 3.55035 66.9014 3.59983 66.902 3.65081C66.9022 3.70476 66.9024 3.75872 66.9026 3.81267C66.903 3.86824 66.9033 3.92382 66.9037 3.97939C66.9043 4.09589 66.9046 4.21239 66.9047 4.32889C66.9049 4.47757 66.9063 4.62621 66.908 4.77488C66.9092 4.88972 66.9094 5.00454 66.9095 5.11938C66.9096 5.17415 66.9101 5.22893 66.9109 5.28369C66.9184 5.84718 66.9184 5.84718 66.6993 6.07866C66.4937 6.26493 66.299 6.29861 66.0228 6.28748C65.7895 6.24666 65.6635 6.12093 65.5231 5.93977C65.4403 5.7986 65.431 5.7204 65.4305 5.55845C65.4303 5.53383 65.43 5.50921 65.4297 5.48384C65.4291 5.40309 65.4295 5.32238 65.43 5.24163C65.4299 5.18513 65.4298 5.12864 65.4296 5.07215C65.4294 4.95401 65.4297 4.83588 65.4304 4.71774C65.4313 4.5667 65.4308 4.41569 65.4299 4.26465C65.4293 4.14808 65.4295 4.03151 65.4299 3.91493C65.43 3.85926 65.4299 3.80359 65.4295 3.74791C65.4291 3.66994 65.4297 3.59203 65.4305 3.51406C65.4307 3.4698 65.4308 3.42554 65.4309 3.37993C65.462 3.18145 65.5789 3.03232 65.7317 2.90451C65.9516 2.74899 66.2332 2.75168 66.4843 2.83485Z" fill="#585978"/>
<path d="M69.3561 7.30139C69.3912 7.32001 69.4263 7.33863 69.4625 7.35782C69.4625 7.38265 69.4625 7.40748 69.4625 7.43306C69.5 7.44547 69.5375 7.45789 69.5761 7.47068C69.7135 7.64555 69.7523 7.83771 69.7419 8.0554C69.7081 8.27294 69.6207 8.42679 69.4436 8.55929C69.251 8.6876 69.0449 8.69539 68.819 8.6745C68.5727 8.59698 68.4311 8.47236 68.2891 8.26069C68.2416 8.04127 68.2256 7.82403 68.3185 7.61572C68.5532 7.26178 68.9591 7.13034 69.3561 7.30139Z" fill="#585978"/>
<path d="M63.6875 2.06047C63.9196 2.22361 64.0335 2.37838 64.0873 2.65533C64.0805 2.8524 64.0265 3.00895 63.9359 3.182C63.8984 3.19442 63.861 3.20683 63.8224 3.21962C63.8099 3.25687 63.7974 3.29411 63.7845 3.33248C63.5853 3.47315 63.3758 3.47112 63.141 3.44534C63.0132 3.39832 63.0132 3.39832 62.9139 3.33248C62.8635 3.2999 62.8635 3.2999 62.8121 3.26665C62.65 3.10984 62.6046 2.95138 62.5945 2.73292C62.6026 2.49175 62.6815 2.31791 62.8571 2.15217C63.1178 1.98376 63.3894 1.95812 63.6875 2.06047Z" fill="#585978"/>
</g>
</svg>
