<svg width="130" height="60" viewBox="0 0 130 60" fill="none" xmlns="http://www.w3.org/2000/svg">
<mask id="mask0_124_650" style="mask-type:alpha" maskUnits="userSpaceOnUse" x="0" y="0" width="130" height="60">
<rect width="130" height="60" fill="#585978"/>
</mask>
<g mask="url(#mask0_124_650)">
<path d="M107.188 26.5973H108.712C108.891 26.5973 109.026 26.4629 109.026 26.2836V24.8942C109.026 24.7149 108.891 24.5804 108.712 24.5804H107.188C107.009 24.5804 106.874 24.7149 106.874 24.8942V26.2836C106.874 26.4629 107.009 26.5973 107.188 26.5973Z" fill="#585978"/>
<path d="M107.233 36.5916H108.667C108.802 36.5916 108.981 36.4571 108.981 36.2779V28.0762C108.981 27.8969 108.846 27.7625 108.667 27.7625H107.233C107.054 27.7625 106.919 27.8969 106.919 28.0762V36.2779C106.919 36.4571 107.054 36.5916 107.233 36.5916Z" fill="#585978"/>
<path fill-rule="evenodd" clip-rule="evenodd" d="M67.793 36.5918H69.4513C69.6306 36.5918 69.7651 36.5021 69.6754 36.3229V36.2332L67.1208 26.418C66.7175 24.9391 65.5969 24.8046 64.9247 24.8046C64.2524 24.8046 63.0872 24.9391 62.7286 26.418L60.174 36.2332V36.3229C60.174 36.5021 60.3084 36.5918 60.4428 36.5918H62.1012C62.2805 36.5918 62.37 36.4573 62.4148 36.3229L63.132 33.3201H66.7622L67.4793 36.3229C67.5242 36.4573 67.6586 36.5918 67.793 36.5918ZM64.9695 26.6421C65.1488 26.6421 65.1936 26.7318 65.2384 26.9111L66.3589 31.5721H63.5801L64.7006 26.9111C64.7454 26.687 64.7902 26.6421 64.9695 26.6421Z" fill="#585978"/>
<path d="M57.1263 36.5917H59.2327C59.412 36.5917 59.4569 36.5469 59.5017 36.4572C59.5017 36.4296 59.4846 36.4018 59.4609 36.3635C59.4463 36.3399 59.4292 36.3121 59.412 36.2779L55.3784 30.586L59.412 25.3871C59.4569 25.2975 59.5017 25.2078 59.5017 25.1183C59.5017 25.0285 59.412 24.939 59.1879 24.939H57.3952C57.2159 24.939 57.1263 24.9838 57.0368 25.0735L53.1823 30.2275V25.2526C53.1823 25.0735 53.0479 24.939 52.8686 24.939H51.3C51.1207 24.939 50.9862 25.0735 50.9862 25.2526V36.2779C50.9862 36.4572 51.1207 36.5917 51.3 36.5917H52.8686C53.0479 36.5917 53.1823 36.4572 53.1823 36.2779V31.079L56.7678 36.4124C56.8575 36.5469 56.9471 36.5917 57.1263 36.5917Z" fill="#585978"/>
<path d="M82.4487 36.4572C81.642 36.6365 80.6559 36.7262 79.0425 36.7262C77.3395 36.7262 74.8296 35.6057 74.8296 31.9306V29.6897C74.8296 25.9697 77.205 24.8494 79.0873 24.8494C80.6112 24.8494 81.9557 25.0285 82.4487 25.1182C82.6728 25.163 82.7625 25.2527 82.7625 25.4319V26.4628C82.7625 26.6869 82.7175 26.7765 82.4487 26.7765H82.4039C82.2974 26.7699 82.183 26.7622 82.0603 26.7539C81.3574 26.707 80.3848 26.6421 79.0873 26.6421C78.0565 26.6421 77.0257 27.3591 77.0257 29.6V31.8409C77.0257 34.0819 78.1013 34.7989 79.0425 34.7989C79.6249 34.7989 80.1182 34.7989 80.6112 34.7541V30.7653C80.6112 30.586 80.7457 30.4515 80.9248 30.4515H82.4935C82.6728 30.4515 82.8073 30.586 82.8073 30.7653V36.0538C82.7625 36.2779 82.6728 36.4124 82.4487 36.4572Z" fill="#585978"/>
<path fill-rule="evenodd" clip-rule="evenodd" d="M89.8437 36.5917H91.1882C91.3675 36.5917 91.502 36.4573 91.4572 36.3228V30.6757C91.4572 28.6589 90.2471 27.6729 88.0062 27.6729C86.9305 27.6729 86.0342 27.8074 85.4067 27.9418C85.1826 27.9866 85.0929 28.0763 85.0929 28.2556V29.2416C85.0929 29.4656 85.2274 29.5104 85.3618 29.5104H85.4515C85.9445 29.4209 87.0202 29.3759 88.0062 29.3759C88.9473 29.3759 89.3954 29.6 89.3954 30.6309V31.3032H88.4095C85.7204 31.3032 84.6 32.2444 84.6 34.0371V34.0819C84.6 36.1883 86.0342 36.6814 87.3338 36.6814C88.051 36.6814 88.8129 36.4573 89.5299 36.009V36.278C89.5299 36.4573 89.6644 36.5917 89.8437 36.5917ZM88.4543 32.7373H89.4404V34.6646C88.9921 34.9334 88.4095 35.1127 87.8269 35.1127C87.065 35.1127 86.7064 34.8886 86.7064 34.1267V34.0819C86.7064 33.1855 87.0202 32.7373 88.4543 32.7373Z" fill="#585978"/>
<path d="M104.499 36.5917H103.065C102.886 36.5917 102.751 36.4572 102.751 36.2779V30.9446C102.751 29.7345 102.482 29.4207 101.631 29.4207C101.317 29.4207 100.735 29.5104 100.152 29.8241C100.197 30.1827 100.197 30.5412 100.197 30.9446V36.2779C100.197 36.4572 100.062 36.5917 99.883 36.5917H98.4487C98.2696 36.5917 98.1351 36.4572 98.1351 36.2779V30.9446C98.1351 29.7345 97.911 29.4207 97.0595 29.4207C96.7457 29.4207 96.2528 29.6 95.6252 29.9586V36.2779C95.6252 36.4572 95.4908 36.5917 95.3115 36.5917H93.8774C93.6981 36.5917 93.5636 36.4572 93.5636 36.2779V28.0763C93.5636 27.897 93.6981 27.7625 93.8774 27.7625H95.2218C95.4011 27.7625 95.5356 27.897 95.5356 28.0763V28.3899C96.2079 27.9866 96.8353 27.628 97.7765 27.628C98.6729 27.628 99.2555 27.897 99.614 28.3451C100.421 27.897 101.138 27.628 102.214 27.628C104.365 27.628 104.813 29.1071 104.813 30.9446V36.2779C104.813 36.4572 104.678 36.5917 104.499 36.5917Z" fill="#585978"/>
<path d="M117.99 36.5917H116.555C116.376 36.5917 116.242 36.4573 116.242 36.278V31.1687C116.242 29.8242 116.107 29.4209 114.897 29.4209C114.359 29.4209 113.777 29.6449 113.104 30.0034V36.3228C113.104 36.5021 112.97 36.6365 112.791 36.6365H111.356C111.177 36.6365 111.043 36.5021 111.043 36.3228V28.1211C111.043 27.9418 111.177 27.8073 111.356 27.8073H112.701C112.88 27.8073 113.015 27.9418 113.015 28.1211V28.4348C113.911 27.8522 114.539 27.6729 115.569 27.6729C117.81 27.6729 118.303 29.1967 118.303 31.1687V36.278C118.303 36.4573 118.169 36.5917 117.99 36.5917Z" fill="#585978"/>
<path fill-rule="evenodd" clip-rule="evenodd" d="M127.267 29.4207L127.805 29.1966C127.984 29.107 128.029 29.0622 127.984 28.838V28.1658C127.984 27.9417 127.805 27.7625 127.58 27.7625H123.905C121.216 27.7625 120.186 29.0622 120.186 30.6308V30.8101C120.186 31.6168 120.32 32.1546 120.813 32.6476C120.41 32.9166 120.186 33.4095 120.186 33.9026C120.186 34.4403 120.454 35.023 120.903 35.3368C120.41 35.8297 120.096 36.4571 120.096 37.0846V37.2191C120.096 38.8773 121.44 39.8185 123.995 39.8185C126.684 39.8185 127.849 38.967 127.849 37.3536V37.2639C127.849 35.6056 126.505 35.2471 124.354 34.7541L122.516 34.306C122.157 34.2163 121.978 34.0819 121.978 33.7681C121.978 33.6336 122.068 33.4992 122.247 33.3647C122.561 33.4992 123.099 33.6336 123.95 33.6336C126.326 33.6336 127.67 32.7373 127.67 30.7653V30.6757C127.67 30.1378 127.536 29.7793 127.267 29.4207ZM123.95 36.278C125.564 36.6813 125.788 36.8605 125.788 37.2191H125.833V37.3536C125.833 37.9362 125.564 38.2499 124.04 38.2499C122.561 38.2499 122.157 37.8465 122.157 37.2191V37.0846C122.157 36.5269 122.322 36.2977 122.532 36.0039C122.542 35.9908 122.551 35.9776 122.561 35.9642L123.95 36.278ZM123.95 29.3311C125.295 29.3311 125.609 29.9138 125.609 30.6757V30.8101C125.609 31.6168 125.25 32.0651 123.95 32.0651C122.471 32.0651 122.247 31.3927 122.247 30.8101V30.6757C122.247 29.9138 122.606 29.3311 123.95 29.3311Z" fill="#585978"/>
<path fill-rule="evenodd" clip-rule="evenodd" d="M38.3923 16.9164C40.4987 15.8408 40.3643 15.0789 38.2578 14.4514L21.0477 9.96964C19.1653 9.43182 17.9552 9.43182 14.9524 10.9108L7.10926 14.3618C4.24091 15.6167 2.67227 16.782 4.77872 17.4095L22.5715 22.7877C24.678 23.4151 27.5015 22.5636 29.3839 21.5775L38.3923 16.9164ZM11.86 17.3198C9.88798 17.3198 8.27454 16.6027 8.27454 15.7512C8.27454 14.8548 9.88798 14.1826 11.86 14.1826C13.832 14.1826 15.4455 14.8996 15.4455 15.7512C15.4455 16.6027 13.832 17.3198 11.86 17.3198ZM18.3138 15.7512C18.3138 16.6027 19.9272 17.3198 21.8993 17.3198C23.8713 17.3198 25.4847 16.6027 25.4847 15.7512C25.4847 14.8996 23.8713 14.1826 21.8993 14.1826C19.9272 14.1826 18.3138 14.8548 18.3138 15.7512ZM31.9385 17.275C30.0113 17.275 28.4428 16.6027 28.4428 15.7512C28.4428 14.8996 30.0113 14.2274 31.9385 14.2274C33.8656 14.2274 35.4343 14.8996 35.4343 15.7512C35.4343 16.6027 33.8656 17.275 31.9385 17.275Z" fill="#585978"/>
<path fill-rule="evenodd" clip-rule="evenodd" d="M26.157 47.4375C26.157 49.5441 24.4539 50.7989 22.3474 50.2163L5.89918 44.2554C3.79272 43.6728 2.94118 41.3423 2.94118 39.2358L2 20.95C2 18.8436 2.85155 17.8128 4.95799 18.3954L22.3474 23.8632C24.4539 24.4459 26.1122 26.2834 26.1122 28.3898L26.157 47.4375ZM17.7949 36.5596C17.6492 36.2813 17.5155 36.0257 17.4175 35.8296C17.1485 35.2919 17.1037 34.5747 17.3726 34.2162C17.6416 33.8577 18.1793 33.1854 18.6724 32.6027L21.7648 28.8829C22.2578 28.3002 22.0337 27.6728 21.3614 27.4487L17.7311 26.2834C17.0141 26.0593 16.4315 25.9248 16.1625 26.3282C15.9437 26.62 15.7777 26.8722 15.5999 27.1419C15.4502 27.3696 15.292 27.6098 15.0869 27.8969L14.6387 28.5243C14.3325 28.9225 13.9216 29.5088 13.5492 30.0405C13.3767 30.2868 13.2119 30.5219 13.0701 30.7204L12.2185 31.8857C11.7704 32.4683 11.6807 33.4992 12.0393 34.1714L16.6555 43.628C17.0141 44.4347 17.4175 44.9278 18.4931 45.2862L21.8545 46.4963C22.5715 46.7205 22.8405 46.4067 22.5267 45.7345L18.5379 38.0257C18.3386 37.5987 18.0486 37.0447 17.7949 36.5596ZM11.1429 34.2162L11.5014 41.4319C11.5014 42.3998 10.6974 42.3782 10.348 42.3689C10.2768 42.3669 10.2245 42.3655 10.2017 42.3731C9.70528 42.1745 9.09886 41.9623 8.49667 41.7514C8.01174 41.5817 7.52902 41.4126 7.10926 41.2526C6.2129 40.8045 6.03362 39.9529 6.03362 39.7737V39.6841C5.93626 37.2173 5.65086 31.6952 5.43274 27.4748L5.43268 27.4735C5.34963 25.8666 5.27633 24.4486 5.2269 23.4599C5.2269 23.4599 5.2269 22.4291 6.48181 22.6532C7.05821 22.8286 7.69068 23.0461 8.30866 23.2586C8.79585 23.426 9.27407 23.5904 9.70871 23.7287C9.70871 23.7287 10.7844 24.3562 10.9188 25.2526L11.1429 34.2162Z" fill="#585978"/>
<path d="M35.2999 32.7373L34.2242 33.4992C34.0449 33.6337 33.9105 33.544 33.9553 33.3199L34.2242 31.8858C34.2302 31.856 34.2369 31.8232 34.2442 31.7879C34.2913 31.5577 34.3587 31.2286 34.3587 31.0343L34.8516 28.2555C34.8966 28.0314 34.9413 28.0314 34.9861 28.2555L35.5688 32.0651C35.6136 32.2891 35.4791 32.6028 35.2999 32.7373Z" fill="#585978"/>
<path fill-rule="evenodd" clip-rule="evenodd" d="M41.3504 35.8298C41.3504 38.0258 41.2607 39.9978 39.6472 41.5217L30.0113 49.3201C27.8152 50.4853 27.0982 49.0511 27.0982 46.855L27.4119 28.3451C27.4119 26.149 27.9945 24.0426 30.1906 22.8773L40.1403 17.3647C41.8433 16.1994 41.8433 17.0062 41.8433 19.2471L41.3504 35.8298ZM39.1543 37.0398C39.1543 36.995 39.1543 36.9502 39.1095 36.9054L37.3615 27.7625C37.3615 27.6953 37.3504 27.6393 37.3392 27.5832C37.328 27.5272 37.3168 27.4712 37.3168 27.404C37.2944 27.2695 37.2718 27.1238 37.2494 26.9783C37.2271 26.8326 37.2047 26.6869 37.1823 26.5524C37.1575 26.3539 37.1189 26.1552 37.0817 25.9644C37.052 25.8105 37.023 25.6615 37.003 25.5216C36.9582 25.2079 36.9134 24.8941 36.8237 24.5805L36.6892 23.9081C36.6892 23.8185 36.6893 23.7288 36.5996 23.6393C36.4203 23.4152 36.0618 23.3255 35.7929 23.3704C35.7403 23.3704 35.6879 23.3857 35.6444 23.3984C35.6136 23.4074 35.5874 23.4152 35.5688 23.4152C35.5464 23.4152 35.5128 23.4376 35.4792 23.46C35.4455 23.4824 35.4119 23.5048 35.3895 23.5048C35.1655 23.6393 34.9414 23.7738 34.7173 23.8633L34.4483 23.9978C33.6416 24.4908 33.4175 25.3872 33.4175 25.3872C33.3651 25.702 33.2973 26.0476 33.241 26.334C33.2013 26.5366 33.1672 26.7099 33.1486 26.8214L32.8349 28.5244L29.832 44.0762L29.608 45.0623V45.1072C29.5632 45.2863 29.5184 45.7794 29.7872 45.869C29.984 45.9084 30.1116 45.8097 30.261 45.694C30.2818 45.6779 30.3031 45.6614 30.3251 45.6449C30.3806 45.6033 30.4317 45.5617 30.4814 45.5214C30.5919 45.4315 30.6944 45.3483 30.818 45.2865C30.8784 45.2463 30.9656 45.1791 31.0881 45.0848C31.2387 44.9689 31.4426 44.812 31.7145 44.6141C32.1626 44.2555 32.2522 43.7178 32.2522 43.7178C32.566 41.7458 32.8798 39.8635 33.1934 38.2051L36.1067 36.0539C36.3755 37.5777 36.5996 38.9222 36.7789 40.1323C36.7789 40.1323 36.8237 40.4909 37.2718 40.2668C37.5108 40.0875 37.7896 39.8686 38.0684 39.6494C38.2078 39.5399 38.3476 39.4302 38.4819 39.3256C38.5118 39.3023 38.541 39.2798 38.5695 39.2579C38.9247 38.9836 39.1675 38.796 39.3336 38.3396C39.3784 37.981 39.2439 37.3984 39.1543 37.0398Z" fill="#585978"/>
</g>
</svg>
