<svg width="130" height="60" viewBox="0 0 130 60" fill="none" xmlns="http://www.w3.org/2000/svg">
<mask id="mask0_124_243" style="mask-type:alpha" maskUnits="userSpaceOnUse" x="0" y="0" width="130" height="60">
<rect width="130" height="60" fill="#D9D9D9"/>
</mask>
<g mask="url(#mask0_124_243)">
<path d="M17.5636 14C8.95217 14 2 20.9576 2 29.5709C2 31.1007 2.23104 32.6306 2.69312 34.0766C2.98717 33.6784 3.26021 33.2802 3.51225 32.8401C4.60444 31.2474 5.65462 29.6547 6.70479 28.0201L7.48193 26.7836C7.73397 26.3854 7.98601 25.9663 8.21705 25.5472C8.72113 24.7299 9.22522 23.8916 9.66629 23.0743C9.89733 22.6551 10.1284 22.257 10.3804 21.8169C10.6325 21.3977 10.8425 20.9996 11.0735 20.5595C11.3046 20.1194 11.5356 19.7002 11.7246 19.3021L12.3547 18.0237L12.4178 17.9399C12.7538 17.2483 13.594 16.9759 14.3081 17.2902C14.8122 17.5836 15.1272 18.1075 15.1062 18.7153C15.1062 19.4488 14.9592 20.2242 14.8962 20.9576C14.8332 21.6911 14.8122 22.4665 14.7492 23.2419C14.6861 24.7508 14.6651 26.3016 14.6651 27.8105C14.6651 29.3194 14.7492 30.8283 14.8962 32.2952C14.9802 33.0078 15.1062 33.7203 15.2322 34.4328C15.3373 35.0615 15.5473 35.6902 15.8413 36.2561C15.9254 36.4237 16.0514 36.5914 16.1774 36.7381C16.2614 36.8009 16.1984 36.759 16.2614 36.759C16.3244 36.759 16.2824 36.759 16.3244 36.759L16.3874 36.7381H16.4084L16.4924 36.7171C16.5135 36.6962 16.5765 36.6542 16.5975 36.6333C16.8285 36.4656 17.0175 36.2561 17.2276 36.0255C17.6896 35.4807 18.1097 34.9358 18.4878 34.349C18.8869 33.7413 19.2649 33.0916 19.622 32.4419C20.3571 31.1217 21.0502 29.7804 21.7013 28.4182C22.0164 27.7267 22.3524 27.0561 22.6675 26.3435C22.9825 25.6519 23.2976 24.9394 23.5916 24.2688C23.8857 23.5563 24.7048 23.221 25.419 23.4934C25.881 23.6611 26.1961 24.0592 26.2801 24.5412C26.2801 24.7089 26.3011 24.9394 26.3431 25.1699L26.4271 25.8196C26.4901 26.2387 26.5321 26.6788 26.6372 27.098C26.7842 27.9572 26.9522 28.8164 27.1833 29.6337C27.4143 30.451 27.6873 31.2893 28.0444 32.0857C28.3805 32.882 28.8215 33.6155 29.3676 34.3071C29.4726 34.4747 29.4516 34.7053 29.3046 34.8101C29.1576 34.9148 28.9686 34.9148 28.8425 34.8101C28.1284 34.1814 27.4983 33.4688 26.9522 32.6934C26.4061 31.918 25.944 31.1007 25.524 30.2624C25.2299 29.6966 25.0199 29.1308 24.7468 28.544C24.5788 28.8793 24.4318 29.2356 24.2638 29.5499C23.5706 30.954 22.8985 32.3372 22.1004 33.7413C21.7013 34.4747 21.3023 35.1663 20.8402 35.8579C20.3781 36.5704 19.874 37.262 19.3279 37.8907C19.0129 38.2679 18.6348 38.5823 18.2778 38.8966C18.1727 38.9804 18.0467 39.0643 17.8997 39.1271L17.6476 39.2738L17.5006 39.3367H17.4796L17.3956 39.3577H17.3326L17.2276 39.3786C17.1436 39.3996 17.0805 39.4415 16.9965 39.4415C16.8285 39.4624 16.6605 39.5044 16.4924 39.5253C16.1144 39.5463 15.7153 39.5044 15.3793 39.3786C15.0432 39.2529 14.7281 39.0643 14.4341 38.8337C14.014 38.4565 13.636 38.0164 13.3839 37.4925C12.9849 36.6962 12.6908 35.8369 12.5228 34.9567C12.3547 34.1604 12.2287 33.3221 12.1447 32.5258C11.9767 30.9331 11.9137 29.3613 11.8927 27.7686C11.8927 27.0351 11.8927 26.2597 11.8927 25.5262C11.5986 26.0711 11.3256 26.616 11.0315 27.1189C10.8005 27.5381 10.5694 27.9782 10.3174 28.3973L9.60328 29.6757C8.63712 31.3941 7.62895 33.0706 6.57877 34.7472C5.92766 35.8369 5.23455 36.9057 4.54143 37.9745C9.24622 45.1627 18.9079 47.1536 26.1121 42.4593C33.3163 37.765 35.3116 28.1248 30.6068 20.9367C27.7083 16.6406 22.8355 14 17.5636 14Z" fill="#585978"/>
<path d="M46.6333 35.1453V24.8136H46.3812L43.0627 35.1872H42.2435L38.925 24.8345H38.6729V35.1662H37.3077V23.7657H39.7441L42.6846 32.84L45.5621 23.7657H48.0195V35.2081H46.6333V35.1453Z" fill="#585978"/>
<path d="M50.0137 25.2328V23.7449H51.5049V25.2328H50.0137ZM50.0347 35.1453V26.3435H51.4839V35.1453H50.0347Z" fill="#585978"/>
<path d="M60.3272 32.2743C60.3272 33.9927 59.6761 35.2921 56.8196 35.2921C53.228 35.2921 53.018 33.2383 53.018 30.7235C53.018 28.2087 53.228 26.1549 56.8196 26.1549C59.6761 26.1549 60.3272 27.4752 60.3272 29.1727H58.962C58.962 27.7686 58.4789 27.098 56.8196 27.098C54.5933 27.098 54.4673 28.2925 54.4673 30.6816C54.4673 33.0706 54.5723 34.2652 56.8196 34.2652C58.4789 34.2652 58.962 33.5736 58.962 32.1905L60.3272 32.2743Z" fill="#585978"/>
<path d="M63.1622 27.2869C63.8553 26.8677 64.7374 26.2809 65.5566 26.26C65.7246 26.239 65.8926 26.239 66.0606 26.239C66.2917 26.239 66.4807 26.239 66.7538 26.26L66.6487 27.3078C66.4177 27.2869 66.2287 27.2869 66.0186 27.2869C65.8506 27.2869 65.6826 27.2869 65.4725 27.3078C64.6954 27.3288 63.8763 27.9156 63.2672 28.2509V35.1875H61.8179V26.3438H62.9521L63.1622 27.2869Z" fill="#585978"/>
<path d="M74.9244 30.7656C74.9244 33.2804 74.7144 35.3342 71.0598 35.3342C67.4052 35.3342 67.1951 33.2804 67.1951 30.7656C67.1951 28.2508 67.4052 26.197 71.0598 26.197C74.7144 26.197 74.9244 28.2508 74.9244 30.7656ZM68.6654 30.7656C68.6654 33.1547 68.7704 34.3492 71.0598 34.3492C73.3492 34.3492 73.4542 33.1756 73.4542 30.7656C73.4542 28.3556 73.3492 27.182 71.0598 27.182C68.7704 27.182 68.6654 28.3346 68.6654 30.7656Z" fill="#585978"/>
<path d="M77.5922 37.199C78.1382 37.2619 78.8524 37.2829 79.6505 37.2829C81.8769 37.2829 82.1709 36.6751 82.1919 34.3489C81.5408 34.7261 80.6167 35.1453 79.6715 35.1662C76.437 35.2291 76.2479 33.4897 76.2479 30.7443C76.2479 27.999 76.416 26.1758 79.5245 26.1758C80.5747 26.1758 81.5618 26.6578 82.3179 27.1398L82.465 26.3434H83.5992V34.1603C83.5992 37.3248 82.885 38.2888 79.9656 38.2888C79.1044 38.2888 78.2433 38.205 77.4241 38.0792L77.5922 37.199ZM82.1919 27.9571C81.5618 27.5589 80.7637 27.1608 79.9866 27.1608C77.8442 27.1608 77.6972 28.3553 77.6972 30.7443C77.6972 33.0915 77.8442 34.2022 79.9866 34.2022C80.7637 34.2022 81.5828 33.7831 82.1919 33.4687V27.9571Z" fill="#585978"/>
<path d="M91.5387 35.1453L91.3916 34.3489C90.6775 34.81 89.7324 35.3129 88.7032 35.3129C85.4686 35.3758 85.2796 33.5526 85.2796 30.7443C85.2796 27.9571 85.4476 26.1758 88.6612 26.1758C89.7114 26.1758 90.6565 26.6578 91.3706 27.0979L91.5177 26.3225H92.6518V35.1243H91.5387V35.1453ZM91.2446 27.9152C90.6355 27.5799 89.8164 27.1817 89.0392 27.1817C86.8969 27.1817 86.7499 28.3762 86.7499 30.7653C86.7499 33.1544 86.8969 34.3489 89.0392 34.3489C89.8164 34.3489 90.6145 33.9298 91.2446 33.5526V27.9152Z" fill="#585978"/>
<path d="M95.7382 27.1184C96.3893 26.7202 97.2715 26.2382 98.2167 26.1963C99.7079 26.1334 100.464 26.5316 100.842 27.1603C101.535 26.7411 102.438 26.2172 103.447 26.1963C106.471 26.1124 106.681 27.6423 106.681 29.7799V35.1448H105.232V29.8637C105.232 28.0405 105.127 27.1603 103.152 27.1603C102.438 27.1603 101.703 27.5794 101.094 27.9566C101.241 28.5853 101.304 29.235 101.262 29.9056V35.1867H100.002V29.8847C100.002 28.0614 99.8969 27.1812 97.9226 27.1812C97.2295 27.1812 96.4944 27.6004 95.9273 27.9147V35.1657H94.478V26.3639H95.6122L95.7382 27.1184Z" fill="#585978"/>
<path d="M108.467 25.2328V23.7449H109.958V25.2328H108.467ZM108.509 35.1453V26.3435H109.958V35.1453H108.509Z" fill="#585978"/>
<path d="M113.046 27.1189C113.76 26.7207 114.705 26.2387 115.734 26.1968C118.969 26.1129 119.158 27.6428 119.158 29.7804V35.1453H117.709V29.8642C117.709 28.041 117.562 27.1608 115.419 27.1608C114.642 27.1608 113.823 27.5799 113.214 27.9362V35.1872H111.765V26.3435H112.899L113.046 27.1189Z" fill="#585978"/>
<path d="M121.993 37.199C122.539 37.2619 123.253 37.2829 124.051 37.2829C126.278 37.2829 126.572 36.6751 126.593 34.3489C125.942 34.7261 125.018 35.1453 124.072 35.1662C120.838 35.2291 120.649 33.4897 120.649 30.7443C120.649 27.999 120.817 26.1758 123.925 26.1758C124.976 26.1758 125.963 26.6578 126.719 27.1398L126.866 26.3434H128V34.1603C128 37.3248 127.286 38.2888 124.366 38.2888C123.505 38.2888 122.644 38.205 121.825 38.0792L121.993 37.199ZM126.572 27.9571C125.942 27.5589 125.144 27.1608 124.366 27.1608C122.224 27.1608 122.077 28.3553 122.077 30.7443C122.077 33.0915 122.224 34.2022 124.366 34.2022C125.144 34.2022 125.963 33.7831 126.572 33.4687V27.9571Z" fill="#585978"/>
</g>
</svg>
