<svg width="130" height="60" viewBox="0 0 130 60" fill="none" xmlns="http://www.w3.org/2000/svg">
<mask id="mask0_124_146" style="mask-type:alpha" maskUnits="userSpaceOnUse" x="0" y="0" width="130" height="60">
<rect width="130" height="60" fill="#D9D9D9"/>
</mask>
<g mask="url(#mask0_124_146)">
<path d="M67.7369 9H66.535V50H67.7369V42.1113H82.9186V37.3347H71.2375V31.8343H81.2231V27.0219H71.2375V21.7011H82.9186V16.8887H67.7369V9Z" fill="#585978"/>
<path d="M20.4825 32.3567L16.1684 25.4844L10.6386 16.975L10.5837 16.8896H6V42.112H11.0864V26.6089L14.8796 32.6492L20.9806 42.112H25.6009V16.8896H20.4825V32.3567Z" fill="#585978"/>
<path d="M28.4614 42.112H45.261V37.3356H33.5797V31.835H43.5653V27.0226H33.5797V21.702H45.261V16.8896H28.4614V42.112Z" fill="#585978"/>
<path d="M47.3223 21.7379H53.1948V42.112H58.3131V21.7379H64.1491V16.8896H47.3223V21.7379Z" fill="#585978"/>
<path d="M99.9605 32.396L95.6464 25.5282L90.1166 17.0188L90.0618 16.9289H85.4778V42.1512H90.5598V26.6481L94.3531 32.6884L100.459 42.1512H105.079V16.9289H99.9605V32.396Z" fill="#585978"/>
<path d="M107.173 16.9289V21.7772H113.045V42.1512H118.163V21.7772H124V16.9289H107.173Z" fill="#585978"/>
</g>
</svg>
