<svg width="130" height="60" viewBox="0 0 130 60" fill="none" xmlns="http://www.w3.org/2000/svg">
<mask id="mask0_124_172" style="mask-type:alpha" maskUnits="userSpaceOnUse" x="0" y="0" width="130" height="60">
<rect width="130" height="60" fill="#D9D9D9"/>
</mask>
<g mask="url(#mask0_124_172)">
<path d="M58.8459 27.4593C58.4795 27.4593 58.1132 27.5295 57.775 27.6558C57.4228 27.7822 57.1128 27.9647 56.831 28.2033C56.5633 28.442 56.3379 28.7368 56.1688 29.0738C55.9997 29.4107 55.9152 29.8038 55.9152 30.2531C55.9152 30.6883 55.9997 31.0955 56.1688 31.4324C56.3379 31.7694 56.5492 32.0642 56.831 32.3029C57.0987 32.5415 57.4228 32.724 57.775 32.8504C58.1273 32.9767 58.4795 33.0469 58.8459 33.0469C59.2122 33.0469 59.5785 32.9767 59.9167 32.8504C60.2689 32.724 60.5789 32.5415 60.8607 32.3029C61.1284 32.0642 61.3539 31.7694 61.5229 31.4324C61.692 31.0955 61.7766 30.7024 61.7766 30.2531C61.7766 29.8179 61.692 29.4248 61.5229 29.0738C61.3539 28.7368 61.1284 28.442 60.8607 28.2033C60.593 27.9647 60.2689 27.7822 59.9167 27.6558C59.5785 27.5295 59.2122 27.4593 58.8459 27.4593ZM58.8459 34.6474C58.1836 34.6474 57.5496 34.5632 56.9578 34.4088C56.366 34.2403 55.8447 33.9735 55.3938 33.6085C54.957 33.2435 54.6048 32.7661 54.3371 32.2186C54.0835 31.657 53.9567 31.0112 53.9567 30.2671C53.9567 29.5231 54.0835 28.8632 54.3371 28.3016C54.5907 27.7401 54.943 27.2767 55.3938 26.9117C55.8306 26.5467 56.3519 26.2659 56.9437 26.0834C57.5355 25.9009 58.1695 25.8026 58.8318 25.8026C59.494 25.8026 60.128 25.9009 60.7198 26.0834C61.3116 26.2659 61.8329 26.5467 62.2697 26.9117C62.7065 27.2767 63.0728 27.7541 63.3264 28.3016C63.5801 28.8632 63.7069 29.5231 63.7069 30.2671C63.7069 31.0112 63.5801 31.6711 63.3264 32.2186C63.0728 32.7802 62.7206 33.2435 62.2697 33.6085C61.8329 33.9735 61.3116 34.2403 60.7057 34.4088C60.1421 34.5632 59.5081 34.6474 58.8459 34.6474Z" fill="#585978"/>
<path d="M77.7408 27.4593C77.3745 27.4593 77.0081 27.5295 76.67 27.6558C76.3177 27.7822 76.0078 27.9647 75.726 28.2033C75.4582 28.442 75.2328 28.7368 75.0637 29.0738C74.8946 29.4107 74.8101 29.8038 74.8101 30.2531C74.8101 30.7024 74.8946 31.0955 75.0637 31.4324C75.2328 31.7694 75.4442 32.0642 75.726 32.3029C75.9937 32.5415 76.3177 32.724 76.67 32.8504C77.0222 32.9767 77.3886 33.0469 77.7408 33.0469C78.1071 33.0469 78.4735 32.9767 78.8116 32.8504C79.1639 32.724 79.4739 32.5415 79.7557 32.3029C80.0234 32.0642 80.2488 31.7694 80.4179 31.4324C80.587 31.0955 80.6715 30.7024 80.6715 30.2531C80.6715 29.8038 80.587 29.4248 80.4179 29.0738C80.2488 28.7368 80.0234 28.442 79.7557 28.2033C79.488 27.9647 79.1639 27.7822 78.8116 27.6558C78.4735 27.5295 78.1071 27.4593 77.7408 27.4593ZM77.7408 34.6474C77.0786 34.6474 76.4445 34.5632 75.8528 34.4088C75.261 34.2403 74.7397 33.9735 74.2888 33.6085C73.852 33.2435 73.4997 32.7661 73.232 32.2186C72.9784 31.657 72.8375 31.0112 72.8375 30.2671C72.8375 29.5231 72.9643 28.8632 73.232 28.3016C73.4857 27.7401 73.8379 27.2767 74.2888 26.9117C74.7256 26.5467 75.2469 26.2659 75.8387 26.0834C76.4304 25.9009 77.0645 25.8026 77.7267 25.8026C78.3889 25.8026 79.023 25.9009 79.6148 26.0834C80.2065 26.2659 80.7279 26.5467 81.1647 26.9117C81.6014 27.2767 81.9678 27.7541 82.2214 28.3016C82.475 28.8632 82.6018 29.5231 82.6018 30.2671C82.6018 31.0112 82.475 31.6711 82.2214 32.2186C81.9678 32.7802 81.6155 33.2435 81.1647 33.6085C80.7279 33.9735 80.2065 34.2403 79.6007 34.4088C79.0512 34.5632 78.4171 34.6474 77.7408 34.6474Z" fill="#585978"/>
<path d="M50.632 35.6145L43.6576 27.5839V35.6145H41.5441V24.3408H43.7562L50.463 32.0625V24.3408H52.5765V35.6145H50.632Z" fill="#585978"/>
<path d="M69.2023 34.5768H67.3565L63.5804 25.9005H65.6798L68.2864 31.9374L70.879 25.9005H72.9783L69.2023 34.5768Z" fill="#585978"/>
<path d="M106.245 34.5768V27.5571H103.201V25.9005H111.247V27.5571H108.203V34.5768H106.245Z" fill="#585978"/>
<path d="M114.684 25.9005H112.698V34.5768H114.684V25.9005Z" fill="#585978"/>
<path d="M100.581 30.8142L99.3835 28.0204L98.1859 30.8142H100.581ZM102.202 34.5768L101.3 32.4709H97.4955L96.5937 34.5768H94.6353L98.4818 25.9005H100.313L104.16 34.5768H102.202Z" fill="#585978"/>
<path d="M122.575 35.6866C121.744 35.6866 120.927 35.5743 120.152 35.3497C119.377 35.125 118.687 34.76 118.095 34.2827C117.503 33.8053 117.024 33.2016 116.686 32.4856C116.334 31.7837 116.165 30.9273 116.165 29.9726C116.165 29.0319 116.334 28.1896 116.686 27.4736C117.024 26.7576 117.503 26.1398 118.095 25.6625C118.687 25.1851 119.377 24.8061 120.152 24.5674C120.927 24.3287 121.73 24.2024 122.575 24.2024C124.28 24.2024 125.858 24.764 126.887 25.1992C127 25.2553 127.69 25.5502 127.69 25.5502L126.619 27.3332L126.464 27.2349C125.408 26.6031 124.21 26.196 123.111 26.0696C122.914 26.0416 122.745 26.0415 122.575 26.0415H122.491H122.435C121.927 26.0556 121.42 26.1398 120.955 26.2943C120.448 26.4627 119.997 26.7154 119.617 27.0524C119.236 27.3753 118.926 27.7965 118.701 28.2598C118.475 28.7371 118.363 29.2846 118.363 29.9024C118.363 30.5201 118.475 31.0677 118.701 31.545C118.926 32.0223 119.236 32.4295 119.617 32.7524C119.997 33.0753 120.448 33.328 120.955 33.5105C121.462 33.679 122.012 33.7632 122.575 33.7632C124.393 33.7632 125.915 32.9349 126.873 32.2329L127.042 32.1206L128 33.7632L127.859 33.8615C126.662 34.6196 124.83 35.5603 122.928 35.6726C122.801 35.6726 122.688 35.6866 122.575 35.6866Z" fill="#585978"/>
<path d="M91.6194 25.9005L88.7873 31.0529L85.9412 25.9005H84.025V34.5768H85.758V29.1857L88.7873 34.6049L91.8167 29.1857V34.5768H93.5497V25.9005H91.6194Z" fill="#585978"/>
<path d="M32.2525 16.9964C31.2755 15.4901 29.3215 14.4346 26.2569 13.7788C23.9019 13.2664 20.9504 13 17.7006 13C14.4612 13 11.4994 13.2664 9.15462 13.7788C6.10027 14.4448 4.13603 15.4901 3.16933 16.9964C1.56503 19.4659 1.94553 23.0627 2.36718 27.2333C2.44945 28.0018 2.53172 28.7908 2.59343 29.5594C2.72712 31.0964 3.03564 34.1296 3.60126 37.05C4.42398 41.3026 5.3084 42.7987 5.90487 43.557C8.44502 46.7541 15.5821 47 17.7109 47C19.8397 47 26.9768 46.7541 29.5169 43.557C30.1134 42.7987 31.0081 41.3128 31.8205 37.05C32.3862 34.1194 32.6947 31.0964 32.8284 29.5594C32.8901 28.7908 32.9724 28.0018 33.0546 27.2333C33.4763 23.0627 33.8465 19.4557 32.2525 16.9964ZM31.872 27.1103C31.7897 27.8788 31.7074 28.6781 31.6457 29.4569C31.512 30.9735 31.2138 33.9554 30.6585 36.8348C29.8872 40.8415 29.1056 42.1736 28.5811 42.8294C26.3186 45.6884 19.1198 45.8318 17.7006 45.8318C16.2814 45.8318 9.08263 45.6884 6.82015 42.8294C6.29567 42.1736 5.51408 40.8312 4.74278 36.8348C4.18745 33.9554 3.88921 30.9837 3.75552 29.4569C3.68353 28.6781 3.61154 27.8788 3.52927 27.1103C3.11791 23.1549 2.76825 19.7426 4.14631 17.6215C4.94846 16.3918 6.66589 15.5003 9.40143 14.9162C11.6742 14.4244 14.5434 14.1682 17.7006 14.1682C20.8578 14.1682 23.727 14.4244 25.9998 14.9162C28.7353 15.5105 30.4528 16.3918 31.2549 17.6215C32.633 19.7529 32.2833 23.1652 31.872 27.1103ZM17.7109 15.8487C23.8093 15.8487 28.7559 16.8529 29.8563 18.5437C31.1418 20.5316 30.3602 24.9687 29.9797 29.3237C29.5992 33.6787 28.6839 40.0115 27.275 41.8047C26.0409 43.3623 21.6291 44.1615 17.7109 44.1615C13.803 44.1615 9.38086 43.352 8.14678 41.8047C6.72759 40.0217 5.81232 33.6787 5.44209 29.3237C5.07187 24.9687 4.28 20.5316 5.5655 18.5437C6.66589 16.8529 11.6125 15.8487 17.7109 15.8487ZM8.7124 21.8945C8.54786 21.9867 8.47587 22.2839 8.47587 22.2839L8.30104 23.0524C8.30104 23.0524 8.23934 23.2471 8.35246 23.4828C8.47587 23.7185 9.24717 23.862 9.24717 23.862C9.24717 23.862 10.5944 24.0669 11.1394 24.733C11.6845 25.399 11.4685 26.311 11.4685 26.311L9.9979 33.4943C9.9979 33.4943 9.85393 34.1911 9.4837 34.5292C9.12376 34.8571 8.52729 34.8776 8.52729 34.8776C8.52729 34.8776 8.17764 34.8879 7.95139 34.9801C7.75599 35.0621 7.69429 35.3797 7.69429 35.3797L7.60173 35.8511C7.60173 35.8511 7.55031 36.0458 7.66344 36.22C7.77656 36.3942 8.09536 36.4352 8.09536 36.4352L15.5307 36.4864C15.5307 36.4864 15.7569 36.4762 15.8803 36.3532C16.0038 36.2303 16.0346 35.9741 16.0346 35.9741L16.158 35.2978C16.158 35.2978 16.2094 35.0928 16.1066 34.9699C15.9832 34.8264 15.8804 34.8366 15.541 34.7547C15.1913 34.6727 14.9856 34.5702 14.6463 34.2936C14.2246 33.9451 14.3686 33.2791 14.3686 33.2791L15.0165 29.6823C15.0165 29.6823 15.0988 29.4159 15.2736 29.4262C15.5307 29.4364 15.613 29.6721 15.613 29.6721L19.1609 35.9946C19.1609 35.9946 19.2844 36.2098 19.4695 36.3532C19.6546 36.4967 20.0762 36.5069 20.0762 36.5069L26.0615 36.4557C26.0615 36.4557 26.3597 36.4659 26.5243 36.3327C26.7197 36.1688 26.7711 35.9126 26.7711 35.9126L26.8842 35.39C26.8842 35.39 26.9665 35.1441 26.8534 34.9084C26.7197 34.6317 26.2055 34.5702 25.6193 34.396C25.1874 34.2628 24.6217 33.9554 24.4263 33.6685C24.2927 33.4635 24.4263 33.0434 24.4263 33.0434L26.4214 24.8662C26.4214 24.8662 26.4831 24.528 26.8225 24.1796C27.131 23.862 27.9743 23.6878 27.9743 23.6878C27.9743 23.6878 28.1903 23.6468 28.324 23.5238C28.4165 23.4316 28.4577 23.2369 28.4577 23.2369L28.6839 22.3556C28.6839 22.3556 28.7456 22.1302 28.6119 21.9765C28.4988 21.8433 28.18 21.8433 28.18 21.8433H21.3412C21.3412 21.8433 21.1149 21.833 20.8989 22.0072C20.7035 22.1712 20.6727 22.3351 20.6727 22.3351L20.5081 23.0729C20.5081 23.0729 20.4567 23.2574 20.5184 23.4008C20.6007 23.5853 20.7858 23.5955 20.7858 23.5955L21.0738 23.6468C21.0738 23.6468 21.6085 23.7492 21.8862 24.0259C22.1639 24.3026 22.0302 25.0199 22.0302 25.0199L21.0326 29.7848L17.4127 22.909C17.4127 22.909 17.3098 22.5913 16.9087 22.2019C16.518 21.8125 15.9112 21.8433 15.9112 21.8433H9.15462C9.1649 21.792 8.87695 21.8023 8.7124 21.8945Z" fill="#585978"/>
</g>
</svg>
