<svg width="130" height="60" viewBox="0 0 130 60" fill="none" xmlns="http://www.w3.org/2000/svg">
<mask id="mask0_124_308" style="mask-type:alpha" maskUnits="userSpaceOnUse" x="0" y="0" width="130" height="60">
<rect width="130" height="60" fill="#585978"/>
</mask>
<g mask="url(#mask0_124_308)">
<path d="M27.0699 14H29.7721V16.7087H27.0699V14Z" fill="#585978"/>
<path d="M2 17.1102H4.70214V19.8189H2V17.1102Z" fill="#585978"/>
<path d="M7.80462 42.241H5.10248V44.9499H7.80462V42.241Z" fill="#585978"/>
<path d="M20.8149 35.9708H23.517V38.6794H20.8149V35.9708Z" fill="#585978"/>
<path d="M10.9571 14H8.25494V16.7087H10.9571V14Z" fill="#585978"/>
<path d="M7.85461 14H5.15247V16.7087H7.85461V14Z" fill="#585978"/>
<path d="M11.4075 16.7087H14.1096V14H11.4075V16.7087Z" fill="#585978"/>
<path d="M17.2621 14H14.5599V16.7087H17.2621V14Z" fill="#585978"/>
<path d="M20.3645 14H17.6624V16.7087H20.3645V14Z" fill="#585978"/>
<path d="M26.6195 14H23.9174V16.7087H26.6195V14Z" fill="#585978"/>
<path d="M5.10248 19.8688H7.80462V17.1601H5.10248V19.8688Z" fill="#585978"/>
<path d="M2 22.9789H4.70214V20.2702H2V22.9789Z" fill="#585978"/>
<path d="M5.10248 22.9789H7.80462V20.2702H5.10248V22.9789Z" fill="#585978"/>
<path d="M2 26.1391H4.70214V23.4304H2V26.1391Z" fill="#585978"/>
<path d="M5.10248 26.1391H7.80462V23.4304H5.10248V26.1391Z" fill="#585978"/>
<path d="M2 29.2994H4.70214V26.5906H2V29.2994Z" fill="#585978"/>
<path d="M5.10248 29.2994H7.80462V26.5906H5.10248V29.2994Z" fill="#585978"/>
<path d="M2 32.4093H4.70214V29.7006H2V32.4093Z" fill="#585978"/>
<path d="M5.10248 32.4093H7.80462V29.7006H5.10248V32.4093Z" fill="#585978"/>
<path d="M2 35.5695H4.70214V32.8608H2V35.5695Z" fill="#585978"/>
<path d="M5.10248 35.5695H7.80462V32.8608H5.10248V35.5695Z" fill="#585978"/>
<path d="M2 38.6794H4.70214V35.9708H2V38.6794Z" fill="#585978"/>
<path d="M5.10248 38.6794H7.80462V35.9708H5.10248V38.6794Z" fill="#585978"/>
<path d="M8.25494 35.5695H10.9571V32.8608H8.25494V35.5695Z" fill="#585978"/>
<path d="M8.25494 38.6794H10.9571V35.9708H8.25494V38.6794Z" fill="#585978"/>
<path d="M11.4075 35.5695H14.1096V32.8608H11.4075V35.5695Z" fill="#585978"/>
<path d="M11.4075 38.6794H14.1096V35.9708H11.4075V38.6794Z" fill="#585978"/>
<path d="M14.5099 35.5695H17.2121V32.8608H14.5099V35.5695Z" fill="#585978"/>
<path d="M14.5099 38.6794H17.2121V35.9708H14.5099V38.6794Z" fill="#585978"/>
<path d="M17.6624 35.5695H20.3645V32.8608H17.6624V35.5695Z" fill="#585978"/>
<path d="M17.6624 38.6794H20.3645V35.9708H17.6624V38.6794Z" fill="#585978"/>
<path d="M23.9174 35.5695H26.6195V32.8608H23.9174V35.5695Z" fill="#585978"/>
<path d="M2 41.8398H4.70214V39.1309H2V41.8398Z" fill="#585978"/>
<path d="M2 44.9999H4.70214V42.2913H2V44.9999Z" fill="#585978"/>
<path d="M5.10248 41.8398H7.80462V39.1309H5.10248V41.8398Z" fill="#585978"/>
<path d="M8.25494 19.8688H10.9571V17.1601H8.25494V19.8688Z" fill="#585978"/>
<path d="M11.4075 19.8688H14.1096V17.1601H11.4075V19.8688Z" fill="#585978"/>
<path d="M14.5099 19.8688H17.2121V17.1601H14.5099V19.8688Z" fill="#585978"/>
<path d="M17.6624 19.8688H20.3645V17.1601H17.6624V19.8688Z" fill="#585978"/>
<path d="M20.8149 16.7087H23.517V14H20.8149V16.7087Z" fill="#585978"/>
<path d="M20.8149 35.5695H23.517V32.8608H20.8149V35.5695Z" fill="#585978"/>
<path d="M20.8149 19.8688H23.517V17.1601H20.8149V19.8688Z" fill="#585978"/>
<path d="M23.9174 19.8688H26.6195V17.1601H23.9174V19.8688Z" fill="#585978"/>
<path d="M27.0699 19.8688H29.7721V17.1601H27.0699V19.8688Z" fill="#585978"/>
<path d="M23.9174 22.9789H26.6195V20.2702H23.9174V22.9789Z" fill="#585978"/>
<path d="M27.0699 22.9789H29.7721V20.2702H27.0699V22.9789Z" fill="#585978"/>
<path d="M30.1723 20.2702V22.9789H32.8746V20.2702H30.1723Z" fill="#585978"/>
<path d="M27.0699 26.1391H29.7721V23.4304H27.0699V26.1391Z" fill="#585978"/>
<path d="M30.1723 26.1391H32.8746V23.4304H30.1723V26.1391Z" fill="#585978"/>
<path d="M27.0699 29.2994H29.7721V26.5906H27.0699V29.2994Z" fill="#585978"/>
<path d="M30.1723 29.2994H32.8746V26.5906H30.1723V29.2994Z" fill="#585978"/>
<path d="M27.0699 32.4093H29.7721V29.7006H27.0699V32.4093Z" fill="#585978"/>
<path d="M27.0699 35.5695H29.7721V32.8608H27.0699V35.5695Z" fill="#585978"/>
<path d="M23.9174 32.4093H26.6195V29.7006H23.9174V32.4093Z" fill="#585978"/>
<path d="M30.1723 32.4093H32.8746V29.7006H30.1723V32.4093Z" fill="#585978"/>
<path d="M41.7816 26.1391H39.0795V23.4304H41.7816V26.1391Z" fill="#585978"/>
<path d="M41.7816 29.2994H39.0795V26.5906H41.7816V29.2994Z" fill="#585978"/>
<path d="M41.7816 32.4093H39.0795V29.7006H41.7816V32.4093Z" fill="#585978"/>
<path d="M41.7816 35.5695H39.0795V32.8608H41.7816V35.5695Z" fill="#585978"/>
<path d="M41.7816 38.6794H39.0795V35.9708H41.7816V38.6794Z" fill="#585978"/>
<path d="M44.934 22.9789H42.2319V20.2702H44.934V22.9789Z" fill="#585978"/>
<path d="M44.934 19.8688H42.2319V17.1601H44.934V19.8688Z" fill="#585978"/>
<path d="M48.0867 22.9789H45.3844V20.2702H48.0867V22.9789Z" fill="#585978"/>
<path d="M48.0867 19.8688H45.3844V17.1601H48.0867V19.8688Z" fill="#585978"/>
<path d="M48.537 17.1102H51.2391V19.8189H48.537V17.1102Z" fill="#585978"/>
<path d="M51.1891 16.7087H48.4868V14H51.1891V16.7087Z" fill="#585978"/>
<path d="M54.3416 19.8688H51.6395V17.1601H54.3416V19.8688Z" fill="#585978"/>
<path d="M54.3416 16.7087H51.6395V14H54.3416V16.7087Z" fill="#585978"/>
<path d="M57.444 19.8688H54.7419V17.1601H57.444V19.8688Z" fill="#585978"/>
<path d="M54.7419 14H57.444V16.7087H54.7419V14Z" fill="#585978"/>
<path d="M57.8943 17.1102H60.5964V19.8189H57.8943V17.1102Z" fill="#585978"/>
<path d="M60.5964 16.7087H57.8943V14H60.5964V16.7087Z" fill="#585978"/>
<path d="M44.934 26.1391H42.2319V23.4304H44.934V26.1391Z" fill="#585978"/>
<path d="M44.934 29.2994H42.2319V26.5906H44.934V29.2994Z" fill="#585978"/>
<path d="M44.934 32.4093H42.2319V29.7006H44.934V32.4093Z" fill="#585978"/>
<path d="M57.444 29.2994H54.7419V26.5906H57.444V29.2994Z" fill="#585978"/>
<path d="M57.444 32.4093H54.7419V29.7006H57.444V32.4093Z" fill="#585978"/>
<path d="M57.8943 26.5404H60.5964V29.2491H57.8943V26.5404Z" fill="#585978"/>
<path d="M57.8943 29.7006H60.5964V32.4093H57.8943V29.7006Z" fill="#585978"/>
<path d="M63.7489 29.2994H61.0468V26.5906H63.7489V29.2994Z" fill="#585978"/>
<path d="M63.7489 32.4093H61.0468V29.7006H63.7489V32.4093Z" fill="#585978"/>
<path d="M63.7489 38.6794H61.0468V35.9708H63.7489V38.6794Z" fill="#585978"/>
<path d="M66.8515 29.2994H64.1493V26.5906H66.8515V29.2994Z" fill="#585978"/>
<path d="M66.8515 32.4093H64.1493V29.7006H66.8515V32.4093Z" fill="#585978"/>
<path d="M63.7489 19.8688H61.0468V17.1601H63.7489V19.8688Z" fill="#585978"/>
<path d="M63.7489 22.9789H61.0468V20.2702H63.7489V22.9789Z" fill="#585978"/>
<path d="M66.8515 19.8688H64.1493V17.1601H66.8515V19.8688Z" fill="#585978"/>
<path d="M66.8515 22.9789H64.1493V20.2702H66.8515V22.9789Z" fill="#585978"/>
<path d="M44.934 35.5695H42.2319V32.8608H44.934V35.5695Z" fill="#585978"/>
<path d="M44.934 38.6794H42.2319V35.9708H44.934V38.6794Z" fill="#585978"/>
<path d="M48.0867 38.6794H45.3844V35.9708H48.0867V38.6794Z" fill="#585978"/>
<path d="M48.0867 41.8398H45.3844V39.1309H48.0867V41.8398Z" fill="#585978"/>
<path d="M48.0867 44.9999H45.3844V42.2913H48.0867V44.9999Z" fill="#585978"/>
<path d="M48.537 39.1309H51.2391V41.8398H48.537V39.1309Z" fill="#585978"/>
<path d="M51.1891 44.9999H48.4868V42.2913H51.1891V44.9999Z" fill="#585978"/>
<path d="M54.3416 41.8398H51.6395V39.1309H54.3416V41.8398Z" fill="#585978"/>
<path d="M54.3416 44.9999H51.6395V42.2913H54.3416V44.9999Z" fill="#585978"/>
<path d="M57.444 41.8398H54.7419V39.1309H57.444V41.8398Z" fill="#585978"/>
<path d="M57.494 44.9999H54.7919V42.2913H57.494V44.9999Z" fill="#585978"/>
<path d="M57.8943 39.1309H60.5964V41.8398H57.8943V39.1309Z" fill="#585978"/>
<path d="M60.5964 44.9999H57.8943V42.2913H60.5964V44.9999Z" fill="#585978"/>
<path d="M63.7489 41.8398H61.0468V39.1309H63.7489V41.8398Z" fill="#585978"/>
<path d="M66.8515 41.8398H64.1493V39.1309H66.8515V41.8398Z" fill="#585978"/>
<path d="M66.8515 35.5695H64.1493V32.8608H66.8515V35.5695Z" fill="#585978"/>
<path d="M66.8515 38.6794H64.1493V35.9708H66.8515V38.6794Z" fill="#585978"/>
<path d="M67.3019 32.4093V29.7006H70.004V32.4093H67.3019Z" fill="#585978"/>
<path d="M70.004 35.5695H67.3019V32.8608H70.004V35.5695Z" fill="#585978"/>
<path d="M41.7816 20.2702H39.0795V22.9789H41.7816V20.2702Z" fill="#585978"/>
<path d="M45.3844 14H48.0867V16.7087H45.3844V14Z" fill="#585978"/>
<path d="M44.934 39.1309H42.2319V41.8398H44.934V39.1309Z" fill="#585978"/>
<path d="M61.0468 42.241H63.7491V44.9499H61.0468V42.241Z" fill="#585978"/>
<path d="M70.004 26.5404H67.3018V29.2491H70.004V26.5404Z" fill="#585978"/>
<path d="M67.3018 35.9708H70.004V38.6794H67.3018V35.9708Z" fill="#585978"/>
<path fill-rule="evenodd" clip-rule="evenodd" d="M81.413 14H76.1589V22.4773H78.2605V19.3171H81.413V18.2136H82.4638V15.0534H81.413V14ZM80.4122 17.1602H78.3106V16.1068H80.4122V17.1602Z" fill="#585978"/>
<path fill-rule="evenodd" clip-rule="evenodd" d="M84.6657 22.4773H88.869V21.4239H89.9198V15.0534H88.869V14H84.6657V15.0534H83.6149V21.4239H84.6657V22.4773ZM85.7165 16.1068H87.8182V20.3705H85.7165V16.1068Z" fill="#585978"/>
<path d="M92.0715 22.4773H96.2749V21.4239H97.3257V19.3171H95.2239V20.3705H93.1223V16.1068H95.2239V17.1602H97.3257V15.0534H96.2749V14H92.0715V15.0534H91.0206V21.4239H92.0715V22.4773Z" fill="#585978"/>
<path d="M100.528 19.267H102.63V22.4272H104.732V19.267H103.681V17.1602H104.732V14H102.63V17.1602H100.528V14H98.4266V22.4773H100.528V19.267Z" fill="#585978"/>
<path d="M112.137 20.3705H107.884V19.3171H111.037V17.2104H107.884V16.157H112.137V14.0502H105.782V22.5275H112.137V20.3705Z" fill="#585978"/>
<path d="M113.188 14V16.1068H115.29V22.4773H117.392V16.1068H119.493V14H113.188Z" fill="#585978"/>
<path d="M79.3614 30.5533H80.4122V31.6068H78.3105V27.343H81.463V25.2362H77.2597V26.2896H76.2089V32.6602H77.2597V33.7136H81.463V32.6602H82.5138V28.4466H79.3614V30.5533Z" fill="#585978"/>
<path fill-rule="evenodd" clip-rule="evenodd" d="M88.869 25.2362H84.6657V26.2896H83.6149V33.7136H85.7165V31.6068H87.8182V33.7136H89.9198V26.2896H88.869V25.2362ZM87.8182 29.5H85.7165V27.3932H87.8182V29.5Z" fill="#585978"/>
<path d="M96.2749 27.3932H95.2239V28.4466H94.1731V27.3932H93.1223V26.3398H92.0715V25.2362H91.0206V33.7136H93.1223V30.5533H94.1731V31.6068H95.2239V30.5533H96.2749V33.7136H98.3766V25.2362H97.3257V26.2896H96.2749V27.3932Z" fill="#585978"/>
<path d="M105.782 33.7136V31.6068H101.529V30.5533H104.682V28.4466H101.529V27.3932H105.782V25.2362H99.4274V33.7136H105.782Z" fill="#585978"/>
<path d="M106.883 26.2896V29.4498H107.934V30.5031H111.087V31.5565H106.883V33.6634H112.187V32.6101H113.238V29.4498H112.187V28.3964H109.035V27.343H113.288V25.2362H107.984V26.2896H106.883Z" fill="#585978"/>
<path d="M77.2597 37.576H76.2089V40.7362H77.2597V41.7897H80.4122V42.8431H76.2089V44.9499H81.513V43.8965H82.564V40.7362H81.513V39.6828H78.3606V38.6294H82.614V36.5226H77.2597V37.576Z" fill="#585978"/>
<path fill-rule="evenodd" clip-rule="evenodd" d="M88.869 36.5226H84.6657V37.576H83.6149V43.9466H84.6657V45H88.869V43.9466H89.9198V37.576H88.869V36.5226ZM87.8182 42.8933H85.7165V38.6294H87.8182V42.8933Z" fill="#585978"/>
<path d="M91.0206 45H93.1223V41.7897H96.2749V39.6828H93.1223V38.6294H97.3758V36.5226H91.0206V45Z" fill="#585978"/>
<path d="M100.478 38.6294V45H102.58V38.6294H104.681V36.5226H98.3265V38.6294H100.478Z" fill="#585978"/>
<path d="M122.546 14.5518V17.6116H123.096V14.5518H123.997V14H121.645V14.5518H122.546Z" fill="#585978"/>
<path d="M124.497 14V17.6116H125.098V15.1036L125.998 16.9094H126.599L127.45 15.1537V17.6116H128V14H127.4L126.249 16.3074L125.098 14H124.497Z" fill="#585978"/>
</g>
</svg>
