<svg width="130" height="60" viewBox="0 0 130 60" fill="none" xmlns="http://www.w3.org/2000/svg">
<mask id="mask0_124_115" style="mask-type:alpha" maskUnits="userSpaceOnUse" x="0" y="0" width="130" height="60">
<rect width="130" height="60" fill="#585978"/>
</mask>
<g mask="url(#mask0_124_115)">
<path fill-rule="evenodd" clip-rule="evenodd" d="M123.63 11.6667L120.28 15.3333C6.42558 15.3333 4.98461 15.3333 4.34224 15.6651C3.99502 15.8397 3.56099 16.1365 3.40474 16.3111C3.24849 16.5032 2.98808 16.9397 2.84919 17.3063C2.60613 17.8825 2.57141 19.8206 2.57141 33.5794C2.57141 47.3206 2.60613 49.2937 2.84919 49.8698C2.98808 50.219 3.28322 50.7079 3.49155 50.9349C3.69988 51.1619 4.18599 51.4937 4.56794 51.6683C5.24502 51.9825 7.29364 52 65.0714 52C122.919 52 124.898 51.9825 125.575 51.6683C125.957 51.4937 126.478 51.127 126.738 50.8476C126.998 50.5683 127.294 50.1317 127.38 49.8524C127.519 49.5381 127.571 42.8857 127.571 28.6905C127.571 9.1 127.554 8 127.276 8C127.103 8 125.488 9.62381 123.613 11.6667H123.63ZM65.4187 25.4603V23.4523V21.4444H70.1062V25.4603H65.4187ZM28.6131 41V31.5714V22.1428H33.4742V41H28.6131ZM12.4847 31.9904L12.4673 41L17.4152 40.9127L17.502 35.9365C21.8076 35.8492 21.9986 35.8142 23.0576 35.3079C23.8041 34.9412 24.4812 34.4349 25.0194 33.8238C25.4881 33.3 26.009 32.4619 26.2173 31.9206C26.4777 31.2222 26.5819 30.5587 26.5819 29.4761C26.5819 28.4984 26.4777 27.7127 26.2867 27.2063C26.1131 26.7698 25.7486 26.0888 25.4708 25.6698C25.193 25.2682 24.6374 24.692 24.2381 24.4127C23.8215 24.1158 23.0576 23.7142 22.5367 23.5047C21.6687 23.173 21.1479 23.1206 17.0506 23.0507L12.502 22.9809L12.4847 31.9904ZM52.5715 30.2095C52.5541 29.8079 53.127 29.1095 55.6965 26.3682C58.1097 23.7841 58.943 23.0158 59.6895 23.0158V27.2063H63.1617V30.6984H59.8631V33.265C59.8805 35.0111 59.9499 35.9365 60.0888 36.146C60.2104 36.3031 60.5749 36.5301 60.9048 36.6349C61.2347 36.7222 61.877 36.8095 63.1617 36.8095V41.0873L60.8701 40.9825C59.1166 40.8952 58.3701 40.7904 57.7798 40.5285C57.3458 40.3365 56.7381 39.9174 56.4083 39.5857C56.0958 39.2539 55.7138 38.7127 55.5576 38.3809C55.3492 37.9095 55.2624 36.9142 55.0888 30.7857L53.8388 30.7333L53.8351 30.7332C52.5888 30.6984 52.5715 30.6979 52.5715 30.2095ZM40.818 26.9619C40.3145 27.0841 39.568 27.3809 39.1687 27.5904C38.752 27.7825 38.0402 28.3587 37.5715 28.8476C37.1027 29.3365 36.5298 30.1222 36.3215 30.6111C36.0958 31.0825 35.8354 32.0079 35.7486 32.6539C35.6444 33.3174 35.6097 34.2603 35.6617 34.7492C35.7138 35.2555 35.8701 36.0587 36.009 36.5476C36.1305 37.019 36.4951 37.8047 36.8076 38.2761C37.1201 38.7476 37.693 39.3936 38.0749 39.6904C38.4569 40.0047 39.0472 40.3888 39.377 40.5634C39.7069 40.738 40.384 40.9825 40.8527 41.1047C41.3388 41.2444 42.1548 41.3492 42.6756 41.3492C43.1965 41.3492 44.0645 41.2269 44.5854 41.0873C45.1062 40.9301 45.8006 40.6682 46.1131 40.4761C46.4083 40.2841 46.7208 40.1269 46.8076 40.1269C46.877 40.1095 47.0333 40.319 47.1548 40.5634C47.3631 40.9825 47.4152 41 49.1861 41H51.009V27.0317C47.5715 27.0317 47.5367 27.0317 47.2416 27.5031C47.0854 27.7825 46.9291 28.0095 46.8944 28.0269C46.8597 28.0619 46.634 27.9222 46.3736 27.7476C46.0958 27.5555 45.4013 27.2412 44.8111 27.0492C44.1687 26.8396 43.3006 26.6825 42.7277 26.7C42.1722 26.7 41.3041 26.8222 40.818 26.9619ZM77.4847 27.8349C77.7798 27.6079 78.4395 27.2587 78.9604 27.0666C79.5333 26.8396 80.3319 26.7 80.9569 26.7C81.5298 26.6825 82.502 26.8047 83.127 26.9619C83.752 27.1015 84.568 27.4158 84.9499 27.6428C85.3319 27.8698 85.9916 28.4285 86.4256 28.9C86.8423 29.3539 87.3805 30.1746 87.6236 30.6984C87.8493 31.2222 88.127 32.1301 88.2312 32.7063C88.3527 33.4222 88.3527 34.1555 88.2312 35.0634C88.127 35.7793 87.8319 36.8269 87.5888 37.3682C87.3284 37.9269 86.7555 38.7825 86.3041 39.2714C85.8354 39.7603 85.1583 40.319 84.7763 40.5111C84.3944 40.7206 83.7694 40.9825 83.3874 41.1222C83.0055 41.2444 82.1027 41.3666 81.3909 41.3666C80.5229 41.3666 79.73 41.2502 79.0124 41.0174C78.4048 40.8079 77.884 40.6507 77.8319 40.6507C77.7798 40.6507 77.7451 41.8206 77.7451 45.8888H73.0576V27.2063H74.7069C75.6373 27.2063 76.0429 27.2063 76.3287 27.3913C76.5496 27.5342 76.699 27.7875 76.9638 28.2365L77.4847 27.8349ZM109.69 26.9619C109.169 27.1015 108.509 27.3634 108.214 27.5555C107.936 27.7301 107.485 28.0968 107.224 28.3761C106.964 28.638 106.651 29.1444 106.512 29.4761C106.374 29.8079 106.2 30.4015 106.131 30.7857C106.061 31.2396 106.113 31.8158 106.287 32.4444C106.46 33.073 106.756 33.5968 107.12 33.9634C107.433 34.2777 108.04 34.6793 108.474 34.8714C108.908 35.0634 109.915 35.3428 110.731 35.5C111.547 35.6746 112.467 35.9015 112.78 36.0412C113.231 36.2333 113.335 36.3904 113.335 36.8095C113.335 37.1587 113.208 37.4206 112.953 37.5952C112.728 37.7349 112.328 37.8571 112.033 37.8571C111.756 37.8571 111.304 37.7 111.044 37.5079C110.766 37.3158 110.558 37.0015 110.558 36.8095C110.558 36.4777 110.436 36.4603 108.214 36.4603C106.46 36.4603 105.87 36.5126 105.87 36.6698C105.87 36.792 105.992 37.3333 106.148 37.8571C106.374 38.573 106.669 39.0444 107.328 39.6904C107.988 40.3539 108.492 40.6682 109.256 40.9127C110.037 41.1746 110.783 41.2619 112.207 41.2619C113.891 41.2619 114.238 41.2095 115.071 40.8079C115.592 40.5634 116.269 40.1619 116.547 39.9174C116.842 39.6904 117.294 39.0619 117.554 38.538C117.919 37.8047 118.023 37.3507 118.023 36.5476C118.023 35.9015 117.884 35.2206 117.693 34.8015C117.519 34.4174 117.19 33.9285 116.964 33.719C116.738 33.5095 116.2 33.1777 115.766 32.9857C115.332 32.8111 114.325 32.5142 113.509 32.3571C112.693 32.2 111.773 31.9904 111.478 31.9031C111.165 31.8158 110.835 31.5888 110.731 31.3968C110.61 31.1523 110.627 30.9254 110.783 30.646C110.922 30.4365 111.252 30.2095 111.53 30.1396C111.825 30.0698 112.259 30.1222 112.606 30.2793C112.971 30.4365 113.196 30.6809 113.249 30.9603L113.335 31.3968H117.762C117.571 30.1047 117.294 29.3888 117.033 28.9523C116.756 28.5158 116.183 27.9571 115.766 27.6777C115.332 27.4158 114.551 27.0841 114.03 26.9444C113.509 26.8047 112.537 26.6825 111.86 26.7C111.2 26.7 110.21 26.8222 109.69 26.9619ZM65.4187 41V34.1031V27.2063H70.1062V41H65.4187ZM90.4534 32.0428L90.5055 36.8968C91.252 38.3809 91.7555 39.1142 92.1201 39.4984C92.4673 39.865 93.1097 40.3365 93.5437 40.5634C93.9777 40.773 94.6722 41.0349 95.1062 41.1571C95.5923 41.2968 96.5645 41.3492 97.6236 41.3142C99.0645 41.2619 99.5333 41.1571 100.367 40.773C100.905 40.5111 101.686 39.9698 102.103 39.5507C102.519 39.1492 103.023 38.4682 103.231 38.0317C103.44 37.5952 103.683 36.7746 103.787 36.1984C103.874 35.6222 103.96 33.3698 103.96 31.1698V27.2063H99.0993C99.0993 34.7666 99.0472 35.692 98.8388 36.1111C98.6999 36.4079 98.318 36.7396 97.9708 36.8968C97.6409 37.0365 97.2416 37.1587 97.1027 37.1587C96.9638 37.1587 96.5645 37.019 96.2347 36.8444C95.8527 36.6698 95.5055 36.3206 95.3666 35.9714C95.1583 35.5349 95.1062 34.5047 95.1062 31.3095V27.2063H90.4013L90.4534 32.0428Z" fill="#585978"/>
<path d="M120.28 15.3333V15.8333H120.5L120.649 15.6706L120.28 15.3333ZM123.63 11.6667L124 12.004L124.765 11.1667H123.63V11.6667ZM4.34224 15.6651L4.56688 16.1118L4.57168 16.1093L4.34224 15.6651ZM3.40474 16.3111L3.03215 15.9777L3.02431 15.9864L3.01688 15.9956L3.40474 16.3111ZM2.84919 17.3063L3.30988 17.5007L3.31348 17.4921L3.31677 17.4835L2.84919 17.3063ZM2.84919 49.8698L3.31389 49.685L3.30988 49.6755L2.84919 49.8698ZM3.49155 50.9349L3.12319 51.273L3.12319 51.273L3.49155 50.9349ZM4.56794 51.6683L4.77846 51.2147L4.77582 51.2135L4.56794 51.6683ZM125.575 51.6683L125.367 51.2135L125.364 51.2147L125.575 51.6683ZM127.38 49.8524L126.923 49.6503L126.911 49.6766L126.903 49.704L127.38 49.8524ZM123.613 11.6667L123.245 11.3286L122.475 12.1667H123.613V11.6667ZM65.4187 25.4603H64.9187V25.9603H65.4187V25.4603ZM65.4187 21.4444V20.9444H64.9187V21.4444H65.4187ZM70.1062 21.4444H70.6062V20.9444H70.1062V21.4444ZM70.1062 25.4603V25.9603H70.6062V25.4603H70.1062ZM28.6131 41H28.1131V41.5H28.6131V41ZM28.6131 22.1428V21.6428H28.1131V22.1428H28.6131ZM33.4742 22.1428H33.9742V21.6428H33.4742V22.1428ZM33.4742 41V41.5H33.9742V41H33.4742ZM12.4673 41L11.9673 40.999L11.9663 41.5089L12.4761 41.4999L12.4673 41ZM12.4847 31.9904L11.9847 31.9895L12.4847 31.9904ZM17.4152 40.9127L17.424 41.4126L17.9067 41.4041L17.9151 40.9214L17.4152 40.9127ZM17.502 35.9365L17.4919 35.4366L17.0105 35.4463L17.0021 35.9277L17.502 35.9365ZM23.0576 35.3079L23.2733 35.759L23.278 35.7567L23.0576 35.3079ZM25.0194 33.8238L24.6468 33.4903L24.6442 33.4933L25.0194 33.8238ZM26.2173 31.9206L26.684 32.1002L26.6858 32.0953L26.2173 31.9206ZM26.2867 27.2063L26.7547 27.0298L26.7513 27.0215L26.2867 27.2063ZM25.4708 25.6698L25.8876 25.3935L25.882 25.3854L25.4708 25.6698ZM24.2381 24.4127L23.948 24.8199L23.9515 24.8223L24.2381 24.4127ZM22.5367 23.5047L22.7234 23.0408L22.7152 23.0377L22.5367 23.5047ZM17.0506 23.0507L17.0592 22.5508L17.0583 22.5508L17.0506 23.0507ZM12.502 22.9809L12.5097 22.481L12.003 22.4732L12.002 22.9799L12.502 22.9809ZM55.6965 26.3682L56.0613 26.7101L56.0619 26.7095L55.6965 26.3682ZM52.5715 30.2095H53.0715V30.1987L53.071 30.1879L52.5715 30.2095ZM59.6895 23.0158H60.1895V22.5158H59.6895V23.0158ZM59.6895 27.2063H59.1895V27.7063H59.6895V27.2063ZM63.1617 27.2063H63.6617V26.7063H63.1617V27.2063ZM63.1617 30.6984V31.1984H63.6617V30.6984H63.1617ZM59.8631 30.6984V30.1984H59.3631V30.6984H59.8631ZM59.8631 33.265H59.3631L59.3632 33.27L59.8631 33.265ZM60.0888 36.146L59.6721 36.4222L59.6822 36.4374L59.6933 36.4519L60.0888 36.146ZM60.9048 36.6349L60.7535 37.1114L60.7651 37.1151L60.7769 37.1182L60.9048 36.6349ZM63.1617 36.8095H63.6617V36.3095H63.1617V36.8095ZM63.1617 41.0873L63.1389 41.5867L63.6617 41.6106V41.0873H63.1617ZM60.8701 40.9825L60.8452 41.4819L60.8472 41.482L60.8701 40.9825ZM57.7798 40.5285L57.9826 40.0715L57.9821 40.0713L57.7798 40.5285ZM56.4083 39.5857L56.0442 39.9286L56.0537 39.9382L56.4083 39.5857ZM55.5576 38.3809L55.1001 38.5831L55.1052 38.594L55.5576 38.3809ZM55.0888 30.7857L55.5886 30.7715L55.5754 30.3056L55.1098 30.2861L55.0888 30.7857ZM53.8388 30.7333L53.8598 30.2337L53.8527 30.2335L53.8388 30.7333ZM53.8351 30.7332L53.8212 31.233L53.8212 31.233L53.8351 30.7332ZM39.1687 27.5904L39.378 28.0445L39.3896 28.0391L39.401 28.0332L39.1687 27.5904ZM40.818 26.9619L40.936 27.4477L40.9461 27.4453L40.9561 27.4424L40.818 26.9619ZM37.5715 28.8476L37.9324 29.1936V29.1936L37.5715 28.8476ZM36.3215 30.6111L36.7724 30.827L36.7772 30.8171L36.7814 30.8071L36.3215 30.6111ZM35.7486 32.6539L36.2426 32.7315L36.2441 32.7205L35.7486 32.6539ZM35.6617 34.7492L36.1591 34.698L36.1589 34.6962L35.6617 34.7492ZM36.009 36.5476L36.4933 36.4227L36.4899 36.4109L36.009 36.5476ZM36.8076 38.2761L36.3908 38.5524L36.8076 38.2761ZM38.0749 39.6904L38.3928 39.3042L38.3818 39.2956L38.0749 39.6904ZM39.377 40.5634L39.1431 41.0054H39.1431L39.377 40.5634ZM40.8527 41.1047L40.9908 40.624L40.9789 40.6209L40.8527 41.1047ZM44.5854 41.0873L44.7149 41.5702L44.7224 41.5682L44.7298 41.5659L44.5854 41.0873ZM46.1131 40.4761L46.375 40.9023L46.3859 40.8952L46.1131 40.4761ZM46.8076 40.1269V40.6269H46.8695L46.9295 40.6118L46.8076 40.1269ZM47.1548 40.5634L47.6025 40.3409L47.1548 40.5634ZM51.009 41V41.5H51.509V41H51.009ZM51.009 27.0317H51.509V26.5317H51.009V27.0317ZM47.2416 27.5031L46.8178 27.2378L46.8113 27.2483L46.8052 27.2591L47.2416 27.5031ZM46.8944 28.0269L46.6697 27.5802L46.5971 27.6168L46.5398 27.6744L46.8944 28.0269ZM46.3736 27.7476L46.0892 28.1589L46.0951 28.1629L46.3736 27.7476ZM44.8111 27.0492L44.656 27.5245L44.6563 27.5246L44.8111 27.0492ZM42.7277 26.7V27.2H42.7353L42.743 27.1997L42.7277 26.7ZM78.9604 27.0666L79.1334 27.5359L79.1445 27.5315L78.9604 27.0666ZM77.4847 27.8349L77.1798 27.4385L77.1794 27.4389L77.4847 27.8349ZM80.9569 26.7V27.2H80.9645L80.9721 27.1997L80.9569 26.7ZM83.127 26.9619L83.0051 27.4469L83.018 27.4498L83.127 26.9619ZM84.9499 27.6428L84.6945 28.0726V28.0726L84.9499 27.6428ZM86.4256 28.9L86.794 28.5619L86.7935 28.5613L86.4256 28.9ZM87.6236 30.6984L88.0829 30.5004L88.0771 30.4879L87.6236 30.6984ZM88.2312 32.7063L88.7242 32.6226L88.7232 32.6173L88.2312 32.7063ZM88.2312 35.0634L88.726 35.1355L88.7268 35.1298L88.2312 35.0634ZM87.5888 37.3682L88.0421 37.5795L88.045 37.573L87.5888 37.3682ZM86.3041 39.2714L86.6651 39.6175L86.6715 39.6106L86.3041 39.2714ZM84.7763 40.5111L84.5517 40.0644L84.5437 40.0684L84.5359 40.0727L84.7763 40.5111ZM83.3874 41.1222L83.5398 41.5984L83.5496 41.5953L83.5592 41.5918L83.3874 41.1222ZM79.0124 41.0174L78.8494 41.4902L78.8581 41.493L79.0124 41.0174ZM77.7451 45.8888V46.3888H78.2451V45.8888H77.7451ZM73.0576 45.8888H72.5576V46.3888H73.0576V45.8888ZM73.0576 27.2063V26.7063H72.5576V27.2063H73.0576ZM76.3287 27.3913L76.6004 26.9715L76.6004 26.9715L76.3287 27.3913ZM76.9638 28.2365L76.5332 28.4905L76.8208 28.9781L77.2691 28.6324L76.9638 28.2365ZM108.214 27.5555L108.48 27.9789L108.487 27.9746L108.214 27.5555ZM109.69 26.9619L109.819 27.4448L109.69 26.9619ZM107.224 28.3761L107.579 28.7287L107.584 28.723L107.59 28.7171L107.224 28.3761ZM106.512 29.4761L106.051 29.283V29.2831L106.512 29.4761ZM106.131 30.7857L105.638 30.6967L105.636 30.7101L106.131 30.7857ZM106.287 32.4444L105.805 32.5775V32.5775L106.287 32.4444ZM107.12 33.9634L107.475 33.6109V33.6109L107.12 33.9634ZM110.731 35.5L110.836 35.0109L110.826 35.009L110.731 35.5ZM112.78 36.0412L112.576 36.4978L112.584 36.5013L112.78 36.0412ZM112.953 37.5952L113.217 38.0204L113.227 38.0142L113.236 38.0076L112.953 37.5952ZM111.044 37.5079L111.34 37.1055L111.334 37.101L111.328 37.0966L111.044 37.5079ZM106.148 37.8571L105.669 38L105.671 38.0074L106.148 37.8571ZM107.328 39.6904L107.683 39.3379L107.678 39.3332L107.328 39.6904ZM109.256 40.9127L109.414 40.4385L109.408 40.4364L109.256 40.9127ZM115.071 40.8079L114.859 40.3552L114.854 40.3575L115.071 40.8079ZM116.547 39.9174L116.242 39.5211L116.229 39.5311L116.217 39.5421L116.547 39.9174ZM117.554 38.538L117.106 38.3155V38.3155L117.554 38.538ZM117.693 34.8015L117.237 35.0075L117.238 35.0089L117.693 34.8015ZM116.964 33.719L116.624 34.0854H116.624L116.964 33.719ZM115.766 32.9857L115.968 32.5284L115.96 32.525L115.953 32.5218L115.766 32.9857ZM111.478 31.9031L111.62 31.4236L111.612 31.4216L111.478 31.9031ZM110.731 31.3968L110.283 31.6194L110.287 31.6273L110.292 31.6352L110.731 31.3968ZM110.783 30.646L110.367 30.3697L110.356 30.3854L110.347 30.4019L110.783 30.646ZM111.53 30.1396L111.415 29.653L111.408 29.6547L111.53 30.1396ZM112.606 30.2793L112.4 30.7349L112.408 30.7385L112.606 30.2793ZM113.249 30.9603L112.757 31.0519L112.758 31.0578L113.249 30.9603ZM113.335 31.3968L112.845 31.4943L112.925 31.8968H113.335V31.3968ZM117.762 31.3968V31.8968H118.342L118.257 31.3237L117.762 31.3968ZM117.033 28.9523L117.463 28.6962L117.459 28.69L117.455 28.6839L117.033 28.9523ZM115.766 27.6777L116.044 27.2624L116.034 27.2558L116.024 27.2496L115.766 27.6777ZM114.03 26.9444L114.159 26.4615L114.03 26.9444ZM111.86 26.7V27.2001L111.873 27.1998L111.86 26.7ZM65.4187 41H64.9187V41.5H65.4187V41ZM65.4187 27.2063V26.7063H64.9187V27.2063H65.4187ZM70.1062 27.2063H70.6062V26.7063H70.1062V27.2063ZM70.1062 41V41.5H70.6062V41H70.1062ZM90.5055 36.8968L90.0055 36.9021L90.0068 37.018L90.0588 37.1215L90.5055 36.8968ZM90.4534 32.0428L90.9534 32.0374V32.0374L90.4534 32.0428ZM92.1201 39.4984L92.4831 39.1546L92.4827 39.1542L92.1201 39.4984ZM93.5437 40.5634L93.312 41.0065L93.3191 41.0102L93.3263 41.0137L93.5437 40.5634ZM95.1062 41.1571L95.2443 40.6765L95.2417 40.6758L95.1062 41.1571ZM97.6236 41.3142L97.64 41.814L97.6417 41.8139L97.6236 41.3142ZM100.367 40.773L100.576 41.2271L100.585 41.2226L100.367 40.773ZM102.103 39.5507L101.756 39.1907L101.748 39.1982L102.103 39.5507ZM103.231 38.0317L103.682 38.2471V38.2471L103.231 38.0317ZM103.787 36.1984L104.279 36.2873L104.28 36.2801L104.281 36.2729L103.787 36.1984ZM103.96 27.2063H104.46V26.7063H103.96V27.2063ZM99.0993 27.2063V26.7063H98.5993V27.2063H99.0993ZM98.8388 36.1111L98.391 35.8884L98.386 35.8992L98.8388 36.1111ZM97.9708 36.8968L98.1658 37.3573L98.1769 37.3523L97.9708 36.8968ZM96.2347 36.8444L96.4686 36.4025L96.4557 36.3957L96.4425 36.3897L96.2347 36.8444ZM95.3666 35.9714L95.8312 35.7866L95.825 35.7711L95.8178 35.756L95.3666 35.9714ZM95.1062 27.2063H95.6062V26.7063H95.1062V27.2063ZM90.4013 27.2063V26.7063H89.8959L89.9014 27.2117L90.4013 27.2063ZM120.649 15.6706L124 12.004L123.261 11.3294L119.911 14.996L120.649 15.6706ZM4.57168 16.1093C4.5719 16.1092 4.59349 16.0821 4.88744 16.0532C5.19011 16.0235 5.72702 15.9965 6.72937 15.9732C8.72771 15.9266 12.5207 15.8955 19.858 15.8748C34.5294 15.8333 63.3521 15.8333 120.28 15.8333V14.8333C63.3532 14.8333 34.5284 14.8333 19.8552 14.8748C12.5201 14.8955 8.71655 14.9266 6.7061 14.9734C5.70405 14.9967 5.13351 15.0242 4.78969 15.058C4.43713 15.0926 4.27318 15.138 4.11281 15.2208L4.57168 16.1093ZM3.77734 16.6445C3.81367 16.6039 3.91986 16.5137 4.08513 16.4001C4.24117 16.2929 4.41688 16.1872 4.56687 16.1118L4.11762 15.2184C3.92039 15.3176 3.70547 15.4476 3.51863 15.5761C3.34102 15.6982 3.15206 15.8437 3.03215 15.9777L3.77734 16.6445ZM3.31677 17.4835C3.43777 17.164 3.67207 16.7748 3.79261 16.6266L3.01688 15.9956C2.82492 16.2315 2.53839 16.7153 2.38161 17.1292L3.31677 17.4835ZM3.07141 33.5794C3.07141 26.6983 3.08011 22.7791 3.11908 20.508C3.13859 19.3709 3.16556 18.6577 3.20172 18.1963C3.23881 17.7231 3.28298 17.5645 3.30988 17.5007L2.3885 17.112C2.29387 17.3363 2.24256 17.6361 2.20478 18.1182C2.16606 18.6122 2.13878 19.3515 2.11923 20.4908C2.08007 22.7725 2.07141 26.7017 2.07141 33.5794H3.07141ZM3.30988 49.6755C3.28317 49.6122 3.23889 49.452 3.20174 48.9749C3.16556 48.5104 3.13859 47.7933 3.11908 46.653C3.08011 44.3753 3.07141 40.4517 3.07141 33.5794H2.07141C2.07141 40.4483 2.08007 44.3819 2.11923 46.6701C2.13878 47.8126 2.16606 48.5557 2.20476 49.0526C2.24248 49.5369 2.29368 49.8394 2.3885 50.0642L3.30988 49.6755ZM3.85991 50.5968C3.70045 50.4231 3.43485 49.9894 3.31379 49.6851L2.38459 50.0546C2.54131 50.4487 2.86598 50.9928 3.12319 51.273L3.85991 50.5968ZM4.77582 51.2135C4.43456 51.0575 4.01023 50.7606 3.85991 50.5968L3.12319 51.273C3.38954 51.5632 3.93743 51.9298 4.36006 52.123L4.77582 51.2135ZM65.0714 51.5C36.1816 51.5 21.2269 51.4956 13.4097 51.452C9.49902 51.4302 7.38202 51.3985 6.20149 51.3531C4.98621 51.3062 4.8395 51.2431 4.77845 51.2147L4.35742 52.1218C4.63492 52.2506 4.99819 52.3074 6.16301 52.3523C7.36259 52.3985 9.4958 52.4302 13.4041 52.452C21.2249 52.4956 36.1834 52.5 65.0714 52.5V51.5ZM125.364 51.2147C125.303 51.2432 125.16 51.3063 123.951 51.3531C122.776 51.3985 120.666 51.4302 116.759 51.452C108.951 51.4956 93.9959 51.5 65.0714 51.5V52.5C93.9941 52.5 108.953 52.4956 116.765 52.452C120.669 52.4302 122.795 52.3985 123.99 52.3523C125.15 52.3074 125.508 52.2505 125.785 52.1218L125.364 51.2147ZM126.372 50.5067C126.161 50.733 125.696 51.0631 125.367 51.2135L125.783 52.123C126.218 51.9242 126.794 51.5209 127.104 51.1885L126.372 50.5067ZM126.903 49.704C126.88 49.7779 126.814 49.9112 126.706 50.0761C126.603 50.2341 126.481 50.3902 126.372 50.5067L127.104 51.1885C127.256 51.0257 127.412 50.8238 127.543 50.6239C127.669 50.4309 127.794 50.2063 127.858 50.0008L126.903 49.704ZM127.071 28.6905C127.071 35.788 127.058 40.998 127.028 44.4724C127.013 46.2101 126.993 47.5109 126.969 48.3957C126.957 48.8388 126.944 49.1732 126.929 49.4044C126.922 49.5207 126.915 49.605 126.909 49.6616C126.905 49.6902 126.903 49.7059 126.902 49.7121C126.899 49.7285 126.903 49.6964 126.923 49.6503L127.838 50.0545C127.867 49.9887 127.879 49.9246 127.885 49.8965C127.892 49.8583 127.897 49.8171 127.902 49.7762C127.912 49.6938 127.92 49.5892 127.928 49.4657C127.943 49.2175 127.956 48.8698 127.969 48.4232C127.993 47.5287 128.013 46.2203 128.028 44.4812C128.058 41.002 128.071 35.7882 128.071 28.6905H127.071ZM127.276 8.5C127.2 8.5 127.096 8.47676 127.005 8.40103C126.931 8.33898 126.906 8.27458 126.904 8.2696C126.903 8.26685 126.922 8.32415 126.942 8.52745C126.98 8.9121 127.008 9.64065 127.028 11.006C127.067 13.7252 127.071 18.893 127.071 28.6905H128.071C128.071 18.8974 128.067 13.72 128.028 10.9916C128.008 9.63316 127.98 8.86231 127.937 8.4285C127.917 8.22257 127.889 8.04089 127.834 7.90146C127.805 7.82814 127.751 7.72098 127.646 7.63324C127.524 7.53184 127.388 7.5 127.276 7.5V8.5ZM123.981 12.0048C124.916 10.9867 125.783 10.0753 126.437 9.42039C126.764 9.09214 127.033 8.83279 127.228 8.65766C127.327 8.56914 127.399 8.50898 127.446 8.47355C127.471 8.45518 127.479 8.4509 127.474 8.45351C127.472 8.45482 127.458 8.46291 127.434 8.47178C127.417 8.47834 127.358 8.5 127.276 8.5V7.5C127.183 7.5 127.111 7.52483 127.077 7.53766C127.038 7.5528 127.004 7.57025 126.98 7.58396C126.932 7.61135 126.886 7.64396 126.846 7.67398C126.764 7.73533 126.667 7.81799 126.56 7.91362C126.345 8.1068 126.061 8.38108 125.729 8.71413C125.063 9.38181 124.185 10.3038 123.245 11.3286L123.981 12.0048ZM123.63 11.1667H123.613V12.1667H123.63V11.1667ZM64.9187 23.4523V25.4603H65.9187V23.4523H64.9187ZM64.9187 21.4444V23.4523H65.9187V21.4444H64.9187ZM70.1062 20.9444H65.4187V21.9444H70.1062V20.9444ZM70.6062 25.4603V21.4444H69.6062V25.4603H70.6062ZM65.4187 25.9603H70.1062V24.9603H65.4187V25.9603ZM28.1131 31.5714V41H29.1131V31.5714H28.1131ZM28.1131 22.1428V31.5714H29.1131V22.1428H28.1131ZM33.4742 21.6428H28.6131V22.6428H33.4742V21.6428ZM33.9742 41V22.1428H32.9742V41H33.9742ZM28.6131 41.5H33.4742V40.5H28.6131V41.5ZM12.9673 41.0009L12.9847 31.9914L11.9847 31.9895L11.9673 40.999L12.9673 41.0009ZM17.4064 40.4127L12.4585 40.5L12.4761 41.4999L17.424 41.4126L17.4064 40.4127ZM17.0021 35.9277L16.9153 40.9039L17.9151 40.9214L18.0019 35.9452L17.0021 35.9277ZM22.8419 34.8568C22.3403 35.0966 22.0834 35.2083 21.4399 35.2826C20.7511 35.3621 19.6563 35.3927 17.4919 35.4366L17.5122 36.4364C19.6533 36.3929 20.8068 36.3624 21.5546 36.276C22.3477 36.1844 22.7158 36.0255 23.2733 35.759L22.8419 34.8568ZM24.6442 33.4933C24.1521 34.052 23.5288 34.5194 22.8372 34.8591L23.278 35.7567C24.0794 35.3631 24.8102 34.8178 25.3946 34.1542L24.6442 33.4933ZM25.7507 31.741C25.5668 32.2188 25.0804 33.0058 24.6468 33.4903L25.392 34.1572C25.8959 33.5941 26.4512 32.705 26.6839 32.1002L25.7507 31.741ZM26.0819 29.4761C26.0819 30.5201 25.9821 31.1202 25.7488 31.7459L26.6858 32.0953C26.9733 31.3242 27.0819 30.5973 27.0819 29.4761H26.0819ZM25.8189 27.3827C25.9782 27.8052 26.0819 28.5198 26.0819 29.4761H27.0819C27.0819 28.4769 26.9772 27.6201 26.7546 27.0299L25.8189 27.3827ZM25.054 25.9461C25.3155 26.3405 25.663 26.991 25.8221 27.3911L26.7513 27.0215C26.5632 26.5486 26.1816 25.8371 25.8875 25.3935L25.054 25.9461ZM23.9515 24.8223C24.2969 25.064 24.8117 25.5959 25.0596 25.9542L25.882 25.3854C25.5743 24.9406 24.978 24.3201 24.5248 24.003L23.9515 24.8223ZM22.3501 23.9686C22.8425 24.1667 23.57 24.5506 23.948 24.8199L24.5282 24.0054C24.073 23.6811 23.2726 23.2618 22.7234 23.0408L22.3501 23.9686ZM17.0421 23.5507C21.1754 23.6211 21.5915 23.6787 22.3582 23.9718L22.7152 23.0377C21.7459 22.6672 21.1203 22.62 17.0592 22.5508L17.0421 23.5507ZM12.4943 23.4808L17.043 23.5507L17.0583 22.5508L12.5097 22.481L12.4943 23.4808ZM12.9847 31.9914L13.002 22.9819L12.002 22.9799L11.9847 31.9895L12.9847 31.9914ZM55.3317 26.0263C54.0497 27.394 53.2515 28.267 52.7763 28.8504C52.5394 29.1412 52.367 29.3789 52.2539 29.5828C52.1409 29.7865 52.062 30.0003 52.0719 30.2311L53.071 30.1879C53.0723 30.2178 53.0585 30.1938 53.1283 30.0679C53.1981 29.9422 53.3262 29.7587 53.5516 29.482C54.0008 28.9305 54.7738 28.0837 56.0613 26.7101L55.3317 26.0263ZM59.6895 22.5158C59.1272 22.5158 58.6137 22.8131 57.9933 23.3427C57.3647 23.8795 56.5335 24.7393 55.331 26.0269L56.0619 26.7095C57.2726 25.413 58.0647 24.5966 58.6427 24.1032C59.2289 23.6027 59.5053 23.5158 59.6895 23.5158V22.5158ZM60.1895 27.2063V23.0158H59.1895V27.2063H60.1895ZM63.1617 26.7063H59.6895V27.7063H63.1617V26.7063ZM63.6617 30.6984V27.2063H62.6617V30.6984H63.6617ZM59.8631 31.1984H63.1617V30.1984H59.8631V31.1984ZM60.3631 33.265V30.6984H59.3631V33.265H60.3631ZM60.5056 35.8697C60.5325 35.9104 60.5152 35.9045 60.4892 35.7628C60.4674 35.6436 60.4468 35.4731 60.4289 35.243C60.3933 34.7844 60.3718 34.13 60.3631 33.2601L59.3632 33.27C59.3719 34.1461 59.3937 34.8274 59.4319 35.3204C59.451 35.5661 59.4748 35.7753 59.5056 35.9432C59.5323 36.0885 59.5757 36.2768 59.6721 36.4222L60.5056 35.8697ZM61.0561 36.1583C60.9352 36.1199 60.7977 36.0551 60.6779 35.9825C60.619 35.9468 60.5699 35.9125 60.533 35.8831C60.4929 35.851 60.4809 35.8356 60.4843 35.8401L59.6933 36.4519C59.8112 36.6043 59.9963 36.7387 60.1594 36.8376C60.3348 36.944 60.5445 37.0451 60.7535 37.1114L61.0561 36.1583ZM63.1617 36.3095C61.8898 36.3095 61.2992 36.222 61.0327 36.1515L60.7769 37.1182C61.1702 37.2223 61.8642 37.3095 63.1617 37.3095V36.3095ZM63.6617 41.0873V36.8095H62.6617V41.0873H63.6617ZM60.8472 41.482L63.1389 41.5867L63.1846 40.5878L60.8929 40.483L60.8472 41.482ZM57.577 40.9856C58.2654 41.291 59.105 41.3952 60.8452 41.4819L60.8949 40.4831C59.1282 40.3951 58.4747 40.2899 57.9826 40.0715L57.577 40.9856ZM56.0537 39.9382C56.4272 40.3139 57.0865 40.7685 57.5775 40.9858L57.9821 40.0713C57.6051 39.9044 57.049 39.521 56.7628 39.2331L56.0537 39.9382ZM55.1052 38.594C55.2885 38.9831 55.7039 39.5671 56.0443 39.9285L56.7722 39.2428C56.4876 38.9407 56.1391 38.4422 56.0099 38.1679L55.1052 38.594ZM54.589 30.7998C54.6758 33.8624 54.7411 35.6526 54.8112 36.737C54.8799 37.7989 54.9548 38.2538 55.1002 38.583L56.0149 38.1788C55.9521 38.0366 55.8794 37.7581 55.8091 36.6724C55.7404 35.6093 55.6755 33.8375 55.5886 30.7715L54.589 30.7998ZM53.8179 31.2328L55.0679 31.2852L55.1098 30.2861L53.8598 30.2337L53.8179 31.2328ZM53.8212 31.233L53.825 31.2331L53.8527 30.2335L53.849 30.2334L53.8212 31.233ZM52.0715 30.2095C52.0715 30.3065 52.0679 30.4823 52.1153 30.6381C52.1439 30.7319 52.1933 30.8322 52.2776 30.9223C52.3606 31.0109 52.4564 31.0673 52.5466 31.1042C52.7079 31.1702 52.8988 31.1915 53.0764 31.2041C53.2666 31.2176 53.5143 31.2244 53.8212 31.233L53.8491 30.2334C53.5328 30.2245 53.3109 30.2182 53.1473 30.2066C52.9712 30.1941 52.9241 30.1782 52.9253 30.1787C52.9354 30.1828 52.9706 30.1993 53.0077 30.2389C53.0462 30.2801 53.0645 30.3223 53.072 30.3468C53.0772 30.3641 53.0715 30.3566 53.0715 30.2095H52.0715ZM39.401 28.0332C39.769 27.8401 40.4772 27.5591 40.936 27.4477L40.7 26.476C40.1518 26.6091 39.367 26.9217 38.9364 27.1477L39.401 28.0332ZM37.9324 29.1936C38.1494 28.9673 38.4275 28.716 38.7005 28.4993C38.9808 28.2767 39.2253 28.1149 39.378 28.0445L38.9594 27.1363C38.6954 27.258 38.3756 27.4803 38.0787 27.7161C37.7745 27.9577 37.4623 28.239 37.2106 28.5015L37.9324 29.1936ZM36.7814 30.8071C36.9572 30.3946 37.4862 29.6589 37.9324 29.1936L37.2106 28.5015C36.7192 29.014 36.1024 29.8498 35.8615 30.4151L36.7814 30.8071ZM36.2441 32.7205C36.3255 32.1148 36.5738 31.2418 36.7724 30.827L35.8705 30.3952C35.6177 30.9232 35.3452 31.901 35.253 32.5873L36.2441 32.7205ZM36.1589 34.6962C36.1125 34.2603 36.1434 33.3625 36.2425 32.7315L35.2546 32.5764C35.1453 33.2724 35.1068 34.2602 35.1646 34.8021L36.1589 34.6962ZM36.4899 36.4109C36.3587 35.949 36.2081 35.1744 36.1591 34.698L35.1644 34.8003C35.2195 35.3366 35.3814 36.1683 35.528 36.6842L36.4899 36.4109ZM37.2243 37.9999C36.9369 37.5663 36.5984 36.8312 36.4931 36.4228L35.5248 36.6724C35.6626 37.2068 36.0532 38.0431 36.3908 38.5524L37.2243 37.9999ZM38.3818 39.2956C38.0521 39.0394 37.5142 38.4372 37.2243 37.9999L36.3908 38.5524C36.7259 39.0579 37.3339 39.7478 37.7681 40.0852L38.3818 39.2956ZM39.6109 40.1215C39.31 39.9623 38.7479 39.5967 38.3926 39.3043L37.7572 40.0765C38.1658 40.4127 38.7843 40.8154 39.1431 41.0054L39.6109 40.1215ZM40.9789 40.6209C40.5327 40.5045 39.8953 40.272 39.6109 40.1215L39.1431 41.0054C39.5185 41.204 40.2353 41.4604 40.7266 41.5885L40.9789 40.6209ZM42.6756 40.8492C42.1957 40.8492 41.4268 40.7494 40.9908 40.6242L40.7146 41.5853C41.2509 41.7394 42.1139 41.8492 42.6756 41.8492V40.8492ZM44.4558 40.6043C43.973 40.7338 43.1485 40.8492 42.6756 40.8492V41.8492C43.2444 41.8492 44.1561 41.7201 44.7149 41.5702L44.4558 40.6043ZM45.8513 40.0502C45.5978 40.206 44.9569 40.4529 44.4409 40.6086L44.7298 41.5659C45.2555 41.4073 46.0035 41.1304 46.3749 40.9021L45.8513 40.0502ZM46.8076 39.6269C46.6827 39.6269 46.5679 39.6711 46.5245 39.6878C46.4577 39.7135 46.3854 39.7469 46.3139 39.7828C46.1697 39.8553 46.0018 39.9521 45.8404 40.0571L46.3859 40.8952C46.5197 40.8081 46.6555 40.7303 46.7631 40.6762C46.8175 40.6489 46.858 40.631 46.8834 40.6212C46.8963 40.6162 46.8992 40.6157 46.8944 40.617C46.8917 40.6177 46.8837 40.6198 46.8716 40.6218C46.8604 40.6237 46.8378 40.6269 46.8076 40.6269V39.6269ZM47.6025 40.3409C47.5311 40.1973 47.4447 40.0534 47.356 39.9396C47.3135 39.8851 47.256 39.8186 47.186 39.7626C47.1511 39.7348 47.0969 39.6964 47.0258 39.6675C46.9562 39.6392 46.8326 39.6051 46.6856 39.642L46.9295 40.6118C46.7999 40.6444 46.6964 40.6131 46.6492 40.5938C46.6003 40.574 46.5707 40.551 46.5621 40.5442C46.5447 40.5303 46.5469 40.5281 46.5673 40.5543C46.6045 40.6021 46.6569 40.6852 46.7071 40.786L47.6025 40.3409ZM49.1861 40.5C48.7416 40.5 48.4146 40.4988 48.1668 40.4909C47.9137 40.4829 47.7735 40.4683 47.6909 40.4503C47.6208 40.435 47.6356 40.4264 47.6609 40.4512C47.6683 40.4585 47.6594 40.4552 47.6025 40.3409L46.7071 40.786C46.7544 40.8813 46.8301 41.0372 46.9612 41.1657C47.1102 41.3116 47.2878 41.3859 47.478 41.4274C47.6559 41.4661 47.8738 41.4821 48.135 41.4904C48.4016 41.4989 48.7451 41.5 49.1861 41.5V40.5ZM51.009 40.5H49.1861V41.5H51.009V40.5ZM50.509 27.0317V41H51.509V27.0317H50.509ZM47.6654 27.7684C47.704 27.7068 47.7227 27.6786 47.7384 27.6589C47.7448 27.6509 47.7483 27.6475 47.7494 27.6464C47.7503 27.6455 47.7504 27.6455 47.7506 27.6453C47.7512 27.645 47.7968 27.6131 48.0084 27.5868C48.444 27.5328 49.2678 27.5317 51.009 27.5317V26.5317C49.3126 26.5317 48.4003 26.5306 47.8854 26.5944C47.6217 26.6271 47.3885 26.6836 47.1921 26.8158C46.9934 26.9496 46.886 27.1289 46.8178 27.2378L47.6654 27.7684ZM47.119 28.4736C47.2114 28.4272 47.2713 28.3596 47.2776 28.3529C47.2997 28.3293 47.3195 28.3051 47.3352 28.285C47.3675 28.2438 47.4026 28.1941 47.4377 28.1417C47.5088 28.0356 47.594 27.8975 47.678 27.7472L46.8052 27.2591C46.733 27.3882 46.6619 27.5032 46.6072 27.5848C46.5793 27.6262 46.5591 27.6541 46.5474 27.669C46.5412 27.677 46.5418 27.6756 46.5482 27.6688C46.5513 27.6655 46.5603 27.6561 46.574 27.6441C46.5834 27.636 46.6173 27.6066 46.6697 27.5802L47.119 28.4736ZM46.0951 28.1629C46.226 28.2506 46.3618 28.3389 46.4739 28.4018C46.5269 28.4316 46.5951 28.4675 46.6646 28.4927C46.6969 28.5044 46.7576 28.5244 46.8319 28.5305C46.8876 28.535 47.0859 28.5435 47.2489 28.3795L46.5398 27.6744C46.6178 27.596 46.7057 27.5602 46.7712 27.5448C46.8338 27.53 46.8849 27.5315 46.9135 27.5338C46.9678 27.5382 47.0032 27.5517 47.0053 27.5525C47.0146 27.5558 47.0036 27.5524 46.9633 27.5298C46.8888 27.488 46.7815 27.4191 46.652 27.3323L46.0951 28.1629ZM44.6563 27.5246C45.228 27.7106 45.8696 28.007 46.0892 28.1588L46.6579 27.3363C46.3219 27.104 45.5746 26.7718 44.9658 26.5737L44.6563 27.5246ZM42.743 27.1997C43.241 27.1845 44.0495 27.3267 44.656 27.5245L44.9661 26.5738C44.2879 26.3526 43.3603 26.1804 42.7125 26.2002L42.743 27.1997ZM40.9561 27.4424C41.3957 27.3161 42.2172 27.2 42.7277 27.2V26.2C42.1271 26.2 41.2125 26.3283 40.6799 26.4813L40.9561 27.4424ZM78.7874 26.5975C78.2343 26.8014 77.5261 27.1723 77.1798 27.4385L77.7895 28.2312C78.0335 28.0435 78.6447 27.7159 79.1334 27.5357L78.7874 26.5975ZM80.9569 26.2C80.2754 26.2 79.4135 26.3493 78.7762 26.6018L79.1445 27.5315C79.653 27.33 80.3884 27.2 80.9569 27.2V26.2ZM83.2489 26.4769C82.5885 26.3109 81.5695 26.181 80.9417 26.2002L80.9721 27.1997C81.4901 27.1839 82.4155 27.2985 83.0051 27.4468L83.2489 26.4769ZM85.2054 27.213C84.7685 26.9533 83.9006 26.6224 83.2361 26.4739L83.018 27.4498C83.6035 27.5807 84.3675 27.8783 84.6945 28.0726L85.2054 27.213ZM86.7935 28.5613C86.3381 28.0666 85.6414 27.4721 85.2054 27.213L84.6945 28.0726C85.0224 28.2675 85.6452 28.7904 86.0578 29.2386L86.7935 28.5613ZM88.0771 30.4879C87.8133 29.9194 87.2469 29.0553 86.794 28.5619L86.0573 29.238C86.4377 29.6526 86.9477 30.4298 87.17 30.9088L88.0771 30.4879ZM88.7232 32.6173C88.612 32.0024 88.323 31.058 88.0827 30.5005L87.1644 30.8962C87.3755 31.3863 87.642 32.2578 87.7392 32.7953L88.7232 32.6173ZM88.7268 35.1298C88.8533 34.1844 88.856 33.3991 88.7241 32.6226L87.7382 32.79C87.8495 33.4453 87.8521 34.1266 87.7356 34.9971L88.7268 35.1298ZM88.045 37.573C88.3098 36.9832 88.6162 35.8898 88.726 35.1354L87.7364 34.9914C87.6378 35.6688 87.354 36.6706 87.1327 37.1634L88.045 37.573ZM86.6715 39.6106C87.1571 39.0846 87.7593 38.1861 88.042 37.5794L87.1356 37.157C86.8976 37.6678 86.3539 38.4804 85.9367 38.9322L86.6715 39.6106ZM85.001 40.9578C85.4587 40.7276 86.1825 40.1207 86.665 39.6174L85.9432 38.9253C85.4882 39.3999 84.8579 39.9104 84.5517 40.0644L85.001 40.9578ZM83.5592 41.5918C83.9528 41.4478 84.6039 41.176 85.0168 40.9494L84.5359 40.0727C84.1849 40.2652 83.586 40.5172 83.2157 40.6526L83.5592 41.5918ZM81.3909 41.8666C82.133 41.8666 83.0917 41.7418 83.5398 41.5984L83.2351 40.646C82.9193 40.747 82.0724 40.8666 81.3909 40.8666V41.8666ZM78.8581 41.493C79.6324 41.7442 80.4782 41.8666 81.3909 41.8666V40.8666C80.5675 40.8666 79.8276 40.7562 79.1667 40.5418L78.8581 41.493ZM77.8319 41.1507C77.7706 41.1507 77.7261 41.1372 77.7603 41.1451C77.7712 41.1476 77.7908 41.1526 77.8206 41.1608C77.8793 41.1769 77.9629 41.2014 78.0667 41.2334C78.2736 41.2971 78.5504 41.387 78.8495 41.4901L79.1754 40.5447C78.8669 40.4383 78.5795 40.3449 78.361 40.2776C78.2521 40.2441 78.1577 40.2163 78.0851 40.1964C78.0493 40.1866 78.0149 40.1776 77.985 40.1707C77.9783 40.1692 77.9062 40.1507 77.8319 40.1507V41.1507ZM78.2451 45.8888C78.2451 43.8551 78.2538 42.5496 78.2689 41.7537C78.2764 41.3545 78.2855 41.0898 78.2954 40.9276C78.3005 40.8441 78.3051 40.8002 78.3078 40.7825C78.3097 40.7697 78.3079 40.7885 78.2977 40.8198C78.2937 40.832 78.2779 40.8806 78.2402 40.9358C78.2137 40.9747 78.0847 41.1507 77.8319 41.1507V40.1507C77.5758 40.1507 77.4436 40.3291 77.4139 40.3726C77.373 40.4326 77.354 40.4882 77.3469 40.51C77.3305 40.5603 77.3227 40.6083 77.3186 40.6355C77.3094 40.6976 77.3028 40.7769 77.2973 40.8666C77.286 41.0509 77.2767 41.3329 77.269 41.7347C77.2538 42.5408 77.2451 43.8543 77.2451 45.8888H78.2451ZM73.0576 46.3888H77.7451V45.3888H73.0576V46.3888ZM72.5576 27.2063V45.8888H73.5576V27.2063H72.5576ZM74.7069 26.7063H73.0576V27.7063H74.7069V26.7063ZM76.6004 26.9715C76.3595 26.8156 76.0937 26.7578 75.805 26.7315C75.5234 26.7058 75.162 26.7063 74.7069 26.7063V27.7063C75.1823 27.7063 75.4889 27.7068 75.7141 27.7274C75.9323 27.7473 76.0122 27.782 76.0571 27.8111L76.6004 26.9715ZM77.3945 27.9824C77.2662 27.7648 77.1503 27.5676 77.0367 27.4085C76.9192 27.2441 76.7838 27.0902 76.6004 26.9715L76.0571 27.8111C76.0946 27.8353 76.1442 27.8795 76.2229 27.9897C76.3054 28.1052 76.3967 28.2591 76.5332 28.4905L77.3945 27.9824ZM77.1794 27.4389L76.6585 27.8405L77.2691 28.6324L77.79 28.2308L77.1794 27.4389ZM108.487 27.9746C108.719 27.8236 109.321 27.5784 109.819 27.4448L109.56 26.4789C109.016 26.6247 108.299 26.9033 107.941 27.1364L108.487 27.9746ZM107.59 28.7171C107.82 28.4702 108.238 28.131 108.48 27.9788L107.948 27.1322C107.634 27.3292 107.149 27.7234 106.859 28.0352L107.59 28.7171ZM106.974 29.6692C107.094 29.3826 107.374 28.9349 107.579 28.7287L106.87 28.0236C106.554 28.3412 106.209 28.9062 106.051 29.283L106.974 29.6692ZM106.623 30.8746C106.686 30.5238 106.85 29.9653 106.974 29.6692L106.051 29.2831C105.897 29.6505 105.714 30.2793 105.638 30.6967L106.623 30.8746ZM106.769 32.3113C106.607 31.7264 106.569 31.2244 106.625 30.8613L105.636 30.7101C105.553 31.2548 105.619 31.9052 105.805 32.5775L106.769 32.3113ZM107.475 33.6109C107.181 33.3152 106.924 32.8717 106.769 32.3113L105.805 32.5775C105.997 33.2742 106.33 33.8783 106.766 34.316L107.475 33.6109ZM108.677 34.4141C108.29 34.2433 107.737 33.8747 107.475 33.6109L106.766 34.316C107.128 34.6807 107.79 35.1154 108.272 35.3286L108.677 34.4141ZM110.826 35.009C110.023 34.8543 109.059 34.5834 108.677 34.4141L108.272 35.3286C108.757 35.5434 109.808 35.8313 110.637 35.9909L110.826 35.009ZM112.984 35.5847C112.783 35.4952 112.435 35.3942 112.07 35.2996C111.69 35.2014 111.249 35.0994 110.836 35.011L110.627 35.9889C111.03 36.0751 111.457 36.1739 111.819 36.2677C112.196 36.3652 112.464 36.4476 112.576 36.4977L112.984 35.5847ZM113.835 36.8095C113.835 36.571 113.809 36.2959 113.634 36.05C113.467 35.8152 113.216 35.6835 112.976 35.5811L112.584 36.5013C112.795 36.591 112.822 36.6339 112.82 36.6305C112.809 36.6159 112.835 36.6289 112.835 36.8095H113.835ZM113.236 38.0076C113.646 37.7263 113.835 37.2984 113.835 36.8095H112.835C112.835 37.019 112.77 37.1148 112.671 37.1828L113.236 38.0076ZM112.033 38.3571C112.426 38.3571 112.915 38.2067 113.217 38.0204L112.69 37.17C112.54 37.2631 112.231 37.3571 112.033 37.3571V38.3571ZM110.747 37.9103C110.928 38.044 111.154 38.1518 111.366 38.2262C111.574 38.2994 111.816 38.3571 112.033 38.3571V37.3571C111.972 37.3571 111.85 37.3362 111.698 37.2828C111.549 37.2307 111.42 37.1639 111.34 37.1055L110.747 37.9103ZM110.058 36.8095C110.058 37.0556 110.176 37.2844 110.284 37.4415C110.403 37.6152 110.567 37.7864 110.759 37.9192L111.328 37.0966C111.242 37.0374 111.163 36.9554 111.109 36.8759C111.082 36.8369 111.066 36.8059 111.058 36.7864C111.049 36.7632 111.058 36.773 111.058 36.8095H110.058ZM108.214 36.9603C109.348 36.9603 109.884 36.9662 110.145 37.005C110.289 37.0263 110.221 37.0431 110.142 36.9603C110.04 36.8532 110.058 36.7299 110.058 36.8095H111.058C111.058 36.7232 111.06 36.4733 110.865 36.2696C110.694 36.0903 110.458 36.0404 110.293 36.0159C109.938 35.9631 109.302 35.9603 108.214 35.9603V36.9603ZM106.37 36.6698C106.37 36.8321 106.285 36.9443 106.221 36.9982C106.17 37.0413 106.13 37.0509 106.145 37.0461C106.171 37.0376 106.252 37.0199 106.429 37.0041C106.77 36.9736 107.335 36.9603 108.214 36.9603V35.9603C107.339 35.9603 106.732 35.9731 106.34 36.0081C106.15 36.025 105.974 36.0499 105.835 36.0954C105.766 36.1177 105.667 36.1571 105.577 36.2332C105.474 36.32 105.37 36.4682 105.37 36.6698H106.37ZM106.627 37.7142C106.552 37.4624 106.485 37.2063 106.438 37.0003C106.414 36.8971 106.395 36.8098 106.383 36.7438C106.369 36.6639 106.37 36.6491 106.37 36.6698H105.37C105.37 36.7516 105.386 36.8503 105.4 36.9226C105.415 37.0089 105.437 37.1125 105.463 37.2254C105.515 37.4515 105.588 37.7279 105.669 38L106.627 37.7142ZM107.678 39.3332C107.068 38.7352 106.822 38.3324 106.625 37.7068L105.671 38.0074C105.925 38.8136 106.27 39.3536 106.979 40.0477L107.678 39.3332ZM109.408 40.4364C108.73 40.2194 108.294 39.9519 107.683 39.3379L106.974 40.043C107.683 40.7559 108.254 41.117 109.103 41.3889L109.408 40.4364ZM112.207 40.7619C110.803 40.7619 110.12 40.6751 109.414 40.4386L109.097 41.3867C109.954 41.674 110.763 41.7619 112.207 41.7619V40.7619ZM114.854 40.3575C114.46 40.5477 114.214 40.6389 113.88 40.6916C113.524 40.7478 113.055 40.7619 112.207 40.7619V41.7619C113.043 41.7619 113.59 41.7497 114.036 41.6794C114.505 41.6054 114.85 41.4697 115.289 41.2583L114.854 40.3575ZM116.217 39.5421C115.992 39.7401 115.365 40.118 114.859 40.3553L115.284 41.2605C115.82 41.0089 116.547 40.5836 116.877 40.2928L116.217 39.5421ZM117.106 38.3155C116.99 38.5492 116.827 38.8135 116.659 39.0452C116.484 39.2864 116.331 39.4526 116.242 39.5211L116.852 40.3138C117.058 40.1552 117.279 39.8937 117.468 39.6329C117.665 39.3626 117.858 39.0507 118.002 38.7606L117.106 38.3155ZM117.523 36.5476C117.523 36.9275 117.498 37.2002 117.438 37.4549C117.379 37.7097 117.279 37.9686 117.106 38.3155L118.002 38.7606C118.194 38.3742 118.329 38.0394 118.412 37.6831C118.496 37.3267 118.523 36.9708 118.523 36.5476H117.523ZM117.238 35.0089C117.393 35.3493 117.523 35.9566 117.523 36.5476H118.523C118.523 35.8465 118.375 35.0919 118.148 34.5942L117.238 35.0089ZM116.624 34.0854C116.787 34.2366 117.082 34.6637 117.237 35.0075L118.149 34.5956C117.957 34.1712 117.593 33.6204 117.304 33.3526L116.624 34.0854ZM115.564 33.4429C115.969 33.6222 116.453 33.927 116.624 34.0854L117.304 33.3526C117.023 33.092 116.431 32.7333 115.968 32.5284L115.564 33.4429ZM113.414 32.8481C114.206 33.0005 115.181 33.2893 115.579 33.4495L115.953 32.5218C115.483 32.3328 114.444 32.028 113.604 31.8661L113.414 32.8481ZM111.336 32.3826C111.656 32.4772 112.596 32.6905 113.414 32.8481L113.604 31.8661C112.79 31.7094 111.89 31.5036 111.62 31.4237L111.336 32.3826ZM110.292 31.6352C110.399 31.8323 110.582 31.9913 110.745 32.1025C110.918 32.2206 111.128 32.3245 111.343 32.3847L111.612 31.4216C111.515 31.3944 111.404 31.3412 111.308 31.276C111.202 31.2039 111.168 31.1534 111.171 31.1584L110.292 31.6352ZM110.347 30.4019C110.245 30.5835 110.17 30.7818 110.154 30.9991C110.138 31.2225 110.189 31.429 110.283 31.6194L111.179 31.1742C111.152 31.1201 111.15 31.0908 111.152 31.0699C111.154 31.0427 111.165 30.9879 111.22 30.8901L110.347 30.4019ZM111.408 29.6547C111.198 29.7074 110.993 29.8115 110.823 29.9272C110.656 30.0412 110.483 30.1934 110.367 30.3697L111.2 30.9222C111.222 30.8891 111.284 30.823 111.386 30.7536C111.485 30.686 111.584 30.6417 111.652 30.6245L111.408 29.6547ZM112.812 29.8238C112.385 29.6302 111.837 29.5531 111.415 29.6531L111.645 30.6262C111.813 30.5865 112.133 30.6141 112.4 30.7348L112.812 29.8238ZM113.74 30.8686C113.647 30.371 113.263 30.0178 112.804 29.8202L112.408 30.7385C112.679 30.8552 112.746 30.9908 112.757 31.0519L113.74 30.8686ZM113.826 31.2993L113.739 30.8628L112.758 31.0578L112.845 31.4943L113.826 31.2993ZM117.762 30.8968H113.335V31.8968H117.762V30.8968ZM116.604 29.2085C116.82 29.5708 117.083 30.2178 117.268 31.4699L118.257 31.3237C118.06 29.9916 117.767 29.2069 117.463 28.6962L116.604 29.2085ZM115.487 28.093C115.855 28.3393 116.376 28.8503 116.611 29.2208L117.455 28.6839C117.135 28.1814 116.51 27.5749 116.044 27.2624L115.487 28.093ZM113.9 27.4273C114.377 27.5553 115.115 27.8689 115.508 28.1058L116.024 27.2496C115.549 26.9627 114.724 26.6129 114.159 26.4615L113.9 27.4273ZM111.873 27.1998C112.503 27.1835 113.427 27.3004 113.9 27.4273L114.159 26.4615C113.591 26.309 112.571 26.1815 111.847 26.2001L111.873 27.1998ZM109.819 27.4448C110.291 27.3181 111.237 27.2 111.86 27.2V26.2C111.163 26.2 110.129 26.3262 109.56 26.4789L109.819 27.4448ZM64.9187 34.1031V41H65.9187V34.1031H64.9187ZM64.9187 27.2063V34.1031H65.9187V27.2063H64.9187ZM70.1062 26.7063H65.4187V27.7063H70.1062V26.7063ZM70.6062 41V27.2063H69.6062V41H70.6062ZM65.4187 41.5H70.1062V40.5H65.4187V41.5ZM91.0055 36.8914L90.9534 32.0374L89.9534 32.0482L90.0055 36.9021L91.0055 36.8914ZM92.4827 39.1542C92.1701 38.8248 91.6931 38.1451 90.9522 36.6721L90.0588 37.1215C90.8109 38.6167 91.3409 39.4037 91.7574 39.8426L92.4827 39.1542ZM93.7754 40.1204C93.3856 39.9165 92.7888 39.4774 92.4831 39.1546L91.757 39.8422C92.1458 40.2527 92.8338 40.7564 93.312 41.0065L93.7754 40.1204ZM95.2417 40.6758C94.836 40.5616 94.1689 40.31 93.7611 40.1132L93.3263 41.0137C93.7865 41.2359 94.5084 41.5082 94.9707 41.6384L95.2417 40.6758ZM97.6071 40.8145C96.5489 40.8494 95.6473 40.7924 95.2443 40.6765L94.9681 41.6376C95.5373 41.8012 96.5802 41.8489 97.64 41.814L97.6071 40.8145ZM100.157 40.3189C99.7604 40.5018 99.4738 40.6075 99.1244 40.6778C98.7647 40.7502 98.3211 40.7886 97.6054 40.8146L97.6417 41.8139C98.367 41.7875 98.8782 41.7474 99.3215 41.6582C99.775 41.567 100.14 41.4282 100.576 41.2271L100.157 40.3189ZM101.748 39.1982C101.375 39.5731 100.642 40.0831 100.148 40.3234L100.585 41.2226C101.168 40.939 101.997 40.3665 102.457 39.9033L101.748 39.1982ZM102.78 37.8163C102.601 38.1907 102.136 38.8241 101.756 39.1907L102.45 39.9108C102.903 39.4743 103.444 38.7457 103.682 38.2471L102.78 37.8163ZM103.295 36.1094C103.196 36.6559 102.964 37.4311 102.78 37.8163L103.682 38.2471C103.915 37.7593 104.169 36.8932 104.279 36.2873L103.295 36.1094ZM103.46 31.1698C103.46 33.3777 103.373 35.5914 103.292 36.1239L104.281 36.2729C104.375 35.6529 104.46 33.3619 104.46 31.1698H103.46ZM103.46 27.2063V31.1698H104.46V27.2063H103.46ZM99.0993 27.7063H103.96V26.7063H99.0993V27.7063ZM99.2866 36.3337C99.4488 36.0074 99.5088 35.5514 99.5469 34.3525C99.5863 33.1142 99.5993 30.9842 99.5993 27.2063H98.5993C98.5993 30.9887 98.5862 33.1016 98.5474 34.3208C98.5074 35.5795 98.4372 35.7957 98.3911 35.8885L99.2866 36.3337ZM98.1769 37.3523C98.4031 37.2499 98.6275 37.0977 98.8162 36.9291C99.0008 36.764 99.1834 36.5545 99.2917 36.323L98.386 35.8992C98.3554 35.9644 98.2776 36.0692 98.1497 36.1835C98.0259 36.2942 97.8857 36.3865 97.7646 36.4413L98.1769 37.3523ZM97.1027 37.6587C97.257 37.6587 97.4596 37.6043 97.6102 37.5586C97.7853 37.5055 97.9843 37.434 98.1657 37.3572L97.7758 36.4364C97.6274 36.4992 97.4618 36.5587 97.3201 36.6016C97.2493 36.6231 97.1891 36.639 97.1433 36.649C97.0886 36.661 97.0811 36.6587 97.1027 36.6587V37.6587ZM96.0008 37.2863C96.1883 37.3856 96.3926 37.4736 96.5717 37.5377C96.6614 37.5699 96.7502 37.598 96.8315 37.6187C96.9027 37.6368 97.0033 37.6587 97.1027 37.6587V36.6587C97.1327 36.6587 97.1313 36.6631 97.0783 36.6496C97.0354 36.6387 96.9776 36.6209 96.9089 36.5963C96.7712 36.547 96.6109 36.4778 96.4686 36.4025L96.0008 37.2863ZM94.902 36.1562C95.0943 36.6395 95.5426 37.0778 96.0268 37.2991L96.4425 36.3897C96.1628 36.2618 95.9167 36.0017 95.8312 35.7866L94.902 36.1562ZM94.6062 31.3095C94.6062 32.9058 94.6191 33.9752 94.659 34.7024C94.6977 35.407 94.7632 35.868 94.9154 36.1867L95.8178 35.756C95.7617 35.6383 95.697 35.3659 95.6575 34.6475C95.6193 33.9517 95.6062 32.9084 95.6062 31.3095H94.6062ZM94.6062 27.2063V31.3095H95.6062V27.2063H94.6062ZM90.4013 27.7063H95.1062V26.7063H90.4013V27.7063ZM90.9534 32.0374L90.9013 27.2009L89.9014 27.2117L89.9534 32.0482L90.9534 32.0374Z" fill="#585978"/>
<path d="M17.502 31.8333L17.5194 29.5809L17.5367 27.346L18.9777 27.3984C20.3145 27.4682 20.4708 27.5032 20.9569 27.992C21.252 28.2714 21.5298 28.7428 21.5819 29.0397C21.634 29.319 21.5819 29.8778 21.4603 30.2444C21.3388 30.6285 21.0437 31.0825 20.8006 31.2571C20.5055 31.4841 19.9326 31.6238 17.502 31.8333Z" fill="#585978"/>
<path d="M41.2347 31.8682C41.5124 31.6063 42.0333 31.2746 42.4152 31.1174C42.8319 30.9603 43.3874 30.9079 43.8041 30.9603C44.186 31.0127 44.7416 31.1873 45.0194 31.3619C45.3145 31.5365 45.7138 31.9381 45.9395 32.2698C46.1479 32.6016 46.3735 33.1079 46.443 33.3873C46.4951 33.6841 46.4951 34.1905 46.443 34.5222C46.3735 34.8714 46.1479 35.4127 45.9395 35.7444C45.7138 36.0587 45.3492 36.4778 45.1062 36.6698C44.8631 36.8444 44.2902 37.0539 43.8041 37.1063C43.127 37.1762 42.7624 37.1238 42.1548 36.827C41.686 36.6 41.1999 36.1984 40.9395 35.7968C40.7138 35.4301 40.4881 34.8016 40.4534 34.3476C40.4013 33.9285 40.4708 33.3 40.5749 32.9508C40.6791 32.619 40.9742 32.1301 41.2347 31.8682Z" fill="#585978"/>
<path d="M78.8388 31.4317C79.1166 31.2746 79.5333 31.1 79.7937 31.0127C80.0541 30.9428 80.5749 30.9254 80.9569 30.9603C81.3388 31.0127 81.9465 31.2397 82.3111 31.4841C82.6583 31.7111 83.0749 32.1476 83.2138 32.427C83.3527 32.7238 83.5263 33.3 83.5784 33.7016C83.6652 34.2428 83.5958 34.6619 83.3527 35.2206C83.1791 35.6571 82.7624 36.2333 82.4326 36.4952C82.0159 36.827 81.5472 37.0016 80.8701 37.0889C80.0888 37.1762 79.7763 37.1238 79.186 36.827C78.7694 36.6174 78.3006 36.2333 78.1097 35.9714C77.9187 35.7095 77.693 35.1333 77.5888 34.6968C77.4673 34.1555 77.4673 33.719 77.6062 33.2127C77.7104 32.8285 77.9187 32.3397 78.0749 32.1127C78.2312 31.8857 78.5784 31.5714 78.8388 31.4317Z" fill="#585978"/>
<path d="M17.502 31.8333L17.5194 29.5809L17.5367 27.346L18.9777 27.3984C20.3145 27.4682 20.4708 27.5032 20.9569 27.992C21.252 28.2714 21.5298 28.7428 21.5819 29.0397C21.634 29.319 21.5819 29.8778 21.4603 30.2444C21.3388 30.6285 21.0437 31.0825 20.8006 31.2571C20.5055 31.4841 19.9326 31.6238 17.502 31.8333Z" stroke="#585978"/>
<path d="M41.2347 31.8682C41.5124 31.6063 42.0333 31.2746 42.4152 31.1174C42.8319 30.9603 43.3874 30.9079 43.8041 30.9603C44.186 31.0127 44.7416 31.1873 45.0194 31.3619C45.3145 31.5365 45.7138 31.9381 45.9395 32.2698C46.1479 32.6016 46.3735 33.1079 46.443 33.3873C46.4951 33.6841 46.4951 34.1905 46.443 34.5222C46.3735 34.8714 46.1479 35.4127 45.9395 35.7444C45.7138 36.0587 45.3492 36.4778 45.1062 36.6698C44.8631 36.8444 44.2902 37.0539 43.8041 37.1063C43.127 37.1762 42.7624 37.1238 42.1548 36.827C41.686 36.6 41.1999 36.1984 40.9395 35.7968C40.7138 35.4301 40.4881 34.8016 40.4534 34.3476C40.4013 33.9285 40.4708 33.3 40.5749 32.9508C40.6791 32.619 40.9742 32.1301 41.2347 31.8682Z" stroke="#585978"/>
<path d="M78.8388 31.4317C79.1166 31.2746 79.5333 31.1 79.7937 31.0127C80.0541 30.9428 80.5749 30.9254 80.9569 30.9603C81.3388 31.0127 81.9465 31.2397 82.3111 31.4841C82.6583 31.7111 83.0749 32.1476 83.2138 32.427C83.3527 32.7238 83.5263 33.3 83.5784 33.7016C83.6652 34.2428 83.5958 34.6619 83.3527 35.2206C83.1791 35.6571 82.7624 36.2333 82.4326 36.4952C82.0159 36.827 81.5472 37.0016 80.8701 37.0889C80.0888 37.1762 79.7763 37.1238 79.186 36.827C78.7694 36.6174 78.3006 36.2333 78.1097 35.9714C77.9187 35.7095 77.693 35.1333 77.5888 34.6968C77.4673 34.1555 77.4673 33.719 77.6062 33.2127C77.7104 32.8285 77.9187 32.3397 78.0749 32.1127C78.2312 31.8857 78.5784 31.5714 78.8388 31.4317Z" stroke="#585978"/>
</g>
</svg>
