<svg width="130" height="60" viewBox="0 0 130 60" fill="none" xmlns="http://www.w3.org/2000/svg">
<mask id="mask0_124_81" style="mask-type:alpha" maskUnits="userSpaceOnUse" x="0" y="0" width="130" height="60">
<rect width="130" height="60" fill="#D9D9D9"/>
</mask>
<g mask="url(#mask0_124_81)">
<path d="M99.3463 55C89.5031 55 81.4951 47.0795 81.4951 37.3443C81.4951 27.6092 89.5041 19.6876 99.3463 19.6876C109.189 19.6876 117.197 27.6081 117.197 37.3443C117.197 47.0783 109.189 55 99.3463 55ZM99.3463 21.8595C90.7162 21.8595 83.6809 28.807 83.6809 37.3544C83.6809 45.9018 90.705 52.8493 99.3463 52.8493C107.988 52.8493 115.011 45.9018 115.011 37.3544C115.011 28.807 107.977 21.8595 99.3463 21.8595Z" fill="#585978"/>
<path d="M94.7903 15.7868C94.7903 15.8304 94.736 15.8404 94.7248 15.798C94.2333 13.6795 89.786 4.82932 89.3273 5.00251C88.8033 5.18686 89.7645 14.2739 90.4637 16.9533C90.4751 16.9979 90.4209 17.008 90.3983 16.9756C87.2963 12.0807 83.7233 12.1779 83.0354 12.2751C82.9913 12.2862 82.9913 12.3399 83.024 12.3511C87.3064 14.5332 89.3726 20.7677 89.568 21.3834C89.5793 21.4057 89.6018 21.4169 89.6336 21.4057C92.0784 19.9455 94.8289 19.0584 97.6742 18.8125C97.6968 18.8125 97.7183 18.7901 97.7081 18.7689C97.576 18.218 96.3413 12.4907 98.7124 8.51421C98.735 8.48181 98.701 8.43935 98.6683 8.44941C98.0571 8.655 94.9213 10.503 94.7903 15.7868Z" fill="#585978"/>
<path d="M108.785 29.5825C109.532 27.6221 107.831 25.1731 104.985 24.1126C102.14 23.0523 99.2271 23.7818 98.481 25.7422C97.7341 27.7026 99.4356 30.1515 102.28 31.212C105.126 32.2724 108.038 31.5428 108.785 29.5825Z" fill="#585978"/>
<path d="M13.555 42.0225V33.0974H15.9915C16.8546 33.0974 17.6521 33.3029 18.0893 33.627C18.8213 34.1778 19.0179 35.1287 19.0179 35.6795C19.0179 36.5119 18.7332 37.0203 18.4496 37.3868C18.2091 37.6895 17.5979 37.97 17.1821 38.1331C17.7391 38.932 19.4223 42.1408 19.4223 42.1408H17.4341C17.4341 42.1408 15.5657 38.4024 15.3793 38.4024H15.0855V42.0225H13.555ZM15.8594 34.6527H15.0845V36.6951H15.8605C16.352 36.6951 16.6253 36.6091 16.8987 36.4259C17.1709 36.2415 17.3132 35.9934 17.3132 35.6795C17.3132 35.3655 17.1822 35.1175 16.9088 34.9343C16.6366 34.751 16.3621 34.6527 15.8594 34.6527ZM6.50946 42.0225V33.0974H8.945C9.80803 33.0974 10.6055 33.3029 11.0426 33.627C11.7747 34.1778 11.9712 35.1287 11.9712 35.6795C11.9712 37.0091 11.0968 37.9375 10.2667 38.1544C9.34941 38.3923 8.03787 38.4024 8.03787 38.4024V42.0225H6.50946ZM8.8252 34.6527H8.04911V36.6951H8.8252C9.31655 36.6951 9.58991 36.6091 9.86339 36.4259C10.1367 36.2426 10.2779 35.9934 10.2779 35.6795C10.2779 35.3655 10.1469 35.1175 9.8735 34.9343C9.60014 34.751 9.32793 34.6527 8.8252 34.6527ZM86.3358 42.1408V33.2158H88.8809C89.7439 33.2158 90.5415 33.4214 90.9786 33.7454C91.7106 34.2963 91.9071 35.247 91.9071 35.799C91.9071 36.6303 91.6225 37.1386 91.339 37.5063C91.0983 37.808 90.4873 38.0895 90.0715 38.2515C89.5259 38.4571 88.0947 38.4135 88.0947 38.4135L88.0833 42.1521L86.3358 42.1408ZM88.7611 34.7723H88.0947V36.8146H88.7611C89.2526 36.8146 89.5259 36.7275 89.7982 36.5443C90.0715 36.361 90.2138 36.1119 90.2138 35.799C90.2138 35.4862 90.0828 35.237 89.8094 35.0527C89.536 34.8583 89.2627 34.7723 88.7611 34.7723ZM38.8349 34.3298L37.6443 35.485C36.9235 34.8259 35.7985 34.2538 34.8473 34.2538C34.4215 34.2538 34.0171 34.3287 33.6454 34.4807C33.2749 34.6314 32.936 34.837 32.6514 35.1175C32.3542 35.4104 32.1266 35.765 31.9848 36.1555C31.8159 36.5974 31.7308 37.0663 31.7341 37.5386C31.7341 38.5331 32.0176 39.332 32.5858 39.9375C33.154 40.5521 33.9075 40.856 34.836 40.856C35.5579 40.856 36.1803 40.6291 36.7158 40.1967C37.0207 39.9476 37.3935 39.732 37.5573 39.0191L34.8575 39.008L34.836 37.4739H39.5014C39.5014 39.1375 39.1964 39.9476 38.3323 40.9207C37.4805 41.8928 36.3114 42.3788 34.8259 42.3788C34.1489 42.3863 33.4771 42.2615 32.849 42.0112C32.2367 41.7632 31.7126 41.4392 31.2755 41.0069C30.8382 40.5744 30.4882 40.0671 30.2475 39.4827C29.995 38.8694 29.8692 38.2121 29.877 37.5499C29.877 36.6203 30.095 35.799 30.5209 35.075C30.958 34.3398 31.5488 33.7678 32.3023 33.3678C33.0714 32.9618 33.9314 32.7535 34.8033 32.7622C35.5579 32.7622 36.2243 32.8807 36.8027 33.1085C37.3822 33.3354 38.4305 33.9957 38.8349 34.3298ZM49.8794 33.0974L51.2891 42.0225H49.563L48.744 36.361L46.7446 42.0225H45.1608L43.1173 36.285L42.3199 42.0225H40.6153L42.0465 33.0974H43.6314L45.9696 39.7207L48.2967 33.0974H49.8794ZM123.065 33.4325L123.491 36.1331H122.966L122.715 34.4158L122.113 36.1331H121.633L121.021 34.3934L120.781 36.1331H120.268L120.694 33.4325H121.174L121.874 35.4415L122.572 33.4325H123.065ZM56.2708 32.989H57.833L61.5912 42.142H59.6359L58.8711 40.2827H55.2654L54.5006 42.142H52.622L56.2708 32.989ZM58.3358 38.5755L57.7132 37.1164C57.4645 36.4763 57.2384 35.8279 57.0355 35.1723H56.9915C56.6978 36.1331 56.4787 36.7811 56.3589 37.1164L55.7466 38.5644H58.3358V38.5755ZM101.891 32.989H103.466L107.223 42.142H105.267L104.502 40.2827H100.899L100.134 42.142H98.2546L101.891 32.989ZM103.956 38.5755L103.335 37.1164C103.086 36.4764 102.86 35.8279 102.657 35.1723H102.613C102.319 36.1331 102.1 36.7811 101.98 37.1164L101.368 38.5644H103.956V38.5755ZM24.283 32.989H25.8453L29.6036 42.142H27.6482L26.8835 40.2827H23.2788L22.514 42.142H20.6344L24.283 32.989ZM26.3367 38.5755L25.7154 37.1164C25.4666 36.4763 25.2406 35.8279 25.0376 35.1723H24.9924C24.6987 36.1331 24.4795 36.7811 24.3599 37.1164L23.7476 38.5644H26.3367V38.5755ZM61.3721 34.7287V33.0113H66.7696V34.7298H64.9667V42.1207H63.1638V34.7298L61.3721 34.7287ZM118.476 33.9298V33.4103H120.102V33.9298H119.558V36.1655H119.012V33.9298H118.476ZM68.0043 42.2068V33.1085H69.7958V42.2068H68.0043ZM92.9227 42.2068V33.2158H94.7256V40.542H97.2278V42.2068H92.9227ZM108.665 42.1308V38.1979L105.913 33.1622H107.573L109.463 36.6739H109.497L111.385 33.1622H113.046L110.249 38.1979V42.1308H108.665ZM76.2629 40.8884C75.8429 40.9101 75.4234 40.8377 75.0355 40.6767C74.6477 40.5159 74.3015 40.2704 74.0229 39.9587C73.4445 39.3431 73.1598 38.5431 73.1598 37.5599C73.1598 36.5879 73.4445 35.7879 74.0229 35.1723C74.6024 34.5555 75.3445 34.2427 76.2629 34.2427C78.2952 34.2427 79.1141 35.5723 79.1141 35.5723L80.2291 34.6002C79.8437 34.0927 79.3564 33.6693 78.7978 33.3565C78.0546 32.9354 77.2028 32.7298 76.2743 32.7298C75.3456 32.7298 74.4929 32.9354 73.7394 33.3565C72.9859 33.7778 72.3951 34.351 71.9692 35.085C71.5373 35.8393 71.3151 36.6931 71.3253 37.5599L71.3027 37.5711C71.3027 38.4784 71.5219 39.3107 71.9466 40.056C72.3736 40.7912 72.9633 41.3744 73.7179 41.7956C74.4714 42.2168 75.3129 42.4213 76.2516 42.4213C77.1801 42.4213 78.0218 42.2068 78.7753 41.7845C79.3547 41.4605 79.8348 41.0392 80.2291 40.5207L79.1029 39.418C79.1029 39.418 78.0331 40.8336 76.2629 40.8884Z" fill="#585978"/>
</g>
</svg>
