<svg width="130" height="60" viewBox="0 0 130 60" fill="none" xmlns="http://www.w3.org/2000/svg">
<mask id="mask0_140_3731" style="mask-type:alpha" maskUnits="userSpaceOnUse" x="0" y="0" width="130" height="60">
<rect width="130" height="60" fill="#D9D9D9"/>
</mask>
<g mask="url(#mask0_140_3731)">
<path d="M51.8399 26.9478H56.4135V33.028C55.6673 33.273 54.9693 33.4449 54.3195 33.5428C53.6694 33.6409 52.9955 33.6899 52.3214 33.6899C50.5883 33.6899 49.2644 33.1751 48.3497 32.1209C47.4349 31.0911 46.9777 29.5957 46.9777 27.6343C46.9777 25.7465 47.5072 24.2754 48.5664 23.1967C49.6254 22.1425 51.0939 21.6031 52.9955 21.6031C54.1749 21.6031 55.3063 21.8483 56.4135 22.3141L55.5951 24.3C54.7526 23.8832 53.8861 23.6626 52.9714 23.6626C51.9123 23.6626 51.0698 24.0303 50.4438 24.7413C49.818 25.4524 49.4811 26.433 49.4811 27.6588C49.4811 28.9336 49.7458 29.9143 50.2514 30.5763C50.7569 31.2382 51.503 31.5814 52.49 31.5814C52.9955 31.5814 53.5249 31.5326 54.0304 31.4099V28.9582H51.8399V26.9478Z" fill="#585978"/>
<path d="M69.241 33.3049L68.3985 30.5101H64.1861L63.3436 33.3049H60.7199L64.7878 21.5125H67.7727L71.8648 33.3049H69.241ZM67.8208 28.4261C67.0505 25.9009 66.6173 24.4544 66.5211 24.1357C66.4247 23.7925 66.3525 23.5473 66.3042 23.3511C66.1358 24.0376 65.6303 25.7293 64.8119 28.4261H67.8208Z" fill="#585978"/>
<path d="M80.6984 33.3021L77.9304 24.1082H77.8581C77.9545 25.9714 78.0026 27.2219 78.0026 27.8592V33.3266H75.8121V21.583H79.1339L81.8541 30.556H81.9024L84.7909 21.583H88.1122V33.3266H85.8258V27.7612C85.8258 27.4915 85.8258 27.1973 85.8258 26.8541C85.8258 26.5108 85.8741 25.6037 85.9217 24.1327H85.8499L82.8889 33.3266H80.6984V33.3021Z" fill="#585978"/>
<path d="M93.552 21.583H95.9836V33.3266H93.552V21.583Z" fill="#585978"/>
<path d="M111.629 33.3021H108.525L103.518 24.4269H103.446C103.542 25.996 103.59 27.1237 103.59 27.7858V33.3021H101.4V21.583H104.481L109.487 30.36H109.536C109.463 28.84 109.415 27.7612 109.415 27.1237V21.583H111.606V33.3021H111.629Z" fill="#585978"/>
<path d="M121.426 26.7329H126V32.8132C125.254 33.0582 124.556 33.23 123.906 33.328C123.256 33.4261 122.582 33.475 121.908 33.475C120.175 33.475 118.851 32.9602 117.937 31.9061C117.022 30.8763 116.564 29.3809 116.564 27.4194C116.564 25.5317 117.094 24.0606 118.153 22.9819C119.212 21.9277 120.681 21.3883 122.582 21.3883C123.762 21.3883 124.893 21.6334 126 22.0993L125.182 24.0852C124.339 23.6684 123.473 23.4477 122.558 23.4477C121.499 23.4477 120.657 23.8155 120.03 24.5264C119.405 25.2375 119.067 26.2181 119.067 27.444C119.067 28.7188 119.332 29.6994 119.838 30.3615C120.343 31.0234 121.089 31.3665 122.077 31.3665C122.582 31.3665 123.112 31.3175 123.617 31.195V28.7434H121.426V26.7329Z" fill="#585978"/>
<path d="M27.0433 7.88269C28.8726 8.98595 29.3781 10.457 29.4262 12.639C29.5225 16.5126 30.1725 20.3617 30.6297 24.2109C30.7743 25.4367 31.1593 26.3929 32.6278 26.3929C32.8443 26.3929 33.8072 26.2948 33.5905 26.8587C32.724 27.0058 32.1704 27.0794 31.376 27.2019C31.7851 28.5748 32.1704 29.8742 32.6036 31.2963C34.5293 30.3892 36.2623 29.5556 38.0196 28.7219C38.1399 28.9425 38.0918 28.8446 38.2123 29.0652C37.0808 29.8498 35.9496 30.6098 34.8181 31.3944C32.7721 32.7917 32.9407 32.424 33.7108 34.7286C35.2033 39.1417 36.7438 43.5301 38.2604 47.9186C39.1269 50.4192 37.7548 52.6259 35.5162 52.3071C34.8904 52.2336 34.2164 51.8659 33.7591 51.449C31.4001 49.2426 29.0412 47.0361 26.8026 44.7315C23.4807 41.2746 23.7936 37.3765 27.5487 34.3363C29.5225 32.7427 29.5225 32.7427 28.8004 30.3402C27.982 27.6188 28.0061 27.6433 25.3824 28.771C24.2028 29.2858 23.4567 30.0215 23.0233 31.2963C22.614 32.4731 21.9642 33.6008 21.194 34.5569C20.7126 35.1698 19.822 35.4396 19.1238 35.8563L18.7387 35.4396C18.9795 34.9002 19.2441 34.3609 19.4848 33.8215C19.7015 33.3067 19.9182 32.7917 20.1349 32.2525C19.8941 32.0808 19.9422 32.1052 19.6775 31.9338C18.0406 33.5273 16.3797 35.0965 14.7911 36.739C12.9376 38.6759 10.8916 40.3184 8.3401 41.1765C6.84758 41.6913 5.45146 41.5932 4.27202 40.3675C3.86272 39.8525 3.95912 39.3869 4.27202 38.7248C6.43846 35.9054 10.3861 33.6744 11.9989 34.6061C12.408 35.0965 8.12342 36.935 8.79734 37.3519C10.8916 37.5971 12.7209 35.5377 13.1062 34.1892C13.2264 33.7969 12.4803 33.4782 12.745 33.184C13.4912 32.3996 13.3709 31.6394 12.7931 30.8794C12.2877 30.2421 11.7341 29.6536 11.1805 29.0898C9.5436 27.349 7.69007 25.731 6.17367 23.8676C4.10346 21.3179 4.1758 18.4249 6.10133 15.7526C8.91779 11.8544 12.6487 9.18211 17.2222 7.66205C17.5591 7.78461 17.8241 7.85821 18.1611 7.98076C19.3646 9.84402 19.2202 11.8054 17.5352 13.3499C16.163 14.6248 14.6466 15.7526 13.1543 16.9049C12.8173 17.1746 12.3358 17.2236 11.9025 17.3707L11.5655 16.9784C12.3358 15.7771 13.1062 14.5513 13.8522 13.3499C13.732 13.2029 13.732 13.1783 13.6357 13.0312C12.0229 13.4235 11.1323 14.7474 10.1935 15.9732C9.1343 17.3462 9.06213 18.8662 9.8565 20.4108C10.2416 21.1708 10.6749 21.9063 11.2045 22.5928C13.395 25.3877 16.6204 27.3246 17.7518 31.4679C19.2683 30.1194 21.0495 29.3104 21.555 27.9619C22.9271 24.456 23.938 20.754 24.7564 17.0765C25.3824 14.2571 25.5267 11.3641 25.8396 8.47108C26.3692 8.2014 26.5137 8.12788 27.0433 7.88269ZM30.0039 34.1646C29.0652 35.0719 28.3671 35.6848 27.7653 36.3713C26.0804 38.3817 25.8156 40.1959 27.3321 41.9856C29.4262 44.4127 31.7851 46.5702 34.048 48.8503C34.1682 48.7767 34.2885 48.6786 34.409 48.6051C32.9888 43.9223 31.5686 39.2642 30.0039 34.1646ZM26.634 20.4598C26.5618 20.4598 26.4897 20.4598 26.4173 20.4353C25.7434 22.6664 25.0693 24.9219 24.3232 27.4225C25.4063 27.1038 26.273 26.9323 27.0674 26.5644C27.3562 26.4419 27.6932 25.8535 27.621 25.5594C27.3562 23.8431 26.971 22.1515 26.634 20.4598Z" fill="#585978"/>
<path d="M39.3433 26.5641C38.0917 27.6674 36.9604 27.7655 36.2382 27.0545C36.0456 26.8582 35.8048 26.4415 35.9012 26.2699C36.0215 26.0003 36.4549 25.7551 36.6716 25.7305C37.8269 25.5589 39.8729 26.1718 39.3433 26.5641Z" fill="#585978"/>
</g>
</svg>
