<svg width="130" height="60" viewBox="0 0 130 60" fill="none" xmlns="http://www.w3.org/2000/svg">
<mask id="mask0_124_851" style="mask-type:alpha" maskUnits="userSpaceOnUse" x="0" y="0" width="130" height="60">
<rect width="130" height="60" fill="#D9D9D9"/>
</mask>
<g mask="url(#mask0_124_851)">
<path fill-rule="evenodd" clip-rule="evenodd" d="M17.138 35.3807V33.4413H22.3703V35.6983C22.3703 37.7641 23.1863 38.7975 24.8169 38.7975H24.8376C26.4535 38.7975 27.2626 37.7675 27.2626 35.7083C27.2626 34.5318 26.9143 33.429 26.2156 32.399C25.518 31.3688 24.6837 30.4272 23.7126 29.5738L21.0901 26.9264C20.0063 26.0004 19.0996 24.8529 18.3699 23.485C17.6389 22.1161 17.2735 20.6006 17.2735 18.9386C17.2735 16.3808 17.963 14.419 19.3421 13.0512C20.7199 11.6834 22.5933 11 24.9594 11C27.3256 11 29.1427 11.6834 30.4114 13.0501C31.68 14.4168 32.3144 16.3785 32.3144 18.9353V19.9497H27.4888V18.6277C27.4888 16.5553 26.6362 15.5185 24.9296 15.5185C23.223 15.5185 22.3703 16.5564 22.3703 18.63C22.3703 19.4978 22.5565 20.3255 22.9276 21.1129C23.2989 21.9002 23.7804 22.6093 24.3722 23.2423C24.964 23.8743 25.6168 24.4995 26.3293 25.1168C27.0419 25.7353 27.7464 26.3829 28.4404 27.0596C29.1346 27.7362 29.777 28.4597 30.3666 29.2326C30.9549 30.0043 31.4341 30.917 31.8042 31.9683C32.1742 33.0208 32.3593 34.1638 32.3593 35.3997C32.3593 37.9509 31.71 39.9081 30.4114 41.2715C29.1127 42.6348 27.2798 43.3171 24.9123 43.3171C22.545 43.3171 20.6567 42.6336 19.2491 41.267C17.8413 39.9003 17.138 37.9375 17.138 35.3807ZM40.355 26.5846H42.7787C43.6084 26.5846 44.2314 26.3564 44.6474 25.9012C45.0623 25.446 45.2702 24.6742 45.2702 23.586V18.8472C45.2702 17.759 45.0623 16.9918 44.6474 16.5432C44.2314 16.0948 43.6084 15.8711 42.7787 15.8711H40.355V26.5846ZM35.2583 42.9629V11.3526H42.7673C47.833 11.3526 50.3669 13.9642 50.3669 19.1861V23.2918C50.3669 28.4992 47.8353 31.1041 42.773 31.1041H40.355V42.9629H35.2583ZM59.834 25.5918H57.8412V15.8704H60.3097C62.0463 15.8704 62.9071 16.9586 62.8921 19.1329V22.241C62.8921 23.4467 62.6393 24.3056 62.1336 24.8201C61.6279 25.3346 60.8614 25.5918 59.834 25.5918ZM52.7445 11.3508V42.9622H57.8412V30.1113H59.6076C60.7856 30.1113 61.6348 30.4224 62.1566 31.0465C62.6772 31.6693 62.9381 32.7005 62.9381 34.1377V39.0891C62.953 40.7768 63.1104 42.0674 63.4104 42.9622H68.5773C68.2153 42.1558 68.0337 40.9456 68.0337 39.3317V34.2697C68.0337 30.7109 66.9063 28.4684 64.6514 27.5412C66.8764 26.5122 67.9888 24.3728 67.9888 21.1225V18.6307C67.9888 16.1601 67.3855 14.3292 66.1789 13.1381C64.9733 11.947 63.0575 11.3508 60.4351 11.3508H52.7445ZM71.3868 42.9632H76.4837V11.3518H71.3868V42.9632ZM88.2168 38.4444H85.2942V28.7453H87.5826C88.7607 28.7453 89.6017 29.0238 90.1075 29.583C90.614 30.1411 90.867 31.14 90.867 32.5804V35.3362C90.867 36.4826 90.6473 37.2868 90.2099 37.7498C89.7717 38.2128 89.1074 38.4444 88.2168 38.4444ZM87.2965 24.2258H85.2942V15.8711H87.7744C89.5188 15.8711 90.3828 16.9593 90.3684 19.1335V20.8973C90.3684 22.0873 90.1142 22.9396 89.6054 23.454C89.0972 23.9685 88.3274 24.2258 87.2965 24.2258ZM80.1978 11.3526V42.9639H88.2168C90.7531 42.9639 92.6778 42.3243 93.9927 41.0458C95.3063 39.7674 95.9628 37.9075 95.9628 35.4682V32.8891C95.9628 29.3482 94.7135 27.0911 92.176 26.1215C94.3813 25.1228 95.4648 22.9988 95.4648 19.7509V18.6269C95.4648 16.1574 94.8603 14.3276 93.6526 13.1376C92.4449 11.9476 90.5268 11.3526 87.8997 11.3526H80.1978ZM99.021 42.9632V11.3518H112.928V15.8714H104.118V24.6667H111.116V29.1851H104.118V38.4435H112.928V42.9632H99.021ZM113 49.3999H17V45.0112H113V49.3999Z" fill="#585978"/>
</g>
</svg>
