<svg width="130" height="60" viewBox="0 0 130 60" fill="none" xmlns="http://www.w3.org/2000/svg">
<mask id="mask0_124_809" style="mask-type:alpha" maskUnits="userSpaceOnUse" x="0" y="0" width="130" height="60">
<rect width="130" height="60" fill="#585978"/>
</mask>
<g mask="url(#mask0_124_809)">
<path d="M54.042 30.5746C54.2411 30.5746 54.4005 30.6543 54.5198 30.7737C54.6392 30.8931 54.7189 31.0523 54.7189 31.2512V34.1962C54.7189 34.3951 54.6392 34.5543 54.5198 34.6737C54.4005 34.793 54.2411 34.8727 54.042 34.8727H47.9108C48.309 34.8727 48.6276 35.0318 48.946 35.3104C49.2645 35.589 49.4239 35.9074 49.4239 36.2655V48.3633C49.4239 48.5624 49.3442 48.7216 49.2248 48.8011C49.1053 48.9205 48.946 49 48.747 49H45.0842C44.8851 49 44.7259 48.9205 44.6065 48.8011C44.4473 48.6817 44.4074 48.5624 44.4074 48.3633V35.6288C44.4074 35.3901 44.3278 35.191 44.1685 35.0318C44.0093 34.8727 43.8102 34.8329 43.6112 34.8329H39.7892C39.6299 34.8329 39.4707 34.7532 39.3113 34.6338C39.1521 34.5144 39.1122 34.3552 39.1122 34.1563V32.8431C39.1122 32.5248 39.1919 32.2064 39.3113 31.9278C39.4309 31.6492 39.6299 31.4104 39.829 31.2115C40.0677 31.0125 40.3067 30.8532 40.5854 30.7339C40.864 30.6145 41.1428 30.5746 41.4214 30.5746H54.042Z" fill="#585978"/>
<path d="M72.5154 30.5742C72.6746 30.5742 72.7942 30.6141 72.9135 30.7334C73.0329 30.8528 73.0727 30.9722 73.0727 31.0916C73.0727 31.2109 73.0727 31.2906 73.0331 31.3303L67.698 48.2037C67.6583 48.4027 67.5388 48.6016 67.3397 48.7608C67.1805 48.9201 66.9416 48.9597 66.5833 48.9597H62.3631C62.0447 48.9597 61.7659 48.8802 61.6067 48.7608C61.4475 48.6016 61.2883 48.4027 61.2484 48.2037L55.9135 31.3303L55.8737 31.0916C55.8737 30.9323 55.9135 30.813 56.0329 30.7334C56.1525 30.6141 56.3117 30.5742 56.4709 30.5742H59.8948C60.1735 30.5742 60.4123 30.6537 60.5717 30.7731C60.7309 30.9323 60.8503 31.0916 60.8901 31.2508L64.3538 42.7119C64.3538 42.7914 64.3937 42.8312 64.4732 42.8312C64.5529 42.8312 64.5928 42.7914 64.5928 42.7119L68.0962 31.2508C68.1759 31.012 68.2952 30.8528 68.4545 30.7334C68.6139 30.6141 68.8526 30.5742 69.0517 30.5742H72.5154Z" fill="#585978"/>
<path d="M74.2677 48.3231V32.8427C74.2677 32.4447 74.3474 32.0864 74.5066 31.808C74.6658 31.5294 74.8649 31.2907 75.064 31.0916C75.3029 30.8927 75.5418 30.7733 75.8204 30.6538C76.0992 30.5743 76.3381 30.5344 76.5769 30.5344H83.0665C83.9821 30.5344 84.8181 30.6141 85.6144 30.7732C86.4106 30.9324 87.0876 31.211 87.6848 31.6488C88.2818 32.0468 88.7597 32.6039 89.1179 33.2803C89.4762 33.9569 89.6355 34.7927 89.6355 35.7875C89.6355 36.5436 89.4364 37.2201 89.0781 37.8568C88.68 38.4935 88.1624 38.9712 87.4857 39.3293C88.2818 39.6477 88.9189 40.2048 89.3569 40.9608C89.7949 41.7171 90.0336 42.513 90.0336 43.3486C90.0336 44.3833 89.8345 45.2191 89.4762 45.9353C89.1179 46.6517 88.6401 47.2089 88.0032 47.6864C87.3662 48.1242 86.6496 48.4424 85.8533 48.6812C85.0172 48.8803 84.1812 48.9996 83.2656 48.9996H74.9048C74.7455 48.9996 74.5863 48.9201 74.4271 48.8006C74.2679 48.6812 74.2677 48.5221 74.2677 48.3231ZM82.5091 37.8568C83.1062 37.8568 83.584 37.6976 83.9821 37.3793C84.3404 37.0609 84.5395 36.5834 84.5395 35.9467C84.5395 35.3497 84.3404 34.8722 83.9821 34.5539C83.584 34.2355 83.1062 34.0762 82.5488 34.0762H77.7713C78.1694 34.0762 78.5277 34.2355 78.8065 34.5141C79.0851 34.7927 79.2445 35.1109 79.2445 35.4692V37.0609C79.2445 37.2201 79.324 37.3793 79.4434 37.5782C79.6028 37.7374 79.762 37.8568 80.0406 37.8568H82.5091ZM82.7479 45.418C83.3849 45.418 83.9024 45.2589 84.3006 44.9006C84.6987 44.5425 84.8978 44.065 84.8978 43.3885C84.8978 42.7518 84.6987 42.2344 84.3006 41.8763C83.9024 41.4783 83.3849 41.3191 82.7479 41.3191H77.7314C78.1296 41.3191 78.488 41.4783 78.7666 41.7568C79.0454 42.0353 79.2046 42.3538 79.2046 42.7119V44.6619C79.2046 44.8211 79.2841 45.02 79.4037 45.1792C79.5231 45.3384 79.7221 45.4578 80.0009 45.4578L82.7479 45.418Z" fill="#585978"/>
<path d="M91.6259 48.3629V32.8823C91.6259 32.2059 91.8648 31.6487 92.3028 31.2109C92.7408 30.7731 93.2981 30.5742 93.935 30.5742H104.724C104.923 30.5742 105.083 30.6537 105.202 30.7731C105.322 30.8927 105.401 31.0517 105.401 31.2508V33.8773C105.401 34.0762 105.322 34.2354 105.202 34.3149C105.083 34.4343 104.923 34.514 104.684 34.514H94.9304C95.3683 34.514 95.6868 34.6732 95.9656 34.9516C96.2442 35.2701 96.3637 35.5885 96.3637 35.9466V37.0608C96.3637 37.2599 96.4432 37.4588 96.5628 37.618C96.6821 37.7772 96.8812 37.8966 97.1598 37.8966H102.933C103.132 37.8966 103.291 37.9761 103.411 38.0955C103.53 38.2151 103.61 38.3741 103.61 38.5732V40.9608C103.61 41.1598 103.53 41.3191 103.411 41.4384C103.291 41.5578 103.132 41.6373 102.933 41.6373H94.9304C95.3285 41.6373 95.6868 41.7966 95.9656 42.0751C96.2442 42.3537 96.4034 42.672 96.4034 43.0303V44.2639C96.4034 44.4629 96.4831 44.6618 96.6024 44.821C96.7618 44.9803 96.9211 45.0996 97.1997 45.0996H104.923C105.401 45.0996 105.6 45.3384 105.6 45.7762V48.3629C105.6 48.5618 105.521 48.721 105.401 48.8404C105.282 48.9597 105.122 48.9996 104.923 48.9996H92.2629C92.1037 48.9996 91.9445 48.9201 91.7851 48.8005C91.6258 48.6811 91.6259 48.5221 91.6259 48.3629Z" fill="#585978"/>
<path d="M119.574 30.5742C119.773 30.5742 119.932 30.6537 120.052 30.7731C120.171 30.8927 120.251 31.0517 120.251 31.2508V34.1956C120.251 34.3946 120.171 34.5539 120.052 34.6732C119.932 34.7926 119.773 34.8721 119.574 34.8721H115.712C116.11 34.8721 116.429 35.0313 116.747 35.3099C117.066 35.5885 117.225 35.9068 117.225 36.2649V48.3629C117.225 48.5618 117.145 48.721 117.026 48.8005C116.907 48.9201 116.747 48.9996 116.548 48.9996H112.886C112.687 48.9996 112.527 48.9201 112.408 48.8005C112.249 48.6811 112.209 48.5618 112.209 48.3629V35.6282C112.209 35.3895 112.129 35.1906 111.97 35.0313C111.811 34.8721 111.611 34.8323 111.412 34.8323H107.59C107.431 34.8323 107.272 34.7528 107.113 34.6334C106.953 34.514 106.914 34.3548 106.914 34.1559V32.8426C106.914 32.5242 106.993 32.2059 107.113 31.9273C107.232 31.6487 107.431 31.41 107.63 31.2109C107.829 31.012 108.108 30.8528 108.387 30.7334C108.665 30.6141 108.944 30.5742 109.223 30.5742H119.574Z" fill="#585978"/>
<path d="M17.0155 48.9196H27.6852C28.2824 48.9196 28.6806 48.2829 28.4416 47.7656L16.0201 21.6199C15.9006 21.3413 15.5821 21.1424 15.2637 21.1424H4.1956C3.59856 21.1424 3.20042 21.7791 3.43916 22.3361L16.2192 48.4818C16.4182 48.7206 16.6968 48.9196 17.0155 48.9196Z" fill="#585978"/>
<path d="M34.2954 10.5968L33.6583 10.3182C33.539 10.2784 33.4194 10.2386 33.3399 10.2386C33.0213 10.2386 32.7427 10.4376 32.5835 10.7162L29.5179 17.6804C29.3188 18.0784 29.5179 18.5957 29.9557 18.7549L30.5928 19.0334C30.9909 19.2325 31.5084 19.0334 31.6678 18.5957L34.7334 11.6315C34.8926 11.2733 34.6935 10.7958 34.2954 10.5968Z" fill="#585978"/>
<path d="M37.5201 14.8148L36.8832 14.5363C36.7637 14.4965 36.6443 14.4567 36.5646 14.4567C36.2462 14.4567 35.9674 14.6556 35.8082 14.9342L31.7871 24.0474C31.588 24.4453 31.7871 24.9627 32.2251 25.1219L32.8223 25.4005C33.2603 25.5994 33.7379 25.4005 33.937 24.9627L37.9182 15.8893C38.1173 15.4516 37.9182 14.974 37.5201 14.8148Z" fill="#585978"/>
<path d="M39.868 11.4326C40.0671 11.0347 39.868 10.5173 39.4301 10.3581L38.793 10.0796C38.6736 10.0398 38.5541 10 38.4745 10C38.1561 10 37.8773 10.199 37.7181 10.4775L37.4393 11.1143C37.2403 11.5122 37.4393 12.0296 37.8773 12.1887L38.5144 12.4673C38.9125 12.6663 39.4301 12.4673 39.5893 12.0296L39.868 11.4326Z" fill="#585978"/>
<path d="M36.0457 30.2556L35.2098 29.8973C34.8116 29.6984 34.6126 29.2208 34.7718 28.8228L35.5282 27.1117C35.7273 26.7138 35.5282 26.1964 35.0902 26.0372L34.3736 25.7188C34.0153 25.5596 33.5774 25.7188 33.4181 26.0771L32.3034 28.6637L30.2729 33.3198C30.0738 33.7177 29.5961 33.9166 29.198 33.7576L28.5609 33.479C28.1628 33.2799 27.9637 32.8024 28.1231 32.4045L30.1535 27.7484L32.8608 21.5801C33.0598 21.1821 32.8608 20.6648 32.4228 20.5056L31.7857 20.227C31.6663 20.1873 31.547 20.1475 31.4673 20.1475C31.1488 20.1475 30.8701 20.3464 30.7108 20.6249L28.0036 26.7933L27.0879 28.8228C26.8888 29.2208 26.411 29.4198 26.013 29.2606L25.376 28.982C24.9778 28.7831 24.4603 28.982 24.3009 29.4198L16.2191 47.8053C15.9802 48.3625 16.3783 48.9594 16.9755 48.9594H27.6851C28.0036 48.9594 28.2823 48.7605 28.4415 48.4819L36.2448 31.0912C36.4439 30.7331 36.3245 30.375 36.0457 30.2556Z" fill="#585978"/>
<path d="M38.7127 23.5301L38.0756 23.2515C37.9562 23.2117 37.8369 23.172 37.7572 23.172C37.4387 23.172 37.1599 23.3709 37.0007 23.6495L36.1247 25.679C35.9257 26.0769 36.1247 26.5943 36.5627 26.7535L37.1998 27.0321C37.5979 27.231 38.1154 27.0321 38.2747 26.5943L39.1506 24.5648C39.3497 24.2067 39.1506 23.6893 38.7127 23.5301Z" fill="#585978"/>
<path d="M28.6396 23.4508L28.0025 23.1722C27.8831 23.1324 27.7636 23.0925 27.6841 23.0925C27.3656 23.0925 27.0869 23.2916 26.9276 23.5702L26.0517 25.5997C25.8526 25.9976 26.0517 26.515 26.4897 26.6742L27.1267 26.9528C27.5249 27.1517 28.0424 26.9528 28.2016 26.515L29.0776 24.4855C29.2368 24.1272 29.0377 23.6497 28.6396 23.4508Z" fill="#585978"/>
<path d="M42.138 15.8496L41.5011 15.571C41.3815 15.5313 41.2622 15.4915 41.1825 15.4915C40.864 15.4915 40.5853 15.6904 40.426 15.969L38.5947 20.1078C38.3957 20.5056 38.5947 21.0231 39.0325 21.1822L39.6696 21.4608C40.0677 21.6598 40.5853 21.4608 40.7447 21.0229L42.576 16.8843C42.7352 16.4863 42.5361 16.0088 42.138 15.8496Z" fill="#585978"/>
<path d="M123.675 30.6537H122.361C121.963 30.6537 121.644 30.9722 121.644 31.3702V32.6834V33.9967C121.644 34.3946 121.963 34.7129 122.361 34.7129H123.675H124.989C125.387 34.7129 125.705 34.3946 125.705 33.9967V32.6834V31.3702C125.705 30.9722 125.387 30.6537 124.989 30.6537H123.675Z" fill="#585978"/>
</g>
</svg>
