<svg width="130" height="60" viewBox="0 0 130 60" fill="none" xmlns="http://www.w3.org/2000/svg">
<mask id="mask0_140_3716" style="mask-type:alpha" maskUnits="userSpaceOnUse" x="0" y="0" width="130" height="60">
<rect width="130" height="60" fill="#585978"/>
</mask>
<g mask="url(#mask0_140_3716)">
<mask id="mask1_140_3716" style="mask-type:luminance" maskUnits="userSpaceOnUse" x="0" y="12" width="130" height="37">
<path d="M130 12H0V48.0504H130V12Z" fill="white"/>
</mask>
<g mask="url(#mask1_140_3716)">
<path fill-rule="evenodd" clip-rule="evenodd" d="M8.38708 30.1124C8.40878 40.0292 16.628 48.182 26.6255 48.182C36.6446 48.182 44.8638 40.0077 44.8638 30.0911C44.8638 20.1743 36.6446 12 26.6471 12C19.3172 12 12.6811 16.3668 9.84008 23.0568C8.88587 25.294 8.38708 27.7033 8.38708 30.1124ZM39.941 37.0822L27.2978 44.3099V29.8113L39.941 22.6266V37.0822ZM26.6905 28.8218L14.0256 21.551L26.6905 16.2807L39.4205 21.594L26.6905 28.8218ZM26.1483 44.3529L13.44 37.0822V22.5621L26.1483 29.8329V44.3529ZM68.4366 18.6261L66.333 22.7348L56.6175 41.6217L46.9019 22.7348L44.7984 18.6261H49.4393L51.5429 22.7348L56.5958 32.587L61.6486 22.7348L63.7739 18.6261H68.4366ZM73.5765 18.6261H69.4342V41.6217H73.5765V18.6261ZM96.1307 22.7348L98.2337 18.6261H93.6144L91.4892 22.7348L86.4363 32.587L81.3832 22.7348L79.2582 18.6261H74.6172L76.7208 22.7348L86.4143 41.6217L96.1307 22.7348ZM36.1597 29.7686C36.3287 29.7708 36.5147 29.7225 36.7093 29.6177C36.9109 29.5093 37.1032 29.3522 37.2766 29.1624C37.7604 28.6395 38.0914 27.8566 38.0756 27.1654C38.0756 26.219 37.4467 25.7672 36.666 26.1759C35.907 26.5846 35.2781 27.6818 35.2997 28.6283C35.2997 29.3425 35.6579 29.7749 36.1597 29.7686ZM35.2781 36.4368C35.2781 37.3834 35.907 37.8351 36.666 37.4264C37.425 37.0176 38.0539 35.9206 38.0323 34.9741C38.0323 34.0276 37.4032 33.5758 36.6225 33.9845C35.8968 34.3657 35.2761 35.4555 35.2775 36.3924C35.2775 36.4072 35.2777 36.4221 35.2781 36.4368ZM32.3503 34.0276C32.3503 34.9741 32.9792 35.4257 33.7383 35.0171C34.4974 34.6083 35.1263 33.5113 35.1046 32.5647C35.1046 31.6184 34.4756 31.1666 33.6949 31.5752C33.527 31.6609 33.3667 31.7824 33.2188 31.9298C32.6888 32.4527 32.3334 33.2864 32.3503 34.0276ZM29.2708 31.7258L29.271 31.7364L29.2708 31.7473C29.2708 32.6939 29.8997 33.1457 30.6587 32.7369C30.8294 32.645 30.9935 32.5182 31.1452 32.3663C31.6729 31.8485 32.0467 31.0227 32.0467 30.263C32.0467 29.5488 31.6887 29.1163 31.1867 29.1227C31.0177 29.1206 30.8317 29.1687 30.6372 29.2736C29.878 29.6823 29.2708 30.7794 29.2708 31.7258ZM29.2275 39.5345C29.2275 40.4809 29.8564 40.9327 30.6154 40.5239C31.3744 40.1152 32.0033 39.0181 31.9817 38.0717C31.9817 37.1252 31.3528 36.6735 30.5937 37.0822C29.8347 37.4908 29.2275 38.5879 29.2275 39.5345ZM21.1601 30.6503C21.1817 31.5967 21.8106 32.7584 22.5915 33.2532C23.3722 33.7478 24.0011 33.3822 23.9794 32.4357C23.9577 31.4891 23.3288 30.3276 22.548 29.8329C21.7673 29.338 21.1601 29.7038 21.1601 30.6503ZM18.0806 32.4572C18.1023 33.4037 18.7312 34.5653 19.512 35.0601C20.2927 35.5549 20.9216 35.1892 20.8999 34.2427C20.8781 33.2962 20.2492 32.1346 19.4685 31.6399C18.6909 31.1469 18.0638 31.5079 18.0803 32.4461L18.0806 32.4572ZM14.9795 34.2857C15.0011 35.2321 15.63 36.3938 16.4107 36.8885C17.1914 37.3834 17.8205 37.0176 17.7987 36.0711C17.777 35.1247 17.1481 33.963 16.3674 33.4683C15.5867 32.9734 14.9795 33.3392 14.9795 34.2857ZM28.4903 22.4973C27.4926 22.9706 25.9312 22.9706 24.9119 22.4973C23.7409 21.9595 23.7409 21.0991 24.9119 20.5613C25.9095 20.088 27.4709 20.088 28.4903 20.5613C29.6614 21.0991 29.6614 21.9595 28.4903 22.4973ZM110.031 41.6002C116.386 41.6002 121.612 36.416 121.612 30.1131C121.612 23.8103 116.364 18.6261 110.031 18.6261C103.677 18.6261 98.4512 23.8103 98.4512 30.1131C98.4512 36.416 103.677 41.6002 110.031 41.6002ZM110.01 22.7132C114.109 22.7132 117.47 26.0476 117.47 30.1131C117.47 34.1788 114.109 37.513 110.01 37.513C105.912 37.513 102.55 34.1788 102.55 30.1131C102.55 26.0476 105.912 22.7132 110.01 22.7132Z" fill="#585978"/>
</g>
</g>
</svg>
