<svg width="130" height="60" viewBox="0 0 130 60" fill="none" xmlns="http://www.w3.org/2000/svg">
<mask id="mask0_124_271" style="mask-type:alpha" maskUnits="userSpaceOnUse" x="0" y="0" width="130" height="60">
<rect width="130" height="60" fill="#D9D9D9"/>
</mask>
<g mask="url(#mask0_124_271)">
<path fill-rule="evenodd" clip-rule="evenodd" d="M48.1991 31.1303L26.9037 10.1614C26.0997 9.36143 26.6689 8 27.8144 8H49.1099C49.8214 8 50.3906 8.56843 50.3906 9.26318V30.239C50.3906 31.3618 49.0102 31.9303 48.1991 31.1303ZM52.9599 30.239V9.26318C52.9599 8.56141 53.5362 8 54.2406 8H75.5361C76.6816 8 77.2508 9.36143 76.4468 10.1614L55.1513 31.1373C54.3403 31.9303 52.9599 31.3689 52.9599 30.2461V30.239ZM79.0586 9.26318V30.239V30.2461C79.0586 31.3689 80.439 31.9303 81.2501 31.1373L102.546 10.1614C103.35 9.36143 102.78 8 101.635 8H80.3394C79.635 8 79.0586 8.56141 79.0586 9.26318ZM37.5913 37.9337V46.596L34.5264 40.4614H32.7682L29.6644 46.659V37.9337H26.8932V52H29.6433L33.6154 44.3328L37.6297 52H40.3418V37.9337H37.5913ZM49.6394 46.9235L48.0261 41.9688L46.4128 46.9235H49.6394ZM41.6784 51.9958L46.6427 37.9337H49.4138L54.3819 51.9958H51.2998L50.4314 49.3253H45.6505L44.7822 51.9958H41.6784ZM54.9474 37.9337V40.3606H60.7411L54.9474 50.123V52H64.5899V49.594H58.6296L64.3854 39.8106V37.9337H54.9474ZM74.1344 44.0473V45.8822C74.1344 48.3091 73.47 49.594 71.5462 49.594H69.3708V40.3565H71.5462C73.47 40.3565 74.1344 41.6203 74.1344 44.0473ZM66.4758 37.9337V51.9958H71.5462C74.7728 51.9958 77.0293 50.3456 77.0293 45.8822V44.0473C77.0293 39.5629 74.7728 37.9337 71.5462 37.9337H66.4758ZM83.8676 41.9688L85.4814 46.9235H82.2543L83.8676 41.9688ZM82.4842 37.9337L77.5205 51.9958H80.6237L81.4926 49.3253H86.2729L87.1418 51.9958H90.2239L85.2558 37.9337H82.4842ZM99.5629 46.7597V37.9337H102.313V52H99.8951L94.3265 43.2957V52H91.5722V37.9337H93.9732L99.5629 46.7597Z" fill="#585978"/>
</g>
</svg>
