<svg width="105" height="73" viewBox="0 0 105 73" fill="none" xmlns="http://www.w3.org/2000/svg">
<g opacity="0.5">
<path fill-rule="evenodd" clip-rule="evenodd" d="M25.0384 27.2988C26.4485 27.4177 27.8587 26.585 28.74 25.5294C29.6066 24.4439 30.1795 22.9868 30.0326 21.4999C28.7841 21.5594 27.2417 22.3325 26.3604 23.418C25.5525 24.3547 24.8621 25.8713 25.0384 27.2988ZM41.8134 46.4498V23.2692H50.4063C54.8423 23.2692 57.9417 26.3619 57.9417 30.8821C57.9417 35.4022 54.7836 38.5247 50.2888 38.5247H45.368V46.4498H41.8134ZM30.018 27.5814C28.7757 27.5091 27.6421 27.9596 26.7266 28.3236C26.1374 28.5578 25.6384 28.7561 25.2588 28.7561C24.8328 28.7561 24.3133 28.5471 23.73 28.3126C22.9656 28.0052 22.0917 27.6538 21.1753 27.6706C19.0748 27.7004 17.1212 28.9048 16.0489 30.8229C13.8456 34.659 15.4761 40.3389 17.606 43.4614C18.6489 45.0078 19.8974 46.7028 21.5425 46.6434C22.2663 46.6157 22.7869 46.3921 23.3258 46.1606C23.9461 45.8942 24.5905 45.6174 25.5967 45.6174C26.568 45.6174 27.1842 45.887 27.7757 46.1458C28.3382 46.3918 28.8783 46.6281 29.6801 46.6136C31.384 46.5839 32.4563 45.0673 33.4992 43.5209C34.6247 41.8612 35.1192 40.2415 35.1943 39.9957L35.2031 39.9672C35.2013 39.9654 35.1874 39.959 35.1629 39.9476C34.7866 39.7732 31.911 38.4406 31.8835 34.8672C31.8558 31.8678 34.1643 30.3481 34.5277 30.1089C34.5498 30.0943 34.5648 30.0845 34.5715 30.0794C33.1026 27.8788 30.8112 27.6409 30.018 27.5814ZM64.4342 46.6284C66.6669 46.6284 68.738 45.4835 69.6781 43.6695H69.7516V46.45H73.0419V34.9117C73.0419 31.5662 70.3979 29.4102 66.3291 29.4102C62.5541 29.4102 59.7632 31.5959 59.6604 34.5994H62.8625C63.1269 33.172 64.4342 32.2353 66.2263 32.2353C68.4002 32.2353 69.6194 33.2612 69.6194 35.1496V36.4283L65.1833 36.696C61.0558 36.9487 58.8231 38.6587 58.8231 41.6324C58.8231 44.6359 61.1292 46.6284 64.4342 46.6284ZM65.3888 43.8775C63.4939 43.8775 62.2894 42.9556 62.2894 41.5431C62.2894 40.0859 63.4498 39.2384 65.6679 39.1046L69.6191 38.8518V40.1603C69.6191 42.3311 67.7977 43.8775 65.3888 43.8775ZM83.9554 47.3569C82.5306 51.4161 80.9001 52.7543 77.4336 52.7543C77.1692 52.7543 76.2879 52.7245 76.0822 52.6651V49.8846C76.3026 49.9143 76.846 49.9441 77.1251 49.9441C78.6968 49.9441 79.5781 49.275 80.1216 47.5353L80.4448 46.5093L74.4224 29.6332H78.1386L82.325 43.3274H82.3984L86.5847 29.6332H90.1981L83.9554 47.3569ZM45.3675 26.3023H49.4657C52.5503 26.3023 54.313 27.9677 54.313 30.8968C54.313 33.826 52.5503 35.5062 49.451 35.5062H45.3675V26.3023Z" fill="#57626C"/>
</g>
</svg>
