<svg width="105" height="73" viewBox="0 0 105 73" fill="none" xmlns="http://www.w3.org/2000/svg">
<g opacity="0.5">
<path fill-rule="evenodd" clip-rule="evenodd" d="M49.5904 47.7744V38.7116H54.2679C56.1847 38.7116 57.8025 38.0693 59.1213 36.8027L59.4378 36.4816C61.8469 33.859 61.6887 29.7736 59.1213 27.3473C57.8376 26.0628 56.0792 25.3671 54.2679 25.4027H46.7593V47.7744H49.5904ZM49.5909 35.9641V28.15H54.3396C55.3596 28.15 56.3269 28.5425 57.048 29.2561C58.5781 30.7547 58.6133 33.2524 57.136 34.8045C56.4149 35.5716 55.3948 35.9998 54.3396 35.9641H49.5909ZM72.6441 33.6629C71.4307 32.539 69.7778 31.9681 67.6852 31.9681C64.9947 31.9681 62.9725 32.9671 61.6361 34.9474L64.1331 36.5352C65.0475 35.1793 66.296 34.5014 67.8786 34.5014C68.881 34.5014 69.8481 34.876 70.6043 35.554C71.3428 36.1962 71.7648 37.1239 71.7648 38.1051V38.7652C70.6746 38.1587 69.303 37.8375 67.6149 37.8375C65.6454 37.8375 64.0628 38.3014 62.8846 39.2469C61.7064 40.1925 61.1085 41.4413 61.1085 43.0291C61.0734 44.4741 61.6888 45.8478 62.7791 46.7755C63.8869 47.7746 65.2937 48.2741 66.9466 48.2741C68.8985 48.2741 70.446 47.3999 71.6242 45.6516H71.7473V47.7746H74.4553V38.3371C74.4553 36.3568 73.8574 34.7868 72.6441 33.6629ZM64.9598 44.9559C64.3794 44.5277 64.0277 43.8319 64.0277 43.0827C64.0277 42.2442 64.4146 41.5484 65.1709 40.9953C65.9447 40.4423 66.912 40.1568 68.0552 40.1568C69.6381 40.139 70.8692 40.4958 71.7486 41.2094C71.7486 42.4226 71.2737 43.4751 70.3416 44.3672C69.4974 45.2235 68.3542 45.7052 67.1583 45.7052C66.3668 45.723 65.593 45.4554 64.9598 44.9559ZM80.5394 54.5004L90 32.4676H86.9226L82.5441 43.4573H82.4913L78.0072 32.4676H74.9299L81.1373 46.7934L77.6204 54.5004H80.5394Z" fill="#57626C"/>
<path d="M39.816 36.749C39.816 35.8749 39.7457 35.0007 39.605 34.1443H27.665V39.0861H34.5055C34.2241 40.6739 33.3097 42.1011 31.9733 42.9931V46.2044H36.0529C38.4444 43.9743 39.816 40.6739 39.816 36.749Z" fill="#57626C"/>
<path d="M27.6657 49.3085C31.0771 49.3085 33.961 48.1667 36.0536 46.2042L31.9739 42.993C30.8309 43.778 29.3714 44.224 27.6657 44.224C24.3598 44.224 21.5638 41.9583 20.5615 38.9254H16.3587V42.2437C18.5041 46.5789 22.8826 49.3085 27.6657 49.3085Z" fill="#57626C"/>
<path d="M20.562 38.9255C20.0344 37.3377 20.0344 35.6072 20.562 34.0016V30.7011H16.3586C14.5471 34.3227 14.5471 38.6044 16.3586 42.2259L20.562 38.9255Z" fill="#57626C"/>
<path d="M27.6657 28.7031C29.4769 28.6674 31.2178 29.3631 32.5191 30.6298L36.1415 26.9547C33.8379 24.7782 30.8133 23.5829 27.6657 23.6186C22.8826 23.6186 18.5041 26.366 16.3587 30.7012L20.5615 34.0195C21.5638 30.9688 24.3598 28.7031 27.6657 28.7031Z" fill="#57626C"/>
</g>
</svg>
