<svg width="105" height="73" viewBox="0 0 105 73" fill="none" xmlns="http://www.w3.org/2000/svg">
<g opacity="0.5">
<path fill-rule="evenodd" clip-rule="evenodd" d="M66.5288 56.9179C77.8348 56.9179 87.0001 47.6461 87.0001 36.2089C87.0001 24.7717 77.8348 15.4999 66.5288 15.4999C61.4618 15.4999 56.8247 17.3622 53.25 20.4471C49.6753 17.3622 45.0383 15.5 39.9713 15.5C28.6653 15.5 19.5 24.7717 19.5 36.2089C19.5 47.6462 28.6653 56.9179 39.9713 56.9179C45.0383 56.9179 49.6753 55.0556 53.2501 51.9707C56.8248 55.0556 61.4618 56.9179 66.5288 56.9179Z" fill="#383E43"/>
<path fill-rule="evenodd" clip-rule="evenodd" d="M53.25 51.9707C57.6516 48.1723 60.4426 42.5203 60.4426 36.2088C60.4426 29.8974 57.6516 24.2454 53.25 20.447C56.8248 17.3621 61.4618 15.4999 66.5288 15.4999C77.8347 15.4999 87.0001 24.7716 87.0001 36.2088C87.0001 47.6461 77.8347 56.9178 66.5288 56.9178C61.4618 56.9178 56.8248 55.0555 53.25 51.9707Z" fill="#57626C"/>
<path fill-rule="evenodd" clip-rule="evenodd" d="M53.2501 51.9707C57.6516 48.1723 60.4426 42.5203 60.4426 36.2089C60.4426 29.8974 57.6516 24.2454 53.2501 20.447C48.8485 24.2454 46.0575 29.8974 46.0575 36.2089C46.0575 42.5203 48.8485 48.1723 53.2501 51.9707Z" fill="#57626C"/>
</g>
</svg>
