<svg width="105" height="73" viewBox="0 0 105 73" fill="none" xmlns="http://www.w3.org/2000/svg">
<g opacity="0.5">
<path d="M13.5002 29.775C13.5002 28.6861 14.361 27.8257 15.4495 27.8257H20.7415C24.97 27.8257 27.5274 30.3319 27.5274 33.9525V34.003C27.5274 38.1048 24.3369 40.232 20.3618 40.232H17.3995V43.9032C17.3995 44.9921 16.5383 45.8529 15.4495 45.8529C14.361 45.8529 13.5002 44.9921 13.5002 43.9032V29.775ZM20.4885 36.7633C22.4382 36.7633 23.5776 35.5986 23.5776 34.0796V34.0287C23.5776 32.2819 22.362 31.3449 20.4124 31.3449H17.3995V36.7633H20.4885Z" fill="#57626C"/>
<path d="M26.9061 43.1947L33.0838 29.2436C33.5144 28.2814 34.2993 27.6993 35.3629 27.6993H35.5907C36.6543 27.6993 37.4136 28.2814 37.8442 29.2436L44.0219 43.1947C44.1486 43.4733 44.2244 43.7263 44.2244 43.9793C44.2244 45.0173 43.4142 45.8531 42.3762 45.8531C41.4645 45.8531 40.8567 45.3212 40.502 44.5113L39.312 41.7258H31.5142L30.2734 44.6376C29.9442 45.3969 29.2859 45.8528 28.4757 45.8528C27.4633 45.8528 26.678 45.0425 26.678 44.0295C26.6783 43.7516 26.7794 43.4733 26.9061 43.1947ZM37.8691 38.2827L35.4135 32.4337L32.9575 38.2827H37.8691Z" fill="#57626C"/>
<path d="M48.3491 38.8651L42.6272 31.0922C42.3486 30.7121 42.1461 30.2567 42.1461 29.6994C42.1461 28.6614 43.0069 27.8259 44.0954 27.8259C44.9818 27.8259 45.5387 28.307 46.0198 29.0158L50.324 35.2192L54.704 28.965C55.1851 28.2561 55.7676 27.8007 56.5779 27.8007C57.7678 27.8007 58.477 28.6358 58.477 29.6994C58.477 30.2314 58.2236 30.7121 57.9703 31.0665L52.248 38.789V43.9035C52.248 44.9923 51.3872 45.8531 50.2987 45.8531C49.2099 45.8531 48.3491 44.9923 48.3491 43.9035V38.8651Z" fill="#57626C"/>
<path d="M58.5939 36.8901V36.8392C58.5939 31.8009 62.3918 27.6738 67.8357 27.6738C70.4939 27.6738 72.2916 28.3827 73.7605 29.4715C74.1654 29.7754 74.5198 30.3323 74.5198 31.0159C74.5198 32.0795 73.6591 32.915 72.5954 32.915C72.0638 32.915 71.7094 32.7125 71.4308 32.5353C70.3423 31.7251 69.2029 31.2689 67.8101 31.2689C64.8225 31.2689 62.6704 33.7505 62.6704 36.7887V36.8392C62.6704 39.8777 64.772 42.4095 67.8101 42.4095C69.4562 42.4095 70.5447 41.9028 71.6589 41.0171C71.9628 40.7641 72.3681 40.5865 72.8235 40.5865C73.811 40.5865 74.6465 41.3968 74.6465 42.3842C74.6465 42.992 74.3426 43.4731 73.9882 43.7766C72.3933 45.169 70.5195 46.0049 67.6834 46.0049C62.4679 46.0049 58.5939 41.9789 58.5939 36.8901Z" fill="#57626C"/>
<path d="M75.6628 36.8901V36.8392C75.6628 31.8009 79.6376 27.6738 85.1068 27.6738C90.5761 27.6738 94.5003 31.75 94.5003 36.7887V36.8392C94.5003 41.8779 90.5252 46.0049 85.0563 46.0049C79.5874 46.0049 75.6628 41.9284 75.6628 36.8901ZM90.4238 36.8901V36.8392C90.4238 33.801 88.1959 31.2689 85.0563 31.2689C81.9167 31.2689 79.7393 33.7505 79.7393 36.7887V36.8392C79.7393 39.8777 81.9676 42.4095 85.1068 42.4095C88.2464 42.4095 90.4238 39.9282 90.4238 36.8901Z" fill="#57626C"/>
</g>
</svg>
