<svg width="105" height="73" viewBox="0 0 105 73" fill="none" xmlns="http://www.w3.org/2000/svg">
<g opacity="0.5">
<path fill-rule="evenodd" clip-rule="evenodd" d="M12.1544 43.0192L12.1544 43.0192L12.1544 43.0192C12.2307 42.586 12.3045 42.1663 12.3894 41.7466C12.749 39.8482 13.111 37.9523 13.4731 36.0564L13.4731 36.0563C13.8352 34.1604 14.1972 32.2644 14.5568 30.366C14.6067 30.1255 14.6766 29.9652 14.9163 29.9252C16.7841 29.6447 18.6618 29.4443 20.5295 29.9151C22.1576 30.3159 23.2962 31.468 23.486 32.8204C23.8755 35.5153 22.3074 37.6692 19.9802 38.4406C18.7517 38.8413 17.5032 38.9415 16.2347 38.8213C15.9351 38.7913 15.8452 38.8714 15.7953 39.1619C15.5256 40.6346 15.2459 42.0973 14.9563 43.5599C14.9363 43.6801 14.8265 43.8705 14.7565 43.8705C14.0777 43.8854 13.4101 43.8836 12.7161 43.8818C12.4809 43.8811 12.2426 43.8805 11.9999 43.8805C12.0548 43.5854 12.1051 43.2995 12.1544 43.0193L12.1544 43.0192ZM16.8631 36.4471L16.8632 36.4471C17.2538 36.4577 17.6228 36.4678 17.9825 36.4269C19.0212 36.3167 19.8502 35.8459 20.3196 34.8541C20.849 33.732 20.4694 32.5399 19.4707 32.1892C18.7615 31.9388 18.0324 31.9889 17.3033 32.089C17.2134 32.0991 17.0935 32.2393 17.0736 32.3295C16.9341 33.0626 16.7946 33.7989 16.6499 34.5627L16.6497 34.5637L16.6493 34.5657L16.6491 34.5666C16.535 35.1689 16.4177 35.7883 16.2945 36.4369C16.4898 36.4369 16.6789 36.4421 16.8631 36.4471ZM29.7083 41.957C29.5502 42.1219 29.4022 42.2878 29.2575 42.4499C28.945 42.8 28.6482 43.1326 28.3 43.3997C27.2513 44.2111 26.0527 44.3915 24.8442 43.8304C23.6456 43.2794 23.1562 42.2075 23.1063 40.9452C22.9964 38.2904 23.9253 36.0964 26.1526 34.5736C27.5509 33.6119 29.1589 33.3214 30.8269 33.4115C31.3787 33.4441 31.9262 33.5401 32.475 33.6364C32.7706 33.6882 33.0666 33.7401 33.3639 33.7822C33.7034 33.8323 33.7534 34.0226 33.6935 34.3132C33.6134 34.7315 33.5325 35.1495 33.4516 35.5672L33.4512 35.569L33.4512 35.5691L33.4512 35.5692C33.1487 37.1311 32.8469 38.6894 32.5948 40.2539C32.4502 41.1496 32.3925 42.0671 32.3354 42.9755C32.3255 43.1339 32.3155 43.292 32.3051 43.4497C32.2852 43.7703 32.2053 43.9006 31.8757 43.8905C31.2564 43.8705 30.6372 43.8705 30.0179 43.8905C29.6983 43.9006 29.5884 43.7803 29.6184 43.4698C29.6469 43.1265 29.6652 42.7731 29.6843 42.4058L29.6843 42.4051L29.6846 42.4009L29.6846 42.3993C29.6922 42.2541 29.6998 42.1068 29.7083 41.957ZM30.4077 35.7657C29.4388 35.4953 28.6298 35.6856 27.9506 36.2566C26.6722 37.3386 26.0929 38.7411 26.2028 40.4142C26.2327 40.9251 26.4325 41.416 26.9718 41.6364C27.5112 41.8568 28.0006 41.6965 28.4201 41.3359C28.6698 41.1155 28.9095 40.865 29.0893 40.5845C29.7937 39.506 29.9862 38.2894 30.1817 37.0536C30.2495 36.625 30.3176 36.194 30.4077 35.7657ZM44.5607 41.3759C45.11 43.1391 46.6182 44.1209 49.2649 44.1209C51.0827 44.0708 52.8906 43.0389 54.0192 40.9151C54.6185 39.773 54.8382 38.5508 54.7583 37.2685C54.6884 36.0362 54.199 34.9943 53.2002 34.253C52.1515 33.4716 50.9529 33.3113 49.6745 33.4515C45.3996 33.9324 43.6518 38.4706 44.5607 41.3759ZM47.4051 39.9044C47.4062 39.8532 47.4073 39.8024 47.4073 39.7527C47.4373 38.6006 47.7169 37.5287 48.4061 36.577C48.7157 36.1562 49.1052 35.8356 49.6246 35.7154C50.6833 35.475 51.5523 36.0861 51.6522 37.2382C51.772 38.6507 51.4324 39.9531 50.5435 41.0851C50.2039 41.5059 49.7744 41.7964 49.2251 41.8465C48.2363 41.9367 47.4872 41.2655 47.4073 40.2136C47.4006 40.1131 47.4029 40.0082 47.4051 39.9048V39.9048V39.9047V39.9047V39.9045V39.9044V39.9044ZM57.1354 33.6619H59.6723C59.6323 34.2029 59.5924 34.7238 59.5425 35.2548C59.6346 35.1687 59.7238 35.0836 59.8112 35.0002L59.8116 34.9998L59.8121 34.9993C59.999 34.821 60.1779 34.6502 60.3615 34.4934C61.3503 33.6318 62.4789 33.2511 63.7873 33.4615C64.866 33.6418 65.6151 34.4333 65.735 35.5453C65.8652 36.7024 65.6488 37.8247 65.4329 38.9447L65.3854 39.1919C65.2981 39.6451 65.2118 40.0983 65.1256 40.5512L65.1253 40.5527L65.1249 40.5549L65.1245 40.5572L65.1245 40.5573L65.1244 40.5575C64.9347 41.5542 64.7453 42.5493 64.5464 43.5398C64.5164 43.67 64.3666 43.8604 64.2667 43.8704C63.4078 43.8904 62.5489 43.8804 61.6899 43.8704H61.6898C61.6611 43.8704 61.6323 43.8548 61.5885 43.8311C61.5716 43.8219 61.5524 43.8115 61.53 43.8003C61.6898 42.9688 61.8497 42.1272 61.9995 41.2857C62.2292 39.9934 62.4489 38.711 62.6487 37.4187C62.6886 37.1983 62.6687 36.9679 62.6387 36.7475C62.5588 35.9761 61.9895 35.6254 61.2504 35.8559C60.5313 36.0863 60.1018 36.6473 59.7522 37.2684C59.2328 38.1801 59.053 39.1919 58.8733 40.2037C58.8282 40.4546 58.7837 40.7049 58.7392 40.9549L58.739 40.9555L58.739 40.9556L58.739 40.9559C58.5863 41.814 58.4341 42.6689 58.264 43.5298C58.234 43.66 58.0842 43.8604 57.9843 43.8704C57.2839 43.8943 56.5772 43.8929 55.8237 43.8913C55.6316 43.8908 55.4365 43.8904 55.2377 43.8904C55.8969 40.4442 56.5161 37.0681 57.1354 33.6619ZM71.5376 41.7867C70.4789 41.6564 69.7698 40.9151 69.8397 39.8732C70.0605 39.8732 70.2802 39.8766 70.4987 39.8799L70.4989 39.8799C70.9328 39.8866 71.3623 39.8932 71.7873 39.8732C72.8161 39.8131 73.8249 39.6428 74.7637 39.1719C75.9623 38.5708 76.5216 37.579 76.4317 36.2867C76.3418 34.9743 75.6327 34.0226 74.3642 33.6419C72.4665 33.0709 70.7186 33.4716 69.2304 34.7439C67.4226 36.2867 66.7434 38.3304 67.0031 40.6646C67.1829 42.3176 68.0818 43.4998 69.7198 43.9205C71.4777 44.3714 73.2056 44.1309 74.8736 43.4497C74.9935 43.3996 75.1333 43.2093 75.1233 43.089C75.0993 42.6002 75.0498 42.1115 75.0003 41.6227L75.0002 41.6225C74.9879 41.5002 74.9755 41.378 74.9635 41.2557C74.9307 41.2557 74.9063 41.254 74.8876 41.2527C74.8607 41.2509 74.8454 41.2498 74.8336 41.2557C74.7238 41.2958 74.6139 41.3359 74.514 41.3759C73.5552 41.7466 72.5664 41.9069 71.5376 41.7867ZM73.0855 37.3487C72.4762 37.6693 70.8981 37.8596 70.1291 37.6994C70.2889 36.3669 71.6972 35.325 72.8857 35.6156C73.2852 35.7158 73.5749 35.9261 73.6448 36.3569C73.7147 36.7777 73.505 37.1283 73.0855 37.3487ZM79.8177 39.9135C79.7278 40.8952 80.427 41.6466 81.4957 41.7869C82.4945 41.9071 83.4533 41.7568 84.3922 41.4162C84.4786 41.3837 84.5621 41.3512 84.6537 41.3155L84.654 41.3154C84.7317 41.2851 84.8153 41.2526 84.9115 41.2158C84.931 41.4276 84.9526 41.635 84.9739 41.8397L84.9741 41.8412C85.0183 42.2654 85.0611 42.6773 85.0813 43.0892C85.0913 43.2094 84.9515 43.3998 84.8416 43.4499C83.1437 44.1512 81.3958 44.3916 79.608 43.9007C77.9999 43.4599 77.1609 42.2878 76.9612 40.6849C76.7115 38.6311 77.2408 36.7778 78.6691 35.255C80.2072 33.622 82.095 33.041 84.2723 33.6421C85.6007 34.0128 86.3099 34.9745 86.3898 36.327C86.4697 37.6494 85.8704 38.6412 84.6219 39.2222C83.3634 39.8033 82.025 39.8934 80.6667 39.9235C80.397 39.9135 80.1174 39.9135 79.8177 39.9135ZM80.6431 37.7506L80.6433 37.7506C81.0863 37.7284 81.5132 37.7069 81.935 37.6495C82.3345 37.5995 82.734 37.4792 83.0936 37.3089C83.4831 37.1386 83.6729 36.778 83.6129 36.3372C83.553 35.9164 83.2733 35.716 82.8838 35.6159C81.7052 35.2953 80.237 36.3772 80.1072 37.7798C80.2888 37.7684 80.4672 37.7594 80.6431 37.7506ZM86.939 41.7868C86.8091 42.468 86.6893 43.1392 86.5594 43.8806C86.7595 43.8806 86.9566 43.881 87.1515 43.8814C87.92 43.883 88.653 43.8845 89.386 43.8605C89.4559 43.8605 89.5658 43.6702 89.5858 43.55C89.6876 43.0496 89.7821 42.5469 89.8765 42.0442C90.0506 41.1176 90.2246 40.1915 90.4447 39.2822C90.9341 37.2585 91.7631 36.5573 93.7308 36.2968C93.8107 36.2868 93.9405 36.1966 93.9605 36.1265C94.0859 35.5507 94.1982 34.9704 94.3147 34.3685C94.3745 34.0594 94.4354 33.7445 94.4998 33.4216C92.6021 33.2212 91.5434 34.3232 90.6245 35.6757L90.6392 35.4812C90.6843 34.8827 90.7303 34.2736 90.7843 33.632C90.5767 33.632 90.3729 33.6313 90.172 33.6307C89.5804 33.6288 89.0138 33.627 88.4472 33.642C88.3672 33.652 88.2174 33.8323 88.2074 33.9425C87.9943 36.5174 87.49 39.0357 86.9859 41.5524L86.939 41.7868Z" fill="#57626C"/>
<path fill-rule="evenodd" clip-rule="evenodd" d="M60.4951 21.5758C60.3939 21.5491 60.2928 21.5223 60.1917 21.4998C59.8821 21.4998 59.5724 21.4998 59.2428 21.5098C59.1303 21.5324 59.0177 21.557 58.9042 21.5818C58.766 21.612 58.6264 21.6426 58.4838 21.6701C56.9556 21.9606 55.5174 22.4916 54.129 23.1928C51.1227 24.7156 48.4259 26.6892 46.0089 29.0234C44.4008 30.5662 42.8427 32.1791 41.3345 33.8321C38.6877 36.7374 36.4205 39.9332 34.6127 43.4396C33.6838 45.2529 32.8448 47.1062 32.4653 49.1199C32.3954 49.4906 32.5152 49.9213 32.6351 50.292C32.685 50.4423 32.9647 50.5525 33.1545 50.6126C33.2044 50.6326 33.3542 50.3822 33.4241 50.2419C33.4489 50.1876 33.4744 50.1319 33.5003 50.075C33.9341 49.1248 34.5207 47.8398 35.0295 46.9891C36.1082 45.1858 36.9598 43.7902 38.1684 42.0771C40.106 39.3221 42.3701 36.619 44.7472 34.2347C46.9944 31.9806 49.245 29.9651 52.0715 28.4424C53.37 27.7511 54.6984 27.0699 56.0567 26.5088C58.4039 25.5371 60.8509 24.8759 63.3678 24.5052C63.6375 24.4651 63.9971 24.2548 64.087 24.0344C64.1669 23.834 63.9771 23.4533 63.7873 23.263C63.0183 22.4715 62.1194 21.8704 61.0007 21.6901C60.8322 21.6651 60.6636 21.6204 60.4951 21.5758ZM37.6289 35.2449C38.1083 33.9425 38.3481 32.59 38.378 31.1875C38.3647 31.0372 38.3536 30.887 38.3425 30.7367C38.3203 30.4361 38.2981 30.1356 38.2582 29.835C37.9885 27.5108 36.9897 25.5372 35.4016 23.8442C35.2119 23.6538 34.9522 23.5035 34.6925 23.4134C34.4328 23.3132 34.263 23.4635 34.283 23.764C34.2835 23.7704 34.284 23.7767 34.2844 23.7831C34.3039 24.0377 34.3241 24.3013 34.3729 24.5555C34.443 24.9558 34.5127 25.3566 34.5825 25.7577C34.8304 27.1834 35.0789 28.6124 35.3517 30.0354C35.6214 31.468 35.921 32.8906 36.2406 34.3031C36.3505 34.754 36.5303 35.2048 36.75 35.6255C36.9198 35.9461 37.1595 35.9161 37.3792 35.6255L37.3792 35.6255C37.4791 35.5053 37.579 35.3851 37.6289 35.2449Z" fill="#57626C"/>
</g>
</svg>
