<svg width="105" height="73" viewBox="0 0 105 73" fill="none" xmlns="http://www.w3.org/2000/svg">
<g opacity="0.5">
<path fill-rule="evenodd" clip-rule="evenodd" d="M29.7001 46.2228H25.0332C24.7139 46.2228 24.4423 46.4549 24.3925 46.7701L22.505 58.7373C22.4674 58.9735 22.6503 59.1863 22.8898 59.1863H25.1178C25.4372 59.1863 25.7088 58.9542 25.7586 58.6384L26.2677 55.4108C26.3168 55.0946 26.5891 54.8629 26.9078 54.8629H28.3851C31.4593 54.8629 33.2335 53.3752 33.697 50.4273C33.9058 49.1376 33.7059 48.1242 33.1018 47.4143C32.4386 46.6353 31.262 46.2228 29.7001 46.2228ZM30.2385 50.5937C29.9833 52.2683 28.7038 52.2683 27.4667 52.2683H26.7624L27.2565 49.1407C27.2858 48.9519 27.4496 48.8126 27.6407 48.8126H27.9634C28.8062 48.8126 29.6012 48.8126 30.0121 49.2929C30.2568 49.5797 30.332 50.0054 30.2385 50.5937ZM43.6504 50.54H41.4156C41.2252 50.54 41.0606 50.6793 41.0313 50.8684L40.9324 51.4934L40.7761 51.267C40.2923 50.5646 39.2136 50.33 38.1367 50.33C35.6669 50.33 33.5578 52.2004 33.1469 54.8243C32.9335 56.133 33.2369 57.3844 33.9794 58.2573C34.6605 59.0597 35.635 59.3941 36.7943 59.3941C38.7841 59.3941 39.8878 58.1145 39.8878 58.1145L39.788 58.7357C39.7504 58.9732 39.9333 59.186 40.1714 59.186H42.1845C42.5047 59.186 42.7747 58.9539 42.8253 58.6381L44.0332 50.9891C44.0714 50.7538 43.8892 50.54 43.6504 50.54ZM40.5352 54.8897C40.3195 56.1664 39.3061 57.0235 38.0139 57.0235C37.3649 57.0235 36.8461 56.8154 36.5133 56.421C36.1829 56.0294 36.0573 55.4717 36.1624 54.8509C36.3639 53.5849 37.3943 52.7 38.6669 52.7C39.3014 52.7 39.8174 52.9106 40.1572 53.3085C40.4976 53.7105 40.6327 54.2714 40.5352 54.8897ZM53.307 50.5397H55.5529C55.8674 50.5397 56.0509 50.8924 55.8722 51.1504L48.4028 61.9321C48.2818 62.1068 48.0826 62.2107 47.8697 62.2107H45.6266C45.3109 62.2107 45.1264 61.8551 45.3093 61.5964L47.6351 58.3135L45.1615 51.0541C45.0759 50.8018 45.2622 50.5397 45.5306 50.5397H47.7374C48.0241 50.5397 48.2771 50.7279 48.3598 51.0023L49.6726 55.3868L52.7701 50.8242C52.8914 50.6461 53.0929 50.5397 53.307 50.5397Z" fill="#57626C"/>
<path fill-rule="evenodd" clip-rule="evenodd" d="M77.6566 58.7371L79.5719 46.5511C79.6012 46.3619 79.7651 46.2227 79.9556 46.222H82.1118C82.3499 46.222 82.5327 46.4355 82.4951 46.6717L80.6064 58.6383C80.5571 58.9541 80.2856 59.1862 79.9657 59.1862H78.04C77.8019 59.1862 77.619 58.9733 77.6566 58.7371ZM62.9885 46.2227H58.3208C58.0021 46.2227 57.7305 46.4548 57.6807 46.7699L55.7932 58.7371C55.7556 58.9733 55.9384 59.1862 56.1769 59.1862H58.5718C58.7945 59.1862 58.9849 59.0239 59.0196 58.8028L59.5552 55.4106C59.6045 55.0945 59.8767 54.8627 60.1953 54.8627H61.6719C64.7468 54.8627 66.5206 53.375 66.9845 50.4271C67.1938 49.1374 66.9927 48.124 66.3889 47.4142C65.726 46.6351 64.5504 46.2227 62.9885 46.2227ZM63.5269 50.5935C63.2724 52.2682 61.9928 52.2682 60.7549 52.2682H60.0513L60.5461 49.1406C60.5755 48.9517 60.7378 48.8125 60.9295 48.8125H61.2522C62.0945 48.8125 62.8903 48.8125 63.3008 49.2928C63.5458 49.5795 63.6204 50.0052 63.5269 50.5935ZM76.9375 50.5398H74.7043C74.5123 50.5398 74.3493 50.6791 74.3206 50.8683L74.2218 51.4932L74.0648 51.2668C73.581 50.5645 72.5029 50.3298 71.4261 50.3298C68.9563 50.3298 66.8477 52.2003 66.4369 54.8242C66.224 56.1328 66.5263 57.3843 67.2687 58.2571C67.9511 59.0595 68.9244 59.394 70.0836 59.394C72.0734 59.394 73.1768 58.1144 73.1768 58.1144L73.0773 58.7356C73.0397 58.973 73.2226 59.1859 73.4623 59.1859H75.4745C75.7931 59.1859 76.0647 58.9538 76.1146 58.638L77.3231 50.9889C77.3601 50.7536 77.1772 50.5398 76.9375 50.5398ZM73.8226 54.8895C73.6082 56.1663 72.5935 57.0233 71.301 57.0233C70.6533 57.0233 70.1335 56.8152 69.8004 56.4208C69.4701 56.0292 69.3459 55.4715 69.4498 54.8507C69.6523 53.5847 70.6814 52.6999 71.9541 52.6999C72.5888 52.6999 73.1045 52.9105 73.4446 53.3084C73.7863 53.7104 73.9214 54.2712 73.8226 54.8895Z" fill="#57626C"/>
<path d="M46.9712 41.9416L47.545 38.2974L46.267 38.2677H40.1644L44.4054 11.3762C44.4184 11.295 44.4613 11.2193 44.5239 11.1656C44.5864 11.1118 44.6666 11.0822 44.75 11.0822H55.04C58.4562 11.0822 60.8136 11.7931 62.0445 13.1962C62.6215 13.8544 62.9891 14.5422 63.1668 15.2992C63.3532 16.0935 63.3566 17.0424 63.1744 18.1997L63.1612 18.2842V19.0258L63.7384 19.3527C64.2244 19.6105 64.6103 19.9056 64.9065 20.2435C65.4004 20.8063 65.7197 21.5215 65.8545 22.3695C65.9938 23.2417 65.9477 24.2795 65.7197 25.4544C65.4563 26.8059 65.0306 27.9831 64.4559 28.9462C63.927 29.8337 63.2534 30.5697 62.4538 31.1403C61.6902 31.6822 60.7829 32.0937 59.7573 32.3571C58.7631 32.6157 57.6301 32.7464 56.3871 32.7464H55.5863C55.0138 32.7464 54.4573 32.9526 54.0209 33.3224C53.5832 33.6998 53.2933 34.2152 53.2046 34.7792L53.1443 35.1073L52.1306 41.5301L52.0845 41.766C52.0725 41.8409 52.0517 41.8781 52.021 41.9034C51.9936 41.9261 51.9541 41.9416 51.9156 41.9416H46.9712Z" fill="#383E43"/>
<path d="M64.2847 18.3702C64.254 18.5665 64.219 18.7673 64.1795 18.9735C62.8222 25.9408 58.1798 28.3477 52.2502 28.3477H49.2313C48.5062 28.3477 47.8951 28.8742 47.7821 29.5895L46.2363 39.3926L45.7986 42.1713C45.725 42.6409 46.0872 43.0643 46.5609 43.0643H51.9158C52.5499 43.0643 53.0883 42.6036 53.1881 41.9783L53.2408 41.7061L54.2492 35.3082L54.3139 34.9574C54.4124 34.3299 54.9521 33.8692 55.5862 33.8692H56.3871C61.5749 33.8692 65.6362 31.7628 66.8233 25.6676C67.3191 23.1214 67.0624 20.9954 65.7502 19.5001C65.3533 19.0492 64.8607 18.6751 64.2847 18.3702Z" fill="#57626C"/>
<path d="M62.8645 17.8045C62.6573 17.7441 62.4432 17.6893 62.2237 17.6399C62.0033 17.5916 61.7772 17.5489 61.5448 17.5116C60.7307 17.3799 59.8389 17.3174 58.8833 17.3174H50.818C50.6194 17.3174 50.4309 17.3624 50.2619 17.4435C49.8899 17.6223 49.6136 17.9745 49.5466 18.4056L47.8306 29.2728L47.7814 29.5898C47.8944 28.8746 48.5055 28.348 49.2305 28.348H52.2495C58.1791 28.348 62.8218 25.94 64.1788 18.9739C64.2192 18.7676 64.2533 18.5669 64.2839 18.3705C63.9407 18.1884 63.5687 18.0326 63.1682 17.8999C63.0697 17.867 62.9677 17.8352 62.8645 17.8045Z" fill="#57626C"/>
<path d="M49.5466 18.4055C49.6136 17.9744 49.8902 17.6222 50.2619 17.4445C50.4321 17.3633 50.6197 17.3183 50.818 17.3183H58.8836C59.8392 17.3183 60.731 17.3809 61.5447 17.5125C61.7775 17.5498 62.0036 17.5926 62.224 17.6408C62.4435 17.6902 62.6573 17.7451 62.8647 17.8054C62.9677 17.8361 63.0697 17.8679 63.1695 17.8998C63.5699 18.0325 63.9419 18.1894 64.2852 18.3704C64.6891 15.7957 64.282 14.0426 62.89 12.4552C61.3553 10.7076 58.5852 9.95947 55.0407 9.95947H44.7504C44.0263 9.95947 43.4089 10.486 43.2968 11.2024L39.0109 38.3703C38.9263 38.9078 39.3409 39.3929 39.8828 39.3929H46.2359L47.8309 29.2727L49.5466 18.4055Z" fill="#383E43"/>
</g>
</svg>
