<svg width="164" height="32" viewBox="0 0 164 32" fill="none" xmlns="http://www.w3.org/2000/svg">
<path d="M151.875 31.5656C149.562 31.5656 147.485 31.0826 145.643 30.1165C143.801 29.1504 142.359 27.8142 141.315 26.1081C140.271 24.3814 139.749 22.4389 139.749 20.2806C139.749 18.1222 140.271 16.19 141.315 14.4839C142.359 12.7572 143.801 11.4108 145.643 10.4447C147.485 9.4786 149.562 8.99554 151.875 8.99554C154.187 8.99554 156.264 9.4786 158.106 10.4447C159.948 11.4108 161.391 12.7572 162.435 14.4839C163.478 16.19 164 18.1222 164 20.2806C164 22.4389 163.478 24.3814 162.435 26.1081C161.391 27.8142 159.948 29.1504 158.106 30.1165C156.264 31.0826 154.187 31.5656 151.875 31.5656ZM151.875 25.6764C152.775 25.6764 153.584 25.4606 154.3 25.0289C155.037 24.5767 155.62 23.9498 156.05 23.1481C156.479 22.3259 156.694 21.37 156.694 20.2806C156.694 19.1911 156.479 18.2456 156.05 17.4439C155.62 16.6217 155.037 15.9947 154.3 15.5631C153.584 15.1108 152.775 14.8847 151.875 14.8847C150.974 14.8847 150.156 15.1108 149.419 15.5631C148.703 15.9947 148.13 16.6217 147.7 17.4439C147.27 18.2456 147.055 19.1911 147.055 20.2806C147.055 21.37 147.27 22.3259 147.7 23.1481C148.13 23.9498 148.703 24.5767 149.419 25.0289C150.156 25.4606 150.974 25.6764 151.875 25.6764Z" fill="white"/>
<path d="M137.107 8.99554V31.0854H131.166L123.02 21.0503V31.0854H115.977V8.99554H121.918L130.063 19.0307V8.99554H137.107Z" fill="white"/>
<path d="M105.172 8.99554H112.375V31.0854H105.172V8.99554Z" fill="white"/>
<path d="M67.5986 10.4777L79.0305 31.4302C79.504 31.56 79.7307 31.5453 80.0983 31.4302L83.2389 25.5689C83.3673 25.0939 83.3799 24.796 83.2389 24.2215L74.9477 9.39977C74.9477 9.39977 68.2267 9.26503 68.1639 9.26503C68.1011 9.26503 67.787 9.53452 67.6614 9.87137C67.5358 10.2082 67.5986 10.4777 67.5986 10.4777Z" fill="white"/>
<path d="M101.752 11.1416L91.1078 31.3142C91.0397 31.4432 90.9174 31.5221 90.7854 31.5221H90.1636C90.0341 31.5221 89.9138 31.4462 89.8449 31.3212L84.7818 22.1253C84.7561 22.0785 84.7384 22.0269 84.7318 21.9722C84.7114 21.8037 84.6758 21.4139 84.7429 21.1561C84.79 20.9751 84.9129 20.7627 85.0037 20.6216C85.0692 20.5201 85.1745 20.4651 85.285 20.4651H88.4572C88.588 20.4651 88.7094 20.3876 88.7779 20.2605L91.8485 14.5575C91.9278 14.4103 91.9219 14.2233 91.8337 14.0829L89.9647 11.1096C89.9189 11.0367 89.8942 10.9492 89.8942 10.8596V9.55617C89.8942 9.32096 90.0602 9.12959 90.2665 9.12707L101.061 8.99557C101.174 8.99419 101.282 9.05057 101.349 9.15396C101.49 9.37059 101.725 9.76753 101.791 10.0991C101.848 10.382 101.818 10.8006 101.801 10.9799C101.795 11.0374 101.778 11.0921 101.752 11.1416Z" fill="white"/>
<path d="M86.6088 17.901L81.9294 17.7822L80.2104 14.4575L79.16 12.5577L78.396 10.8953V10.3016L78.4915 9.70792L78.587 9.47044L78.8735 9.11422L85.2718 8.99548L88.5187 14.9325L86.6088 17.901Z" fill="white"/>
<path d="M86.6088 17.901L81.9294 17.7822L80.2104 14.4575L79.16 12.5577L78.396 10.8953V10.3016L78.4915 9.70792L78.587 9.47044L78.8735 9.11422L85.2718 8.99548L88.5187 14.9325L86.6088 17.901Z" fill="url(#paint0_linear_1_58)"/>
<path d="M86.6088 17.901L81.9294 17.7822L80.2104 14.4575L79.16 12.5577L78.396 10.8953V10.3016L78.4915 9.70792L78.587 9.47044L78.8735 9.11422L85.2718 8.99548L88.5187 14.9325L86.6088 17.901Z" fill="url(#paint1_linear_1_58)"/>
<path d="M86.6088 17.901L81.9294 17.7822L80.2104 14.4575L79.16 12.5577L78.396 10.8953V10.3016L78.4915 9.70792L78.587 9.47044L78.8735 9.11422L85.2718 8.99548L88.5187 14.9325L86.6088 17.901Z" fill="white"/>
<path d="M86.6088 17.901L81.9294 17.7822L80.2104 14.4575L79.16 12.5577L78.396 10.8953V10.3016L78.4915 9.70792L78.587 9.47044L78.8735 9.11422L85.2718 8.99548L88.5187 14.9325L86.6088 17.901Z" fill="url(#paint2_linear_1_58)"/>
<path d="M86.6088 17.901L81.9294 17.7822L80.2104 14.4575L79.16 12.5577L78.396 10.8953V10.3016L78.4915 9.70792L78.587 9.47044L78.8735 9.11422L85.2718 8.99548L88.5187 14.9325L86.6088 17.901Z" fill="url(#paint3_linear_1_58)"/>
<g filter="url(#filter0_f_1_58)">
<path d="M87.0182 18.345L82.1056 18.2203L80.3009 14.7298L79.1981 12.7353L78.396 10.99V10.3667L78.4963 9.74344L78.5965 9.49412L78.8973 9.12014L85.6146 8.99548L89.0234 15.2285L87.0182 18.345Z" fill="white"/>
<path d="M87.0182 18.345L82.1056 18.2203L80.3009 14.7298L79.1981 12.7353L78.396 10.99V10.3667L78.4963 9.74344L78.5965 9.49412L78.8973 9.12014L85.6146 8.99548L89.0234 15.2285L87.0182 18.345Z" fill="url(#paint4_linear_1_58)"/>
<path d="M87.0182 18.345L82.1056 18.2203L80.3009 14.7298L79.1981 12.7353L78.396 10.99V10.3667L78.4963 9.74344L78.5965 9.49412L78.8973 9.12014L85.6146 8.99548L89.0234 15.2285L87.0182 18.345Z" fill="url(#paint5_linear_1_58)"/>
</g>
<path d="M87.0182 18.345L82.1056 18.2203L80.3009 14.7298L79.1981 12.7353L78.396 10.99V10.3667L78.4963 9.74344L78.5965 9.49412L78.8973 9.12014L85.6146 8.99548L89.0234 15.2285L87.0182 18.345Z" fill="white"/>
<path d="M87.0182 18.345L82.1056 18.2203L80.3009 14.7298L79.1981 12.7353L78.396 10.99V10.3667L78.4963 9.74344L78.5965 9.49412L78.8973 9.12014L85.6146 8.99548L89.0234 15.2285L87.0182 18.345Z" fill="url(#paint6_linear_1_58)"/>
<path d="M87.0182 18.345L82.1056 18.2203L80.3009 14.7298L79.1981 12.7353L78.396 10.99V10.3667L78.4963 9.74344L78.5965 9.49412L78.8973 9.12014L85.6146 8.99548L89.0234 15.2285L87.0182 18.345Z" fill="url(#paint7_linear_1_58)"/>
<path d="M56.224 31.5656C54.4363 31.5656 52.6898 31.3704 50.9843 30.9798C49.2993 30.5687 47.9123 30.024 46.8233 29.3456L49.1658 24.0423C50.1932 24.6384 51.3439 25.1214 52.6178 25.4914C53.8918 25.8409 55.1144 26.0156 56.2857 26.0156C57.2925 26.0156 58.0117 25.9231 58.4432 25.7381C58.8747 25.5326 59.0905 25.2345 59.0905 24.8439C59.0905 24.3917 58.8028 24.0526 58.2275 23.8264C57.6727 23.6003 56.748 23.3537 55.4535 23.0864C53.7891 22.737 52.4021 22.367 51.2925 21.9764C50.1829 21.5653 49.2171 20.9075 48.3952 20.0031C47.5733 19.0781 47.1623 17.8345 47.1623 16.2722C47.1623 14.9156 47.5425 13.6822 48.3028 12.5722C49.063 11.4622 50.1932 10.5886 51.6932 9.95138C53.2137 9.31416 55.0528 8.99554 57.2103 8.99554C58.6898 8.99554 60.1384 9.15999 61.5562 9.48888C62.9946 9.79721 64.2583 10.2597 65.3473 10.8764L63.159 16.1489C61.0425 15.08 59.0391 14.5456 57.1487 14.5456C55.2788 14.5456 54.3439 14.9978 54.3439 15.9022C54.3439 16.3339 54.6213 16.6628 55.1761 16.8889C55.7309 17.0945 56.6453 17.3206 57.9192 17.5672C59.5631 17.8756 60.9501 18.2353 62.0802 18.6464C63.2103 19.037 64.1864 19.6845 65.0083 20.5889C65.8508 21.4934 66.272 22.7267 66.272 24.2889C66.272 25.6456 65.8919 26.879 65.1316 27.989C64.3713 29.0784 63.2309 29.952 61.7103 30.6098C60.2103 31.247 58.3816 31.5656 56.224 31.5656Z" fill="white"/>
<path d="M38.1214 27.3195H29.9486L28.5046 31.0857H21.1307L30.5324 9.47607H37.6605L47.0623 31.0857H39.5655L38.1214 27.3195ZM36.1243 22.0714L34.035 16.6381L31.9457 22.0714H36.1243Z" fill="white"/>
<path d="M11.9713 31.5656C9.69979 31.5656 7.65343 31.0929 5.83216 30.1473C4.01089 29.1812 2.57843 27.8451 1.53478 26.139C0.511593 24.4123 0 22.4595 0 20.2806C0 18.1017 0.511593 16.1592 1.53478 14.4531C2.57843 12.7264 4.01089 11.3903 5.83216 10.4447C7.65343 9.4786 9.69979 8.99554 11.9713 8.99554C14.0586 8.99554 15.9208 9.36555 17.5579 10.1055C19.195 10.8456 20.5456 11.9144 21.6097 13.3122L17.036 17.4131C15.7059 15.7275 14.1404 14.8847 12.3396 14.8847C10.8253 14.8847 9.60771 15.3781 8.68684 16.3647C7.76597 17.3309 7.30554 18.6361 7.30554 20.2806C7.30554 21.925 7.76597 23.2406 8.68684 24.2273C9.60771 25.1934 10.8253 25.6764 12.3396 25.6764C14.1404 25.6764 15.7059 24.8337 17.036 23.1481L21.6097 27.249C20.5456 28.6467 19.195 29.7156 17.5579 30.4556C15.9208 31.1956 14.0586 31.5656 11.9713 31.5656Z" fill="white"/>
<defs>
<filter id="filter0_f_1_58" x="69.996" y="0.595484" width="27.4274" height="26.1495" filterUnits="userSpaceOnUse" color-interpolation-filters="sRGB">
<feFlood flood-opacity="0" result="BackgroundImageFix"/>
<feBlend mode="normal" in="SourceGraphic" in2="BackgroundImageFix" result="shape"/>
<feGaussianBlur stdDeviation="4.2" result="effect1_foregroundBlur_1_58"/>
</filter>
<linearGradient id="paint0_linear_1_58" x1="85.7528" y1="8.99548" x2="80.4096" y2="16.5841" gradientUnits="userSpaceOnUse">
<stop stop-color="#FFED72"/>
<stop offset="1" stop-color="#FB5A00"/>
</linearGradient>
<linearGradient id="paint1_linear_1_58" x1="83.4574" y1="8.99548" x2="83.4574" y2="17.901" gradientUnits="userSpaceOnUse">
<stop stop-color="#FFED72"/>
<stop offset="1" stop-color="#FB9700"/>
</linearGradient>
<linearGradient id="paint2_linear_1_58" x1="85.7528" y1="8.99548" x2="80.4096" y2="16.5841" gradientUnits="userSpaceOnUse">
<stop stop-color="#FFED72"/>
<stop offset="1" stop-color="#FB5A00"/>
</linearGradient>
<linearGradient id="paint3_linear_1_58" x1="83.4574" y1="8.99548" x2="83.4574" y2="17.901" gradientUnits="userSpaceOnUse">
<stop stop-color="#FFED72"/>
<stop offset="1" stop-color="#FB9700"/>
</linearGradient>
<linearGradient id="paint4_linear_1_58" x1="86.1195" y1="8.99548" x2="80.51" y2="16.9624" gradientUnits="userSpaceOnUse">
<stop stop-color="#FFED72"/>
<stop offset="1" stop-color="#FB5A00"/>
</linearGradient>
<linearGradient id="paint5_linear_1_58" x1="83.7097" y1="8.99548" x2="83.7097" y2="18.345" gradientUnits="userSpaceOnUse">
<stop stop-color="#FFED72"/>
<stop offset="1" stop-color="#FB9700"/>
</linearGradient>
<linearGradient id="paint6_linear_1_58" x1="86.1195" y1="8.99548" x2="80.51" y2="16.9624" gradientUnits="userSpaceOnUse">
<stop stop-color="#FFED72"/>
<stop offset="1" stop-color="#FB5A00"/>
</linearGradient>
<linearGradient id="paint7_linear_1_58" x1="83.7097" y1="8.99548" x2="83.7097" y2="18.345" gradientUnits="userSpaceOnUse">
<stop stop-color="#FFED72"/>
<stop offset="1" stop-color="#FB9700"/>
</linearGradient>
</defs>
</svg>
